<svg width="71" height="71" viewBox="0 0 71 71" fill="none" xmlns="http://www.w3.org/2000/svg">
<path d="M64.0632 35.1867C63.9991 51.1979 50.9664 64.1263 34.9531 64.0617C18.9464 63.9965 6.01781 50.9629 6.08382 34.9524C6.14582 18.9399 19.1784 6.01088 35.1867 6.07565C51.1987 6.13953 64.1271 19.175 64.0628 35.187L64.063 35.1867L64.0632 35.1867Z" fill="#FF8000"/>
<path fill-rule="evenodd" clip-rule="evenodd" d="M46.5099 28.0115C46.152 24.1257 42.8045 22.8102 38.5728 22.4223L38.5944 17.0346L35.3149 17.0219L35.2941 22.2677C34.4319 22.2642 33.5506 22.2777 32.6749 22.2916L32.6966 17.011L29.419 16.9978L29.3963 22.3841C28.6863 22.3957 27.9888 22.4063 27.309 22.4039L27.3087 22.387L22.7855 22.3672L22.7723 25.8698C22.7723 25.8698 25.1943 25.8335 25.1539 25.8777C26.482 25.8834 26.9114 26.6565 27.0348 27.3224L27.0103 33.4602C27.1018 33.461 27.2214 33.4653 27.3569 33.4846L27.2616 33.4842L27.2613 33.4842C27.1804 33.4838 27.0964 33.4834 27.0104 33.4838L26.9749 42.0823C26.9151 42.5001 26.6667 43.1659 25.7386 43.1636C25.7806 43.2009 23.3547 43.1535 23.3547 43.1535L22.6872 47.0676L26.9551 47.0846C27.4227 47.0871 27.8858 47.0939 28.3442 47.1006L28.3444 47.1006C28.6646 47.1053 28.9825 47.11 29.2981 47.1132L29.2777 52.5623L32.5536 52.5759L32.5751 47.1843C33.4746 47.2066 34.3448 47.2172 35.1949 47.2199L35.1718 52.5865L38.4515 52.5992L38.4742 47.1597C43.9891 46.8656 47.8536 45.4923 48.3534 40.3164C48.757 36.1488 46.8034 34.2808 43.6769 33.5166C45.5823 32.556 46.7779 30.8549 46.5111 28.0116L46.51 28.0112L46.5099 28.0115ZM41.8748 39.6445C41.8614 43.3806 35.9927 43.2755 33.3076 43.2275C33.0661 43.2231 32.8503 43.2193 32.6669 43.2187L32.6968 35.9988C32.9204 35.9998 33.1921 35.9945 33.4999 35.9885C36.2519 35.9346 41.8905 35.8243 41.875 39.6445L41.8748 39.6445ZM33.2493 32.7024C35.4893 32.7483 40.3759 32.8484 40.3904 29.4522L40.3907 29.4521C40.4042 25.9789 35.7049 26.0844 33.4098 26.1359C33.1516 26.1417 32.9238 26.1468 32.7366 26.1461L32.71 32.6939C32.8642 32.6945 33.0458 32.6983 33.2493 32.7024Z" fill="white"/>
</svg>
