<svg width="264" height="169" viewBox="0 0 264 169" fill="none" xmlns="http://www.w3.org/2000/svg">
<path fill-rule="evenodd" clip-rule="evenodd" d="M39.483 132.91H85.0228V136.972H40.9635L52.0218 168.106H47.8661L19.2422 89.2331L23.0586 87.8418L39.483 132.91Z" fill="black"/>
<path fill-rule="evenodd" clip-rule="evenodd" d="M6.13183 163.504C6.13183 163.504 6.69321 137.14 7.12303 116.956C7.39808 104.029 17.5806 93.4948 30.4903 92.7812C59.0164 91.1888 87.1781 90.784 114.759 92.2662C128.156 92.9888 139.218 102.992 141.28 116.249C141.287 116.247 141.287 116.247 141.287 116.247C142.416 123.498 140.446 130.889 135.857 136.616C130.034 143.855 120.203 153.942 104.98 163.563C104.98 163.563 110.61 165.19 111.185 167.705C111.185 167.705 68.3539 167.655 57.4385 167.643C57.0363 167.642 56.6758 167.395 56.5306 167.019C56.3853 166.645 56.4851 166.218 56.7818 165.948C64.4496 158.939 93.3262 132.546 93.3262 132.546L44.6181 133.04C44.6181 133.04 43.8357 160.27 43.6519 166.667C43.6306 167.407 43.021 167.997 42.2795 167.992C34.959 167.94 0.00119166 167.701 0.00119166 167.701C0.00119166 167.701 -0.239785 165.145 6.13183 163.504Z" fill="url(#paint0_linear_254_1612)"/>
<path fill-rule="evenodd" clip-rule="evenodd" d="M116.409 155.536L79.1232 145.526L80.245 144.5L117.663 154.546C117.251 154.875 116.833 155.206 116.409 155.536ZM44.304 143.972L6.52832 144.884L6.55561 143.602L44.3409 142.689L44.304 143.972Z" fill="#82B5B2"/>
<path fill-rule="evenodd" clip-rule="evenodd" d="M93.2634 132.603L106.517 132.572C106.643 132.572 106.751 132.664 106.77 132.79C106.789 132.915 106.715 133.036 106.593 133.074L85.5467 139.656L93.2634 132.603ZM44.617 133.079L44.4455 139.052L33.2665 134.019C33.05 133.922 32.9311 133.686 32.9811 133.454C33.0311 133.221 33.2366 133.056 33.474 133.057L44.617 133.079Z" fill="#346864"/>
<path fill-rule="evenodd" clip-rule="evenodd" d="M109.372 37.2495C109.372 37.2495 96.5011 19.8705 67.5465 27.4606C63.6474 28.4828 32.7633 38.2847 20.5801 65.824C19.3888 68.5169 12.9655 80.7604 22.2774 87.3056C28.7744 91.874 35.7411 91.0272 60.1524 82.8576C62.218 82.1658 74.9423 79.478 72.6419 76.5394C72.6419 76.5394 73.6686 76.7472 74.1616 76.064C74.1616 76.064 74.2179 76.416 74.2597 76.6762C74.2881 76.854 74.3722 77.0183 74.4998 77.1453C75.0833 77.7271 76.836 79.4742 77.9385 80.5733C78.1282 80.7617 78.4051 80.8334 78.6624 80.7591C78.9196 80.6861 79.1167 80.4785 79.1771 80.2172C79.5027 78.8157 79.9768 76.774 79.9768 76.774C79.9768 76.774 91.5573 79.2871 98.5368 68.0023C98.5368 68.0023 98.8276 79.1488 107.456 83.648C109.976 84.9624 123.968 87.754 127.64 73.3234C130.207 63.2298 132.083 45.1943 133.724 32.2358C133.724 32.2358 142.298 26.8532 142.947 24.2751C143.18 23.3491 142.239 21.8282 140.143 23.3663C140.143 23.3663 143.273 20.705 142.229 19.451C141.648 18.7534 140.457 18.7169 138.1 20.7353C138.1 20.7353 141.036 17.728 139.695 16.5245C138.253 15.232 136.578 17.8904 135.043 19.3214C135.043 19.3214 138.459 14.0771 136.527 13.1714C135.708 12.7878 134.824 12.7395 131.843 16.4936C129.082 19.9702 125.167 20.3289 122.33 19.9879C122.33 19.9879 123.447 13.4377 122.167 12.803C120.722 12.0858 119.419 13.368 116.279 19.8091C113.179 26.1658 111.632 32.464 109.372 37.2495Z" fill="url(#paint1_linear_254_1612)"/>
<path fill-rule="evenodd" clip-rule="evenodd" d="M75.3019 25.9445C97.6923 23.1306 108.337 35.9303 109.3 37.1554C107.84 42.3652 105.335 53.4949 105.335 53.4949L102.7 53.458C102.742 59.9613 98.5494 67.7338 98.5494 67.7338L98.5327 68.0073C91.8965 78.7305 80.9567 76.9522 79.9237 76.7986L80.2612 75.1028L79.3842 72.6424L79.1114 71.9453C79.1114 71.9453 80.3214 70.3236 81.3935 68.8867C82.2979 67.6742 82.0867 65.9643 80.9142 65.0085C78.5695 63.0971 75.0971 60.2663 75.0971 60.2663C75.0768 60.2508 75.0567 60.2353 75.0367 60.2201C72.2472 58.0859 68.7224 57.151 65.242 57.6225C57.8661 58.6214 43.0363 60.6302 43.0363 60.6302L34.083 46.7872C44.5284 36.7101 56.7807 31.2189 63.3054 28.8364L75.3019 25.9445Z" fill="#82B5B2"/>
<path fill-rule="evenodd" clip-rule="evenodd" d="M74.1652 76.0894C74.415 75.7856 75.2407 74.639 74.5002 73.5323L73.458 72.2722C73.458 72.2722 74.9199 72.4831 75.514 72.4266C75.514 72.4266 75.4324 73.8901 76.6411 74.1445C76.9718 74.2131 77.3129 74.0893 77.5228 73.8246C78.1059 73.092 79.4121 71.445 79.4121 71.445C79.4121 71.445 80.1405 74.5882 80.2722 75.1566C80.2855 75.2143 80.2859 75.2742 80.2731 75.332C80.153 75.8748 79.5171 78.7514 79.5171 78.7514L79.1767 80.217C79.1162 80.4784 78.9192 80.6859 78.6619 80.7589C78.4047 80.8332 78.1277 80.7615 77.9381 80.5732C76.8356 79.474 75.0829 77.7269 74.4993 77.1452C74.3717 77.0181 74.2877 76.8538 74.2593 76.676L74.1652 76.0894ZM69.0034 57.6225C69.0034 57.6225 73.6425 58.302 76.6194 61.6027L74.5685 51.7048L67.7725 51.7442L69.0034 57.6225Z" fill="#FFBF2F"/>
<path fill-rule="evenodd" clip-rule="evenodd" d="M79.553 78.591L79.5175 78.7511L79.1771 80.2167C79.1166 80.4781 78.9196 80.6856 78.6624 80.7586C78.4051 80.8329 78.1281 80.7612 77.9385 80.5729L76.3786 79.0176L79.553 78.591ZM74.9475 72.4263C75.1662 72.4378 75.367 72.4404 75.5144 72.4263C75.5144 72.4263 75.4328 73.8898 76.6415 74.1443C76.7728 74.1714 76.9057 74.1683 77.0315 74.1381L77.2196 75.0127L80.0487 74.1896L80.2726 75.1563C80.2795 75.1862 80.2828 75.2165 80.2828 75.2469L74.3764 76.9893C74.3175 76.8942 74.2776 76.7876 74.2597 76.6757L74.1657 76.0891C74.2105 76.0347 74.2738 75.9532 74.3432 75.8495L75.6075 75.4817L74.9475 72.4263ZM71.932 58.4668L70.4766 51.7283L72.21 51.7183L73.8623 59.4012C73.1996 59.0162 72.5408 58.7094 71.932 58.4668Z" fill="black"/>
<path fill-rule="evenodd" clip-rule="evenodd" d="M72.8898 77.4969L68.9928 77.1853C68.7108 77.1627 68.5002 76.9156 68.5228 76.6336C68.5453 76.3518 68.7924 76.1412 69.0744 76.1637L73.4641 76.5145C73.0429 76.6206 72.6417 76.5393 72.6417 76.5393C72.8946 76.8623 72.9659 77.1823 72.8898 77.4969ZM74.6551 72.6644C74.6909 72.6375 74.7312 72.6149 74.775 72.5978C74.775 72.5978 75.2659 72.4052 75.789 72.2C76.4051 71.9583 76.8626 71.4287 77.0119 70.7841C77.0119 70.784 77.0119 70.7839 77.0119 70.7838C77.3167 69.469 76.768 68.1037 75.6379 67.3657C74.3544 66.5272 72.9807 65.6298 72.9807 65.6298C72.7439 65.4752 72.6772 65.1573 72.8319 64.9206C72.9866 64.6838 73.3044 64.6171 73.5411 64.7718L76.097 66.4412L76.1654 65.8603C76.1984 65.5793 76.4534 65.3782 76.7342 65.4112C77.0151 65.4443 77.2163 65.6992 77.1832 65.98L77.0364 67.2263C77.944 68.2381 78.3275 69.6473 78.0104 71.0152C78.0104 71.0153 78.0104 71.0153 78.0103 71.0154C77.7847 71.9891 77.0938 72.7891 76.1632 73.1541C75.6401 73.3592 75.1492 73.5518 75.1492 73.5518C74.9666 73.6234 74.7677 73.5829 74.6283 73.4637C74.4988 73.5604 74.3257 73.5945 74.1607 73.54L69.7883 72.0975C69.5196 72.0088 69.3736 71.7189 69.4622 71.4503C69.5507 71.1817 69.8408 71.0356 70.1093 71.1242L74.4819 72.5667C74.5475 72.5884 74.6058 72.622 74.6551 72.6644ZM105.516 47.8821C105.516 47.8821 101.783 63.5358 100.964 70.527C100.931 70.8078 101.132 71.0626 101.414 71.0955C101.694 71.1284 101.949 70.9271 101.981 70.6462C102.798 63.6916 106.514 48.12 106.514 48.12C106.579 47.845 106.409 47.5683 106.134 47.5027C105.859 47.4371 105.583 47.6071 105.516 47.8821ZM45.7929 58.5797C36.9054 60.5718 31.4752 62.264 28.8358 63.7333C28.5269 63.9053 28.4157 64.2956 28.5878 64.6045C28.7597 64.9135 29.1501 65.0246 29.459 64.8527C32.0437 63.4138 37.3692 61.7808 46.0732 59.8298C46.4181 59.7525 46.6355 59.4096 46.5581 59.0647C46.4807 58.7197 46.1379 58.5024 45.7929 58.5797ZM133.882 32.1342C133.779 32.2006 133.724 32.2358 133.724 32.2358C133.604 33.1739 133.484 34.1388 133.364 35.125L130.735 34.4335C130.635 34.4071 130.561 34.3227 130.548 34.2198C130.534 34.1171 130.584 34.0163 130.673 33.9649L133.882 32.1342ZM142.395 19.751C142.827 21.0843 140.143 23.3663 140.143 23.3663C140.22 23.3098 140.296 23.2575 140.369 23.2092C138.497 24.9251 135.969 26.9611 133.529 28.0353C133.27 28.1493 132.968 28.0317 132.854 27.7728C132.74 27.514 132.858 27.2113 133.116 27.0974C137.225 25.2887 141.582 20.6433 142.395 19.751ZM140.045 17.378C140.022 18.7669 138.1 20.7352 138.1 20.7352C138.241 20.6135 138.379 20.4993 138.514 20.3923C136.628 22.2056 133.897 24.602 131.497 25.8205C131.245 25.9486 130.936 25.8478 130.808 25.5957C130.68 25.3434 130.781 25.0348 131.033 24.9067C134.904 22.9412 139.655 17.8041 140.045 17.378ZM136.915 15.4851C136.393 17.2491 135.043 19.3214 135.043 19.3214C135.085 19.2825 135.128 19.2426 135.169 19.2021C133.606 20.8379 131.496 22.6286 129.122 23.5291C128.857 23.6293 128.561 23.496 128.461 23.2316C128.361 22.9672 128.494 22.671 128.758 22.5707C132.856 21.0166 136.108 16.6434 136.915 15.4851Z" fill="#82B5B2"/>
<path fill-rule="evenodd" clip-rule="evenodd" d="M58.75 58.503L62.7121 54.2967C62.8904 54.1075 63.1669 54.0475 63.4075 54.1462C63.6482 54.2447 63.8032 54.4813 63.7975 54.7414L63.7296 57.8286L58.75 58.503ZM102.691 54.0928C102.68 53.5342 102.6 50.2285 102.259 47.9602C102.234 47.853 102.293 47.7436 102.396 47.7051C102.499 47.6667 102.616 47.7114 102.666 47.8094C103.406 49.2198 104.531 51.5067 105.175 53.4938L102.7 53.4592C102.701 53.6692 102.698 53.8806 102.691 54.0928Z" fill="#346864"/>
<path d="M74.3381 22.1616C79.8605 22.1616 84.3373 17.6698 84.3373 12.1289C84.3373 6.58798 79.8605 2.09619 74.3381 2.09619C68.8157 2.09619 64.3389 6.58798 64.3389 12.1289C64.3389 17.6698 68.8157 22.1616 74.3381 22.1616Z" fill="#99C3C0"/>
<path fill-rule="evenodd" clip-rule="evenodd" d="M67.6905 19.6208C65.6343 17.7823 64.3389 15.1062 64.3389 12.1288C64.3389 6.59162 68.8194 2.09619 74.3381 2.09619C77.7183 2.09619 80.7091 3.78265 82.5195 6.36243L74.3305 13.6841C74.2324 13.3956 74.0825 13.1143 73.8801 12.8555C73.0246 11.7618 71.5524 11.482 70.5948 12.2311C69.6372 12.9801 69.5543 14.4762 70.4098 15.5699C70.6756 15.9098 71.0009 16.171 71.3519 16.3473L67.6905 19.6208Z" fill="black"/>
<path d="M185.655 29.5039H178.015L181.236 40.602H188.877L185.655 29.5039Z" fill="white"/>
<path fill-rule="evenodd" clip-rule="evenodd" d="M181.426 40.3483H183.838C183.977 40.3483 184.091 40.4618 184.091 40.6015C184.091 40.7412 183.977 40.8546 183.837 40.8546H181.236C181.124 40.8546 181.025 40.7803 180.993 40.6721L177.772 29.574C177.749 29.4975 177.764 29.415 177.812 29.3514C177.86 29.2877 177.935 29.2502 178.015 29.2502H183.375C183.514 29.2502 183.628 29.3636 183.628 29.5034C183.627 29.6431 183.515 29.7565 183.375 29.7565H178.351L181.426 40.3483Z" fill="black"/>
<path fill-rule="evenodd" clip-rule="evenodd" d="M185.465 29.7565H183.375C183.235 29.7565 183.121 29.6431 183.122 29.5034C183.122 29.3636 183.234 29.2502 183.374 29.2502H185.655C185.768 29.2502 185.866 29.3246 185.898 29.4328L189.12 40.5309C189.142 40.6074 189.127 40.6899 189.079 40.7536C189.031 40.8172 188.957 40.8546 188.877 40.8546H183.837C183.697 40.8546 183.584 40.7412 183.584 40.6015C183.584 40.4618 183.698 40.3483 183.838 40.3483H188.54L185.465 29.7565Z" fill="black"/>
<path d="M185.329 30.5H179.003L179.427 31.7275H185.753L185.329 30.5Z" fill="black"/>
<path d="M185.949 32.5161H179.623L180.047 33.7436H186.373L185.949 32.5161Z" fill="black"/>
<path d="M186.569 34.532H180.243L180.667 35.7595H186.993L186.569 34.532Z" fill="black"/>
<path d="M187.189 36.5454H180.863L181.287 37.7729H187.613L187.189 36.5454Z" fill="black"/>
<path d="M187.81 38.5615H181.484L181.909 39.789H188.235L187.81 38.5615Z" fill="black"/>
<path fill-rule="evenodd" clip-rule="evenodd" d="M187.414 35.8753C187.164 35.1709 185.673 30.7631 186.825 28.8916C186.903 28.7697 187.027 28.6852 187.168 28.6581C187.578 28.5918 188.452 28.7646 189.688 30.7578C189.688 30.7578 200.913 47.6166 204.965 50.1354C204.965 50.1354 205.073 37.2622 220.23 35.1575C222.334 34.8653 237.12 31.9912 245.408 52.5076C248.149 59.2953 248.118 64.7225 248.07 70.5236C248.038 75.1222 245.651 79.3834 241.745 81.8111C236.627 84.9934 230.28 85.4905 224.729 83.1422C221.005 81.5728 216.198 79.9778 210.742 79.1746L198.764 78.0165C198.764 78.0165 199.362 81.2897 194.403 80.6594C194.403 80.6594 190.498 80.1444 191.278 77.5254C191.278 77.5254 188.647 77.0998 189.19 74.5563C189.19 74.5563 186.695 72.61 188.911 70.2341C188.911 70.2341 181.709 70.1475 180.245 66.7181C180.122 66.4214 180.114 66.0887 180.226 65.787C180.36 65.414 180.709 65.0169 181.558 64.9878C181.558 64.9878 191.52 64.8347 194.141 64.0841L188.447 54.3962C188.447 54.3962 184.012 51.9584 182.989 48.0614C181.936 48.0662 181.042 47.254 180.961 46.1872C180.892 45.2747 181.44 44.4568 182.253 44.1436L181.786 44.1788C180.685 44.2618 179.724 43.4353 179.64 42.3341C179.574 41.4454 180.099 40.6478 180.883 40.3295C179.82 40.3785 178.904 39.5722 178.823 38.5044C178.741 37.4171 179.557 36.4678 180.644 36.3858L187.414 35.8753Z" fill="url(#paint2_linear_254_1612)"/>
<path fill-rule="evenodd" clip-rule="evenodd" d="M198.6 79.2794C196.255 79.1449 194.373 79.7073 194.373 79.7073C194.034 79.8098 193.676 79.6163 193.575 79.2781C193.474 78.9399 193.666 78.5824 194.006 78.48C194.006 78.48 196.743 77.659 199.85 78.1225L198.764 78.0175C198.764 78.0175 198.877 78.6337 198.6 79.2794ZM190.073 77.0251C190.521 75.6655 192.047 72.6664 196.895 71.9267C197.243 71.8734 197.571 72.1139 197.624 72.4633C197.677 72.8128 197.437 73.1399 197.087 73.1932C192.812 73.8455 191.577 76.532 191.262 77.5236C191.162 77.505 190.597 77.3878 190.073 77.0251ZM188.265 73.3841C188.892 72.0479 190.599 69.8766 195.188 69.0219C195.535 68.9572 195.871 69.1868 195.935 69.5343C196 69.8819 195.77 70.2167 195.423 70.2813C189.697 71.3477 189.172 74.6382 189.19 74.5573C189.19 74.5573 188.617 74.1106 188.265 73.3841ZM187.321 70.1243C188.07 69.1528 190.443 66.4494 193.944 65.9477C194.294 65.8975 194.619 66.1409 194.669 66.4909C194.719 66.8409 194.476 67.1657 194.126 67.2159C191.661 67.569 189.855 69.1845 188.902 70.2404C188.783 70.238 188.165 70.2164 187.321 70.1243ZM224.579 63.6406L232.401 66.39C232.734 66.5072 233.1 66.3317 233.218 65.9981C233.335 65.6646 233.159 65.2986 232.826 65.1814L225.005 62.4318C224.67 62.3146 224.305 62.4903 224.187 62.8237C224.071 63.1573 224.246 63.5232 224.579 63.6406ZM193.474 62.9481C194.295 62.7858 203.334 61.0308 209.926 61.1017C210.28 61.1055 210.564 61.3955 210.56 61.7491C210.556 62.1026 210.266 62.3865 209.912 62.3828C203.112 62.3096 193.966 64.1356 194.142 64.0851L193.474 62.9481ZM188.447 54.3972L190.429 55.2887C190.686 55.408 190.797 55.713 190.679 55.9695C190.558 56.226 190.253 56.3375 189.997 56.2182L189.337 55.9111L188.447 54.3972ZM187.079 34.834C188.238 35.0228 189.063 35.642 189.363 36.1316C190.033 37.2245 189.768 38.2972 189.127 39.0613C189.168 39.2648 189.239 39.5755 189.345 39.9539C189.5 40.063 189.631 40.1765 189.74 40.2897C190.333 40.9059 190.371 41.5598 190.383 41.7616C190.396 42.0048 190.374 42.2309 190.323 42.4407C190.881 43.492 191.668 44.5288 192.778 45.1254C193.027 45.2592 193.12 45.5701 192.987 45.8193C192.854 46.0684 192.543 46.1621 192.293 46.0283C191.823 45.7755 191.4 45.4566 191.019 45.0942C191.021 45.099 191.022 45.1038 191.023 45.1086C191.44 46.4099 190.772 47.8146 189.496 48.3118C187.554 49.0739 184.833 49.1245 183.346 49.0838C183.202 48.7557 183.082 48.4151 182.989 48.0624C182.859 48.063 186.881 48.2369 189.122 47.3572C189.904 47.0529 190.307 46.1878 190.039 45.3934C190.036 45.3846 190.033 45.3756 190.03 45.3666C189.838 44.8382 189.313 44.5043 188.752 44.5574L187.696 44.6572C187.494 44.7173 187.366 44.7435 187.366 44.7435C187.263 44.7645 187.161 44.7531 187.071 44.7162L181.101 45.2804C181.31 44.764 181.725 44.348 182.253 44.1446L187.508 43.6456C187.819 43.5471 188.289 43.3638 188.69 43.063C189.067 42.78 189.391 42.384 189.359 41.8181C189.353 41.7061 189.331 41.3432 189.002 41.0009C188.594 40.579 187.795 40.2236 186.267 40.1883C186.226 40.1874 186.186 40.1816 186.149 40.1716C184.359 40.2308 182.524 40.2583 180.7 40.3303C180.03 40.2995 179.437 39.9305 179.103 39.3804C181.753 39.2299 184.459 39.2192 187.044 39.113C187.409 39.098 187.808 38.9097 188.127 38.6244C188.17 38.547 188.234 38.4814 188.312 38.4357C188.71 37.9772 188.879 37.3392 188.489 36.6669C188.128 36.044 187.414 35.8763 187.414 35.8763C187.355 35.7092 187.226 35.334 187.079 34.834ZM190.319 44.7597C190.146 44.8327 190.119 44.9089 190.106 44.9336C190.133 44.8948 190.166 44.8595 190.203 44.8292C190.238 44.8017 190.276 44.7782 190.319 44.7598L190.328 44.7562L190.319 44.7597ZM189.743 43.4903C189.695 43.5438 189.642 43.5954 189.59 43.6451C189.711 43.6862 189.829 43.7375 189.942 43.7982C189.873 43.6965 189.808 43.5937 189.743 43.4903Z" fill="#FD9500"/>
<path fill-rule="evenodd" clip-rule="evenodd" d="M204.923 50.1101L204.965 50.1365C204.965 50.1365 205.073 37.2633 220.23 35.1586C222.333 34.8664 237.12 31.9923 245.407 52.5087C245.437 52.5801 245.465 52.6512 245.493 52.722C240.581 57.8919 235.181 53.9952 235.181 53.9952C232.541 62.0668 224.099 58.5989 224.099 58.5989L226.83 64.4305C220.451 62.0879 208.044 62.4279 208.044 62.4279C205.471 59.1861 204.983 53.348 204.923 50.1101Z" fill="#FD9500"/>
<path fill-rule="evenodd" clip-rule="evenodd" d="M223.844 63.5678C223.844 63.5678 222.197 58.2501 221.01 54.4256C220.958 54.2542 221.045 54.0706 221.21 54.0029C221.377 53.9352 221.568 54.006 221.65 54.1657C223.749 58.2714 226.915 64.4583 226.915 64.4583L223.844 63.5678Z" fill="#E86135"/>
<path fill-rule="evenodd" clip-rule="evenodd" d="M177.003 97.9962C188.895 83.5709 213.522 88.9221 218.944 89.637C254.032 94.2631 246.25 121.216 244.981 124.659C242.196 132.213 235.491 135.136 225.484 136.152V165.472C225.484 165.472 222.43 162.745 221.728 159.647C221.728 159.647 220.523 159.573 218.44 159.364C218.44 159.364 220.025 163.665 220.859 165.93C220.974 166.24 220.93 166.586 220.74 166.856C220.552 167.128 220.243 167.289 219.912 167.289H180.067C182.237 163.328 186.51 163.361 186.51 163.361C184.841 159.18 183.119 155.113 181.424 150.963C170.511 146.603 160.889 140.131 157.954 130.575C156.815 126.867 156.142 110.555 177.003 97.9962Z" fill="url(#paint3_linear_254_1612)"/>
<path fill-rule="evenodd" clip-rule="evenodd" d="M182.614 153.856C186.582 155.859 193.45 157.716 198.002 150.077C198.098 149.914 198.26 149.804 198.446 149.772C198.632 149.741 198.822 149.794 198.966 149.916C198.966 149.916 201.813 152.323 205.314 153.512C207.333 154.197 209.578 154.487 211.594 153.577C212.929 152.974 214.154 151.842 215.155 149.981C215.321 149.67 215.709 149.552 216.022 149.72C216.333 149.887 216.45 150.276 216.282 150.587C215.12 152.751 213.674 154.043 212.121 154.744C209.803 155.791 207.222 155.513 204.902 154.725C202.146 153.788 199.771 152.145 198.718 151.349C194.14 158.389 187.658 157.393 183.32 155.564L183.018 154.835C182.911 154.577 182.805 154.32 182.699 154.062L182.614 153.856Z" fill="#FD9500"/>
<path fill-rule="evenodd" clip-rule="evenodd" d="M211.379 136.417C211.379 136.417 200.502 136.372 194.517 136.348C194.272 136.346 194.063 136.528 194.031 136.772C194.001 137.015 194.154 137.244 194.391 137.306C200.664 138.951 212.678 142.102 212.678 142.102L211.379 136.417Z" fill="#FD9500"/>
<path fill-rule="evenodd" clip-rule="evenodd" d="M226.268 136.067C226.008 136.097 225.748 136.125 225.484 136.152V137.402C220.708 137.702 216.283 137.776 211.968 137.718L219.809 159.494C219.409 159.458 218.95 159.416 218.44 159.365L219.583 162.467C219.518 162.402 219.464 162.321 219.431 162.228L210.599 137.696C209.792 137.679 208.988 137.659 208.185 137.634C207.833 137.624 207.555 137.328 207.565 136.976C207.575 136.622 207.871 136.344 208.223 136.354C213.971 136.527 219.785 136.507 226.268 136.067ZM180.221 94.79C172.92 101.301 170.04 108.406 172.054 120.784C173.425 129.214 177.04 140.047 183.043 154.714C183.083 154.81 183.097 154.911 183.089 155.009C182.533 153.665 181.977 152.318 181.424 150.963C180.913 150.759 180.405 150.55 179.901 150.337C175.013 137.976 172.015 128.528 170.789 120.99C169.289 111.774 170.408 105.362 173.932 99.976C174.899 99.3072 175.921 98.6475 177.003 97.9967C177.993 96.795 179.072 95.7304 180.221 94.79Z" fill="#FD9500"/>
<path d="M208.637 34.4502C213.827 34.4502 218.035 30.2113 218.035 24.9823C218.035 19.7533 213.827 15.5144 208.637 15.5144C203.446 15.5144 199.238 19.7533 199.238 24.9823C199.238 30.2113 203.446 34.4502 208.637 34.4502Z" fill="#FFBF2F"/>
<path fill-rule="evenodd" clip-rule="evenodd" d="M201.34 19.0169C203.065 16.8803 205.694 15.514 208.638 15.514C213.825 15.514 218.036 19.7563 218.036 24.9818C218.036 26.0499 217.86 27.0768 217.536 28.0343C215.878 27.8892 214.937 26.6547 214.613 26.1385C215.219 25.8264 215.64 25.1385 215.64 24.3409C215.64 23.2501 214.852 22.3645 213.881 22.3645C212.91 22.3645 212.122 23.2501 212.122 24.3409C212.122 24.5986 212.166 24.8451 212.246 25.0711C206.292 25.7125 202.505 20.7965 201.34 19.0169ZM205.609 14.007C205.852 14.089 206.12 13.9952 206.26 13.7794C206.398 13.5636 206.374 13.2809 206.198 13.0929C206.148 13.0313 206.092 12.9714 206.033 12.9096C204.552 11.3652 202.884 9.9637 201.107 8.77816C195.642 5.13071 189.13 2.40245 182.728 0.95479C176.115 -0.540525 167.861 -0.624691 162.018 3.24517C158.173 5.79086 155.298 11.1774 158.613 15.3838C159.802 16.8926 161.509 17.9412 163.275 18.6473C170.421 21.5058 177.872 19.7025 184.66 16.8402C188.525 15.2105 192.369 13.0502 196.578 12.3798C199.221 11.9589 203.299 13.189 205.609 14.007Z" fill="black"/>
<path fill-rule="evenodd" clip-rule="evenodd" d="M241.853 136.473L259.736 88.1917L263.553 89.5829L235.156 167.503H230.361L240.349 140.534H211.898V136.473H241.853Z" fill="black"/>
<path d="M173.216 37.9155H119.456L125.817 75.6716H179.576L173.216 37.9155Z" fill="black"/>
<path d="M159.437 73.7908H147.435L149.181 84.1551H161.183L159.437 73.7908Z" fill="black"/>
<path d="M170.274 40.7942H123.25L128.508 72.0069H175.532L170.274 40.7942Z" fill="#EAEAEB"/>
<path d="M168.783 43.5525H152.805L155.14 57.4169H171.118L168.783 43.5525Z" fill="white"/>
<path fill-rule="evenodd" clip-rule="evenodd" d="M153.26 43.9366L154.068 48.7325C154.103 48.9416 153.962 49.14 153.752 49.1753C153.543 49.2105 153.345 49.0693 153.31 48.8601L152.426 43.6161C152.407 43.5046 152.438 43.3905 152.512 43.3041C152.585 43.2178 152.692 43.168 152.805 43.168H168.783C168.971 43.168 169.131 43.3034 169.162 43.4885L170.046 48.7325C170.081 48.9416 169.94 49.14 169.73 49.1753C169.521 49.2105 169.323 49.0693 169.288 48.8601L168.458 43.9366H153.26Z" fill="black"/>
<path fill-rule="evenodd" clip-rule="evenodd" d="M170.665 57.0328L169.288 48.8606C169.253 48.6514 169.394 48.453 169.603 48.4177C169.812 48.3825 170.011 48.5237 170.046 48.7329L171.498 57.3533C171.517 57.4648 171.486 57.579 171.413 57.6653C171.34 57.7517 171.232 57.8014 171.119 57.8014H155.141C154.954 57.8014 154.793 57.666 154.762 57.481L153.31 48.8606C153.275 48.6514 153.416 48.453 153.625 48.4177C153.834 48.3825 154.033 48.5237 154.068 48.7329L155.466 57.0328H170.665Z" fill="black"/>
<path fill-rule="evenodd" clip-rule="evenodd" d="M160.928 57.4169H160.149L157.798 43.5525H158.578L160.928 57.4169ZM166.612 57.4169H165.832L163.482 43.5525H164.261L166.612 57.4169Z" fill="black"/>
<path fill-rule="evenodd" clip-rule="evenodd" d="M170.581 54.2253H154.603L154.474 53.4566H170.452L170.581 54.2253ZM170.006 50.8079H154.028L153.898 50.0393H169.876L170.006 50.8079ZM169.387 47.1329H153.409L153.278 46.3643H169.258L169.387 47.1329Z" fill="black"/>
<path fill-rule="evenodd" clip-rule="evenodd" d="M148.751 69.253H161.503L157.96 48.2202H148.751" fill="white"/>
<path fill-rule="evenodd" clip-rule="evenodd" d="M157.635 48.6044H148.751C148.539 48.6044 148.367 48.4322 148.366 48.22C148.366 48.0079 148.539 47.8357 148.751 47.8357H157.96C158.147 47.8357 158.307 47.9712 158.339 48.1562L161.882 69.1889C161.901 69.3004 161.869 69.4146 161.796 69.5009C161.723 69.5872 161.616 69.6371 161.503 69.6371H148.75C148.538 69.6371 148.367 69.4649 148.366 69.2527C148.366 69.0406 148.539 68.8684 148.751 68.8684H161.048L157.635 48.6044Z" fill="black"/>
<path fill-rule="evenodd" clip-rule="evenodd" d="M148.751 48.2202H130.274L133.818 69.253H148.751" fill="white"/>
<path fill-rule="evenodd" clip-rule="evenodd" d="M134.142 68.8684H148.751C148.963 68.8684 149.135 69.0406 149.135 69.2527C149.135 69.4649 148.963 69.6371 148.751 69.6371H133.817C133.629 69.6371 133.469 69.5016 133.438 69.3166L129.895 48.2839C129.876 48.1724 129.907 48.0583 129.98 47.9718C130.054 47.8855 130.161 47.8357 130.274 47.8357H148.751C148.963 47.8357 149.135 48.0079 149.136 48.22C149.135 48.4322 148.963 48.6044 148.751 48.6044H130.728L134.142 68.8684Z" fill="black"/>
<path d="M157.96 48.2202H130.274L130.7 50.746H158.386L157.96 48.2202Z" fill="black"/>
<path fill-rule="evenodd" clip-rule="evenodd" d="M160.506 63.3356H132.82L132.69 62.567H160.376L160.506 63.3356ZM159.364 56.5619H131.68L131.549 55.7932H159.235L159.364 56.5619Z" fill="black"/>
<path fill-rule="evenodd" clip-rule="evenodd" d="M140.913 69.2529H140.134L136.568 48.2202H137.347L140.913 69.2529ZM148.457 69.2529H147.677L144.112 48.2202H144.892L148.457 69.2529ZM155.907 69.2529H155.128L151.563 48.2202H152.341L155.907 69.2529Z" fill="black"/>
<path d="M158.469 60.4012C158.486 60.611 158.446 60.8056 158.349 60.985C158.246 61.1599 158.096 61.3042 157.888 61.4186C157.68 61.5282 157.428 61.597 157.132 61.6201C156.776 61.648 156.481 61.6073 156.24 61.4936C156.072 61.4135 155.927 61.2972 155.814 61.1489C155.697 61.0011 155.635 60.8537 155.623 60.7074C155.616 60.6196 155.641 60.544 155.701 60.4804C155.757 60.4122 155.829 60.3771 155.925 60.3696C156 60.3637 156.067 60.383 156.126 60.4226C156.185 60.4671 156.235 60.5368 156.278 60.6267C156.332 60.7354 156.389 60.8242 156.45 60.893C156.506 60.9623 156.586 61.0198 156.685 61.0612C156.789 61.1021 156.916 61.1167 157.072 61.1045C157.287 61.0877 157.459 61.0251 157.587 60.917C157.714 60.8088 157.77 60.6817 157.759 60.5354C157.749 60.4183 157.707 60.3283 157.626 60.261C157.55 60.1933 157.451 60.1471 157.332 60.1171C157.214 60.0871 157.056 60.0602 156.862 60.0312C156.601 59.9927 156.38 59.9413 156.199 59.8769C156.017 59.8126 155.874 59.7159 155.758 59.5875C155.647 59.4587 155.583 59.2968 155.567 59.0919C155.553 58.9016 155.594 58.7265 155.688 58.567C155.787 58.412 155.933 58.2828 156.127 58.189C156.326 58.09 156.564 58.0321 156.84 58.0106C157.06 57.9933 157.253 58.0028 157.417 58.0439C157.582 58.085 157.723 58.1476 157.835 58.2272C157.947 58.3068 158.03 58.3936 158.088 58.4872C158.145 58.5809 158.178 58.6716 158.185 58.7643C158.191 58.8473 158.167 58.9277 158.112 58.9958C158.052 59.0692 157.98 59.1092 157.89 59.1163C157.804 59.123 157.743 59.1082 157.695 59.0727C157.646 59.0323 157.596 58.9724 157.539 58.8836C157.463 58.757 157.375 58.6608 157.279 58.5947C157.183 58.5286 157.034 58.5009 156.829 58.517C156.643 58.5315 156.496 58.5823 156.387 58.6743C156.278 58.7614 156.225 58.8637 156.234 58.9759C156.24 59.0442 156.265 59.106 156.309 59.1517C156.353 59.2022 156.406 59.2373 156.479 59.2708C156.552 59.2995 156.625 59.3233 156.697 59.3422C156.768 59.3562 156.886 59.3765 157.05 59.4029C157.254 59.436 157.443 59.4703 157.613 59.511C157.778 59.557 157.924 59.6143 158.045 59.6834C158.166 59.7524 158.265 59.8478 158.339 59.9647C158.414 60.0816 158.456 60.2256 158.469 60.4012Z" fill="black"/>
<path fill-rule="evenodd" clip-rule="evenodd" d="M156.353 57.8493L156.9 61.8347C156.929 62.0448 157.123 62.192 157.332 62.1633C157.543 62.1345 157.69 61.9404 157.662 61.7302L157.115 57.7449C157.087 57.5347 156.892 57.3875 156.682 57.4163C156.471 57.4452 156.325 57.6392 156.353 57.8493Z" fill="black"/>
<path fill-rule="evenodd" clip-rule="evenodd" d="M133.841 51.9757L134.28 54.5303C134.316 54.7394 134.516 54.8798 134.725 54.8439C134.933 54.8079 135.074 54.609 135.037 54.3999L134.598 51.8454C134.562 51.6363 134.363 51.4957 134.154 51.5317C133.946 51.5677 133.805 51.7666 133.841 51.9757Z" fill="black"/>
<path fill-rule="evenodd" clip-rule="evenodd" d="M136.267 65.0279L136.707 67.5826C136.743 67.7916 136.942 67.9321 137.151 67.8962C137.36 67.8602 137.501 67.6612 137.464 67.4522L137.024 64.8976C136.989 64.6885 136.79 64.548 136.581 64.584C136.372 64.62 136.231 64.8188 136.267 65.0279Z" fill="black"/>
<path fill-rule="evenodd" clip-rule="evenodd" d="M142.687 58.552C142.804 58.5349 142.902 58.6316 142.997 58.7506C143.154 58.946 143.27 59.232 143.317 59.5579C143.365 59.8838 143.335 60.1908 143.24 60.4229C143.183 60.5639 143.116 60.6846 142.999 60.7016C142.788 60.7321 142.643 60.9272 142.674 61.1371C142.704 61.347 142.899 61.4928 143.109 61.4624C143.405 61.4194 143.668 61.2319 143.85 60.9224C144.058 60.5662 144.163 60.0284 144.078 59.4475C143.994 58.8665 143.741 58.3807 143.44 58.0984C143.177 57.8535 142.872 57.7483 142.576 57.7913C142.366 57.8218 142.221 58.0168 142.251 58.2268C142.282 58.4367 142.476 58.5824 142.687 58.552Z" fill="black"/>
<path fill-rule="evenodd" clip-rule="evenodd" d="M142.999 60.7006C142.883 60.7175 142.783 60.621 142.688 60.502C142.532 60.3064 142.416 60.0205 142.369 59.6945C142.322 59.3687 142.351 59.0616 142.445 58.8297C142.503 58.6886 142.571 58.5678 142.687 58.551C142.897 58.5205 143.043 58.3253 143.013 58.1154C142.982 57.9054 142.786 57.7598 142.576 57.7903C142.28 57.8333 142.019 58.0206 141.837 58.3301C141.627 58.6865 141.524 59.224 141.608 59.805C141.692 60.3859 141.944 60.872 142.247 61.1541C142.509 61.399 142.813 61.5043 143.109 61.4614C143.319 61.4309 143.465 61.2356 143.435 61.0257C143.404 60.8158 143.209 60.6701 142.999 60.7006Z" fill="black"/>
<path fill-rule="evenodd" clip-rule="evenodd" d="M143.733 65.2944C143.851 65.2774 143.949 65.374 144.044 65.4931C144.201 65.6885 144.317 65.9745 144.364 66.3003C144.412 66.6263 144.382 66.9332 144.287 67.1654C144.23 67.3064 144.163 67.427 144.045 67.444C143.835 67.4745 143.69 67.6697 143.721 67.8796C143.751 68.0894 143.946 68.2353 144.156 68.2048C144.452 68.1618 144.714 67.9743 144.897 67.6649C145.105 67.3086 145.209 66.7708 145.125 66.1899C145.041 65.609 144.788 65.1231 144.487 64.8408C144.224 64.5959 143.919 64.4908 143.623 64.5337C143.413 64.5642 143.268 64.7592 143.298 64.9692C143.329 65.1791 143.523 65.3249 143.733 65.2944Z" fill="black"/>
<path fill-rule="evenodd" clip-rule="evenodd" d="M144.046 67.443C143.929 67.4599 143.83 67.3634 143.735 67.2445C143.579 67.0488 143.463 66.7629 143.416 66.437C143.369 66.1111 143.398 65.804 143.492 65.5722C143.549 65.4311 143.617 65.3103 143.734 65.2934C143.944 65.2629 144.09 65.0677 144.06 64.8578C144.029 64.6478 143.833 64.5023 143.623 64.5327C143.327 64.5757 143.066 64.7631 142.884 65.0725C142.674 65.4289 142.571 65.9665 142.655 66.5474C142.739 67.1283 142.991 67.6144 143.293 67.8966C143.556 68.1415 143.86 68.2468 144.156 68.2038C144.366 68.1733 144.512 67.978 144.482 67.7681C144.451 67.5582 144.256 67.4126 144.046 67.443Z" fill="black"/>
<path fill-rule="evenodd" clip-rule="evenodd" d="M151.221 65.2919C151.338 65.2749 151.437 65.3716 151.531 65.4906C151.689 65.686 151.804 65.972 151.852 66.2979C151.899 66.6238 151.869 66.9308 151.774 67.1629C151.717 67.3039 151.65 67.4246 151.533 67.4416C151.323 67.4721 151.178 67.6672 151.208 67.8771C151.238 68.087 151.433 68.2328 151.643 68.2024C151.939 68.1594 152.202 67.9719 152.384 67.6624C152.592 67.3062 152.697 66.7684 152.612 66.1874C152.528 65.6065 152.275 65.1207 151.974 64.8384C151.711 64.5935 151.406 64.4883 151.11 64.5313C150.9 64.5618 150.755 64.7568 150.786 64.9668C150.816 65.1767 151.011 65.3224 151.221 65.2919Z" fill="black"/>
<path fill-rule="evenodd" clip-rule="evenodd" d="M151.533 67.4404C151.417 67.4572 151.317 67.3607 151.222 67.2418C151.066 67.0461 150.951 66.7602 150.903 66.4343C150.856 66.1085 150.886 65.8014 150.98 65.5695C151.037 65.4284 151.105 65.3076 151.221 65.2907C151.431 65.2602 151.577 65.065 151.547 64.8551C151.516 64.6451 151.321 64.4996 151.111 64.5301C150.815 64.573 150.553 64.7604 150.371 65.0698C150.161 65.4262 150.058 65.9638 150.142 66.5447C150.227 67.1256 150.479 67.6117 150.781 67.8939C151.043 68.1388 151.347 68.2441 151.643 68.2011C151.853 68.1706 152 67.9753 151.969 67.7655C151.939 67.5556 151.743 67.4099 151.533 67.4404Z" fill="black"/>
<path d="M142.836 14.7744L127.902 8.59839L119.327 27.3877L134.261 33.5637L142.836 14.7744Z" fill="#DD6140"/>
<path d="M140.672 16.1825L128.339 11.0818L127.224 13.5242L139.558 18.6249L140.672 16.1825Z" fill="white"/>
<path fill-rule="evenodd" clip-rule="evenodd" d="M127.891 15.6935C128.411 15.9185 128.661 16.5055 128.444 17.0064C128.227 17.5072 127.628 17.7268 127.108 17.5019L126.956 17.8545C127.673 18.1651 128.497 17.8508 128.796 17.1589C129.096 16.467 128.761 15.6514 128.044 15.3408L127.891 15.6935Z" fill="white"/>
<path fill-rule="evenodd" clip-rule="evenodd" d="M127.108 17.5028C126.589 17.2778 126.339 16.6907 126.556 16.1899C126.772 15.689 127.371 15.4694 127.891 15.6944L128.044 15.3417C127.325 15.0307 126.502 15.345 126.202 16.0369C125.903 16.7287 126.237 17.5444 126.956 17.8554L127.108 17.5028Z" fill="white"/>
<path fill-rule="evenodd" clip-rule="evenodd" d="M126.581 18.7216C127.1 18.9465 127.35 19.5336 127.134 20.0345C126.917 20.5353 126.318 20.7549 125.798 20.5299L125.645 20.8826C126.363 21.1932 127.186 20.8788 127.486 20.187C127.785 19.4951 127.451 18.6795 126.733 18.3689L126.581 18.7216Z" fill="white"/>
<path fill-rule="evenodd" clip-rule="evenodd" d="M125.798 20.5309C125.278 20.3059 125.028 19.7188 125.245 19.218C125.462 18.7171 126.061 18.4975 126.581 18.7225L126.733 18.3698C126.015 18.0588 125.191 18.3731 124.891 19.065C124.592 19.7568 124.926 20.5725 125.645 20.8835L125.798 20.5309Z" fill="white"/>
<path fill-rule="evenodd" clip-rule="evenodd" d="M125.27 21.7496C125.79 21.9746 126.04 22.5617 125.823 23.0625C125.606 23.5634 125.007 23.783 124.487 23.558L124.335 23.9107C125.052 24.2212 125.876 23.9069 126.175 23.215C126.475 22.5232 126.14 21.7075 125.423 21.397L125.27 21.7496Z" fill="white"/>
<path fill-rule="evenodd" clip-rule="evenodd" d="M124.487 23.5589C123.967 23.3339 123.718 22.7469 123.934 22.246C124.151 21.7452 124.75 21.5256 125.27 21.7506L125.423 21.3979C124.704 21.0868 123.88 21.4012 123.581 22.093C123.281 22.7849 123.616 23.6005 124.335 23.9116L124.487 23.5589Z" fill="white"/>
<path fill-rule="evenodd" clip-rule="evenodd" d="M123.96 24.7777C124.479 25.0027 124.729 25.5897 124.512 26.0906C124.296 26.5915 123.697 26.8111 123.177 26.5861L123.024 26.9387C123.742 27.2493 124.565 26.935 124.865 26.2431C125.164 25.5512 124.83 24.7356 124.112 24.425L123.96 24.7777Z" fill="white"/>
<path fill-rule="evenodd" clip-rule="evenodd" d="M123.177 26.587C122.657 26.362 122.407 25.775 122.624 25.2741C122.841 24.7733 123.44 24.5537 123.959 24.7786L124.112 24.426C123.394 24.1149 122.57 24.4292 122.27 25.1211C121.971 25.813 122.305 26.6286 123.024 26.9397L123.177 26.587Z" fill="white"/>
<path fill-rule="evenodd" clip-rule="evenodd" d="M130.954 17.0179C131.474 17.2429 131.723 17.83 131.507 18.3308C131.29 18.8317 130.691 19.0513 130.171 18.8263L130.018 19.179C130.736 19.4895 131.559 19.1752 131.859 18.4834C132.158 17.7915 131.824 16.9758 131.106 16.6653L130.954 17.0179Z" fill="white"/>
<path fill-rule="evenodd" clip-rule="evenodd" d="M130.171 18.8272C129.651 18.6023 129.401 18.0152 129.618 17.5144C129.835 17.0135 130.434 16.7939 130.954 17.0189L131.106 16.6662C130.388 16.3552 129.564 16.6695 129.265 17.3613C128.965 18.0532 129.3 18.8688 130.018 19.1799L130.171 18.8272Z" fill="white"/>
<path fill-rule="evenodd" clip-rule="evenodd" d="M129.643 20.046C130.163 20.271 130.413 20.8581 130.196 21.3589C129.979 21.8598 129.38 22.0794 128.86 21.8544L128.708 22.2071C129.425 22.5176 130.249 22.2033 130.548 21.5114C130.848 20.8196 130.513 20.0039 129.796 19.6934L129.643 20.046Z" fill="white"/>
<path fill-rule="evenodd" clip-rule="evenodd" d="M128.86 21.8553C128.34 21.6303 128.091 21.0433 128.307 20.5424C128.524 20.0416 129.123 19.822 129.643 20.047L129.796 19.6943C129.077 19.3832 128.253 19.6975 127.954 20.3894C127.654 21.0813 127.989 21.8969 128.708 22.208L128.86 21.8553Z" fill="white"/>
<path fill-rule="evenodd" clip-rule="evenodd" d="M128.333 23.0741C128.852 23.2991 129.102 23.8861 128.885 24.387C128.669 24.8878 128.07 25.1075 127.55 24.8825L127.397 25.2351C128.115 25.5457 128.938 25.2314 129.238 24.5395C129.537 23.8476 129.203 23.032 128.485 22.7214L128.333 23.0741Z" fill="white"/>
<path fill-rule="evenodd" clip-rule="evenodd" d="M127.55 24.8834C127.03 24.6584 126.78 24.0714 126.997 23.5705C127.214 23.0696 127.813 22.85 128.332 23.075L128.485 22.7224C127.767 22.4113 126.943 22.7256 126.643 23.4175C126.344 24.1094 126.678 24.925 127.397 25.2361L127.55 24.8834Z" fill="white"/>
<path fill-rule="evenodd" clip-rule="evenodd" d="M127.022 26.1022C127.542 26.3272 127.792 26.9142 127.575 27.4151C127.358 27.9159 126.759 28.1355 126.239 27.9105L126.087 28.2632C126.804 28.5738 127.628 28.2595 127.927 27.5676C128.227 26.8757 127.892 26.0601 127.175 25.7495L127.022 26.1022Z" fill="white"/>
<path fill-rule="evenodd" clip-rule="evenodd" d="M126.239 27.9115C125.719 27.6865 125.47 27.0994 125.686 26.5986C125.903 26.0977 126.502 25.8781 127.022 26.1031L127.175 25.7504C126.456 25.4394 125.632 25.7537 125.333 26.4456C125.033 27.1374 125.368 27.9531 126.086 28.2641L126.239 27.9115Z" fill="white"/>
<path fill-rule="evenodd" clip-rule="evenodd" d="M134.016 18.3451C134.536 18.5701 134.786 19.1571 134.569 19.658C134.352 20.1588 133.753 20.3784 133.233 20.1535L133.081 20.5061C133.798 20.8167 134.622 20.5024 134.921 19.8105C135.221 19.1186 134.886 18.303 134.169 17.9924L134.016 18.3451Z" fill="white"/>
<path fill-rule="evenodd" clip-rule="evenodd" d="M133.233 20.1544C132.714 19.9294 132.464 19.3424 132.681 18.8415C132.897 18.3406 133.496 18.121 134.016 18.346L134.169 17.9934C133.45 17.6823 132.627 17.9966 132.327 18.6885C132.028 19.3804 132.362 20.196 133.081 20.5071L133.233 20.1544Z" fill="white"/>
<path fill-rule="evenodd" clip-rule="evenodd" d="M132.706 21.3732C133.225 21.5982 133.475 22.1852 133.259 22.6861C133.042 23.1869 132.443 23.4065 131.923 23.1815L131.77 23.5342C132.488 23.8448 133.311 23.5304 133.611 22.8386C133.91 22.1467 133.576 21.3311 132.858 21.0205L132.706 21.3732Z" fill="white"/>
<path fill-rule="evenodd" clip-rule="evenodd" d="M131.923 23.1825C131.403 22.9575 131.153 22.3704 131.37 21.8696C131.587 21.3687 132.186 21.1491 132.706 21.3741L132.858 21.0214C132.14 20.7104 131.316 21.0247 131.016 21.7166C130.717 22.4084 131.051 23.2241 131.77 23.5351L131.923 23.1825Z" fill="white"/>
<path fill-rule="evenodd" clip-rule="evenodd" d="M131.395 24.4012C131.915 24.6262 132.165 25.2133 131.948 25.7141C131.731 26.215 131.132 26.4346 130.612 26.2096L130.46 26.5623C131.177 26.8728 132.001 26.5585 132.3 25.8667C132.6 25.1748 132.265 24.3591 131.548 24.0486L131.395 24.4012Z" fill="white"/>
<path fill-rule="evenodd" clip-rule="evenodd" d="M130.612 26.2106C130.092 25.9856 129.843 25.3985 130.059 24.8977C130.276 24.3968 130.875 24.1772 131.395 24.4022L131.548 24.0495C130.829 23.7385 130.005 24.0528 129.706 24.7446C129.406 25.4365 129.741 26.2522 130.46 26.5632L130.612 26.2106Z" fill="white"/>
<path fill-rule="evenodd" clip-rule="evenodd" d="M130.085 27.4266C130.604 27.6516 130.854 28.2387 130.637 28.7395C130.421 29.2404 129.822 29.46 129.302 29.235L129.149 29.5877C129.867 29.8982 130.69 29.5839 130.99 28.892C131.289 28.2002 130.955 27.3845 130.237 27.074L130.085 27.4266Z" fill="white"/>
<path fill-rule="evenodd" clip-rule="evenodd" d="M129.302 29.2359C128.782 29.0109 128.532 28.4239 128.749 27.923C128.966 27.4222 129.565 27.2026 130.084 27.4276L130.237 27.0749C129.519 26.7638 128.695 27.0782 128.395 27.77C128.096 28.4619 128.43 29.2775 129.149 29.5886L129.302 29.2359Z" fill="white"/>
<path fill-rule="evenodd" clip-rule="evenodd" d="M137.079 19.6696C137.599 19.8945 137.848 20.4816 137.632 20.9824C137.415 21.4833 136.816 21.7029 136.296 21.4779L136.143 21.8306C136.861 22.1411 137.684 21.8268 137.984 21.135C138.283 20.4431 137.949 19.6275 137.231 19.3169L137.079 19.6696Z" fill="white"/>
<path fill-rule="evenodd" clip-rule="evenodd" d="M136.296 21.4789C135.776 21.2539 135.526 20.6668 135.743 20.166C135.96 19.6651 136.559 19.4455 137.079 19.6705L137.231 19.3178C136.513 19.0068 135.689 19.3211 135.39 20.013C135.09 20.7048 135.425 21.5205 136.143 21.8315L136.296 21.4789Z" fill="white"/>
<path fill-rule="evenodd" clip-rule="evenodd" d="M135.768 22.6976C136.288 22.9226 136.538 23.5097 136.321 24.0105C136.104 24.5114 135.505 24.731 134.985 24.506L134.833 24.8587C135.55 25.1692 136.374 24.8549 136.673 24.163C136.973 23.4712 136.638 22.6555 135.921 22.345L135.768 22.6976Z" fill="white"/>
<path fill-rule="evenodd" clip-rule="evenodd" d="M134.985 24.5069C134.465 24.2819 134.216 23.6949 134.432 23.194C134.649 22.6932 135.248 22.4736 135.768 22.6986L135.921 22.3459C135.202 22.0348 134.378 22.3492 134.079 23.041C133.779 23.7329 134.114 24.5485 134.833 24.8596L134.985 24.5069Z" fill="white"/>
<path fill-rule="evenodd" clip-rule="evenodd" d="M134.458 25.7257C134.977 25.9507 135.227 26.5377 135.01 27.0386C134.794 27.5395 134.195 27.7591 133.675 27.5341L133.522 27.8867C134.24 28.1973 135.063 27.883 135.363 27.1911C135.662 26.4992 135.328 25.6836 134.61 25.373L134.458 25.7257Z" fill="white"/>
<path fill-rule="evenodd" clip-rule="evenodd" d="M133.675 27.535C133.155 27.31 132.905 26.723 133.122 26.2221C133.339 25.7213 133.938 25.5017 134.458 25.7266L134.61 25.374C133.892 25.0629 133.068 25.3772 132.768 26.0691C132.469 26.761 132.803 27.5766 133.522 27.8877L133.675 27.535Z" fill="white"/>
<path fill-rule="evenodd" clip-rule="evenodd" d="M133.147 28.7538C133.667 28.9788 133.917 29.5658 133.7 30.0667C133.483 30.5675 132.884 30.7871 132.364 30.5622L132.212 30.9148C132.929 31.2254 133.753 30.9111 134.052 30.2192C134.352 29.5273 134.017 28.7117 133.3 28.4011L133.147 28.7538Z" fill="white"/>
<path fill-rule="evenodd" clip-rule="evenodd" d="M132.364 30.5631C131.844 30.3381 131.595 29.751 131.811 29.2502C132.028 28.7493 132.627 28.5297 133.147 28.7547L133.3 28.4021C132.581 28.091 131.757 28.4053 131.458 29.0972C131.158 29.789 131.493 30.6047 132.211 30.9158L132.364 30.5631Z" fill="white"/>
<path d="M223.098 83.7483H51.374V88.6099H223.098V83.7483Z" fill="black"/>
<path fill-rule="evenodd" clip-rule="evenodd" d="M174.36 81.1702H176.549V80.2529H179.967V81.1702H182.298V80.2529H185.716V81.1702H188.047V80.2529H191.465V81.1702H192.193C192.527 81.1702 192.848 81.3035 193.085 81.5405C193.32 81.7762 193.454 82.0965 193.454 82.4308V83.7094H168.692C168.692 83.7094 168.692 83.0688 168.692 82.4308C168.692 82.0965 168.826 81.7762 169.061 81.5405C169.298 81.3035 169.619 81.1702 169.953 81.1702H170.942V80.2529H174.36V81.1702Z" fill="#D2D3D5"/>
<path d="M89.6371 80.6587H59.5762V84.0889H89.6371V80.6587Z" fill="white"/>
<path fill-rule="evenodd" clip-rule="evenodd" d="M75.8376 80.0952V81.1201H60.2583V83.3249H75.8376V84.3498H59.7458C59.4628 84.3498 59.2334 84.1205 59.2334 83.8374V80.6077C59.2334 80.3245 59.4628 80.0952 59.7458 80.0952H75.8376Z" fill="black"/>
<path fill-rule="evenodd" clip-rule="evenodd" d="M75.8381 80.0952H90.0731C90.3562 80.0952 90.5855 80.3245 90.5855 80.6077V83.8374C90.5855 84.1205 90.3562 84.3498 90.0731 84.3498H75.8381C75.3613 83.8476 75.5436 83.567 75.8381 83.3249H89.5606V81.1201H75.8381C75.6439 80.7422 75.5962 80.3912 75.8381 80.0952Z" fill="black"/>
<path fill-rule="evenodd" clip-rule="evenodd" d="M77.6994 80.7635L77.7832 83.9817C77.7906 84.2648 78.0261 84.4877 78.3088 84.4813C78.5916 84.4736 78.8151 84.2379 78.8078 83.9548L78.7239 80.7366C78.7165 80.4548 78.481 80.2306 78.1983 80.2383C77.9155 80.246 77.692 80.4817 77.6994 80.7635ZM84.1338 79.2646V83.7844C84.1338 84.0675 84.3634 84.2968 84.6462 84.2968C84.929 84.2968 85.1587 84.0675 85.1587 83.7844V79.2646C85.1587 78.9815 84.929 78.7522 84.6462 78.7522C84.3634 78.7522 84.1338 78.9815 84.1338 79.2646ZM80.976 79.3389V83.4936C80.976 83.7767 81.2056 84.006 81.4884 84.006C81.7713 84.006 82.0009 83.7767 82.0009 83.4936V79.3389C82.0009 79.0558 81.7713 78.8265 81.4884 78.8265C81.2056 78.8265 80.976 79.0558 80.976 79.3389ZM87.1457 79.3095V83.3847C87.1457 83.6665 87.375 83.8971 87.6581 83.8971C87.9413 83.8971 88.1706 83.6665 88.1706 83.3847V79.3095C88.1706 79.0276 87.9413 78.797 87.6581 78.797C87.375 78.797 87.1457 79.0276 87.1457 79.3095Z" fill="black"/>
<path fill-rule="evenodd" clip-rule="evenodd" d="M97.0678 56.3141H96.1608C95.6561 56.3141 95.2461 55.9041 95.2461 55.3993C95.2461 54.8944 95.6561 54.4846 96.1608 54.4846H118.911C119.417 54.4846 119.826 54.8944 119.826 55.3993C119.826 55.9041 119.417 56.3141 118.911 56.3141H118.488C118.948 56.4757 119.372 56.7395 119.723 57.0914C120.341 57.708 120.686 58.5443 120.686 59.4163V83.7136H94.8682C94.8682 83.7136 94.8682 66.7317 94.8682 59.4163C94.8682 58.5443 95.2153 57.708 95.8316 57.0914C96.1839 56.7395 96.6066 56.4757 97.0678 56.3141Z" fill="#FFF4E5"/>
<path fill-rule="evenodd" clip-rule="evenodd" d="M118.488 56.3137C118.816 56.4288 119.125 56.5958 119.403 56.8094L95.4551 57.5422C95.5665 57.3819 95.6921 57.2309 95.8317 57.0911C96.184 56.7392 96.6068 56.4754 97.068 56.3137H118.488Z" fill="#F4978B"/>
<path d="M103.968 60.5496L95.6455 63.0723L100.019 77.5L108.341 74.9773L103.968 60.5496Z" fill="#F4978B"/>
<path fill-rule="evenodd" clip-rule="evenodd" d="M102.13 67.4911C103.107 67.4911 103.9 68.2841 103.9 69.2608C103.9 70.2375 103.107 71.0304 102.13 71.0304C101.918 71.0304 101.746 71.2026 101.746 71.4148C101.746 71.6269 101.918 71.7991 102.13 71.7991C103.531 71.7991 104.668 70.6617 104.668 69.2608C104.668 67.8599 103.531 66.7224 102.13 66.7224C101.918 66.7224 101.746 66.8947 101.746 67.1067C101.746 67.3189 101.918 67.4911 102.13 67.4911Z" fill="#DE6647"/>
<path fill-rule="evenodd" clip-rule="evenodd" d="M102.13 71.0304C101.152 71.0304 100.36 70.2375 100.36 69.2608C100.36 68.2841 101.152 67.4911 102.13 67.4911C102.341 67.4911 102.514 67.3189 102.514 67.1067C102.514 66.8947 102.341 66.7224 102.13 66.7224C100.728 66.7224 99.5918 67.8599 99.5918 69.2608C99.5918 70.6617 100.728 71.7991 102.13 71.7991C102.341 71.7991 102.514 71.6269 102.514 71.4148C102.514 71.2026 102.341 71.0304 102.13 71.0304Z" fill="#DE6647"/>
<path fill-rule="evenodd" clip-rule="evenodd" d="M102.949 76.6115L102.285 74.5803C102.198 74.3115 102.345 74.022 102.613 73.9342C102.882 73.8465 103.172 73.9934 103.26 74.2623L103.93 76.3142L102.949 76.6115ZM104.329 76.1932L103.881 74.7478C103.798 74.4776 103.949 74.1903 104.22 74.1067C104.49 74.0232 104.777 74.1746 104.86 74.4448L105.31 75.8959L104.329 76.1932ZM101.072 61.4272L101.796 63.7671C101.879 64.0373 101.728 64.3245 101.458 64.408C101.187 64.4917 100.9 64.3401 100.817 64.0699L100.091 61.7246L101.072 61.4272ZM99.4667 61.9137L100.075 63.6876C100.167 63.9551 100.024 64.2468 99.7562 64.3386C99.4885 64.4303 99.1976 64.2876 99.1054 64.02L98.4854 62.2112L99.4667 61.9137Z" fill="#DE6647"/>
<path d="M120.287 68.9748L111.886 66.7278L107.991 81.2918L116.392 83.5388L120.287 68.9748Z" fill="#F4978B"/>
<path fill-rule="evenodd" clip-rule="evenodd" d="M115.064 73.9014C115.893 74.4164 116.148 75.5084 115.633 76.3382C115.118 77.168 114.026 77.4233 113.197 76.9083C113.016 76.7961 112.779 76.8519 112.667 77.0321C112.556 77.2123 112.611 77.4492 112.791 77.5614C113.981 78.3 115.547 77.9338 116.286 76.7436C117.025 75.5535 116.659 73.987 115.469 73.2484C115.288 73.1362 115.052 73.192 114.94 73.3722C114.828 73.5524 114.883 73.7892 115.064 73.9014Z" fill="#DE6647"/>
<path fill-rule="evenodd" clip-rule="evenodd" d="M113.196 76.9095C112.366 76.3939 112.111 75.3027 112.627 74.4729C113.142 73.6431 114.233 73.387 115.063 73.9026C115.243 74.0141 115.48 73.9591 115.592 73.7788C115.704 73.5987 115.648 73.3611 115.469 73.2496C114.278 72.5103 112.712 72.8773 111.974 74.0674C111.235 75.2576 111.6 76.8233 112.791 77.5625C112.97 77.674 113.208 77.619 113.32 77.4388C113.432 77.2585 113.376 77.021 113.196 76.9095Z" fill="#DE6647"/>
<path fill-rule="evenodd" clip-rule="evenodd" d="M110.948 82.081L111.456 80.0054C111.524 79.7311 111.802 79.5628 112.076 79.6295C112.35 79.6968 112.519 79.9744 112.452 80.2495L111.939 82.3461L110.948 82.081ZM112.341 82.4535L112.724 80.9896C112.796 80.7162 113.076 80.5519 113.349 80.6234C113.623 80.695 113.787 80.975 113.715 81.2485L113.332 82.7185L112.341 82.4535ZM117.363 68.191L116.744 70.5607C116.672 70.8341 116.392 70.9984 116.119 70.9268C115.845 70.8553 115.681 70.5751 115.753 70.3017L116.373 67.926L117.363 68.191ZM115.743 67.7576L115.324 69.5856C115.262 69.8615 114.986 70.0337 114.71 69.9704C114.434 69.9071 114.262 69.6324 114.325 69.3564L114.753 67.4926L115.743 67.7576Z" fill="#DE6647"/>
<path d="M112.168 65.2171C113.881 65.2171 115.271 63.8277 115.271 62.1139C115.271 60.4001 113.881 59.0107 112.168 59.0107C110.454 59.0107 109.064 60.4001 109.064 62.1139C109.064 63.8277 110.454 65.2171 112.168 65.2171Z" fill="#FFCF84"/>
<path fill-rule="evenodd" clip-rule="evenodd" d="M112.208 60.1357C113.33 60.1357 114.241 61.0468 114.241 62.1691C114.241 63.2914 113.33 64.2025 112.208 64.2025C112.1 64.2025 112.012 64.2901 112.012 64.3979C112.012 64.5056 112.1 64.5932 112.208 64.5932C113.545 64.5932 114.631 63.507 114.631 62.1691C114.631 60.8313 113.545 59.7451 112.208 59.7451C112.1 59.7451 112.012 59.8327 112.012 59.9404C112.012 60.0482 112.1 60.1357 112.208 60.1357Z" fill="#FDA92F"/>
<path fill-rule="evenodd" clip-rule="evenodd" d="M112.208 64.2025C111.086 64.2025 110.175 63.2914 110.175 62.1691C110.175 61.0468 111.086 60.1357 112.208 60.1357C112.315 60.1357 112.402 60.0482 112.402 59.9404C112.402 59.8327 112.315 59.7451 112.208 59.7451C110.87 59.7451 109.784 60.8313 109.784 62.1691C109.784 63.507 110.87 64.5932 112.208 64.5932C112.315 64.5932 112.402 64.5056 112.402 64.3979C112.402 64.2901 112.315 64.2025 112.208 64.2025Z" fill="#FDA92F"/>
<path fill-rule="evenodd" clip-rule="evenodd" d="M111.706 65.182L111.734 64.4399C111.738 64.3322 111.829 64.2482 111.937 64.2524C112.045 64.2565 112.129 64.3473 112.125 64.4551L112.095 65.2154C111.963 65.2123 111.833 65.201 111.706 65.182ZM112.842 65.1425L112.651 64.3845C112.626 64.2799 112.689 64.1737 112.794 64.1475C112.897 64.1212 113.004 64.1847 113.031 64.2892L113.218 65.0337C113.096 65.0777 112.97 65.1141 112.842 65.1425ZM109.587 63.8358L110.171 63.3744C110.256 63.3076 110.379 63.322 110.445 63.4066C110.512 63.4912 110.498 63.614 110.413 63.6809L109.824 64.1462C109.739 64.0479 109.66 63.9443 109.587 63.8358ZM109.192 62.997L109.923 62.6013C110.017 62.5499 110.137 62.5852 110.188 62.68C110.239 62.7746 110.203 62.8933 110.108 62.9446L109.329 63.3673C109.276 63.2476 109.231 63.124 109.192 62.997ZM115.237 62.5713L114.532 62.5386C114.424 62.5336 114.341 62.4422 114.346 62.3346C114.351 62.2268 114.442 62.1435 114.55 62.1484L115.27 62.1819C115.267 62.3138 115.256 62.4437 115.237 62.5713ZM114.339 59.8967C114.432 59.9881 114.519 60.0852 114.601 60.1877L114.029 60.7757C113.953 60.853 113.83 60.8547 113.753 60.7795C113.675 60.7043 113.674 60.5806 113.749 60.5033L114.339 59.8967ZM110.622 59.4225L111.129 60.1801C111.19 60.2697 111.165 60.391 111.076 60.4511C110.986 60.511 110.864 60.4871 110.805 60.3975L110.297 59.6383C110.399 59.5598 110.508 59.4877 110.622 59.4225ZM112.437 59.0215C112.568 59.0328 112.697 59.0522 112.824 59.0795L112.747 59.8548C112.736 59.9622 112.64 60.0406 112.534 60.0298C112.426 60.0192 112.348 59.9235 112.358 59.8163L112.437 59.0215Z" fill="#FDA92F"/>
<path d="M103.782 68.6262C103.588 70.329 104.811 71.867 106.513 72.0615C108.216 72.2559 109.754 71.0332 109.949 69.3304C110.143 67.6277 108.92 66.0897 107.218 65.8952C105.515 65.7008 103.977 66.9235 103.782 68.6262Z" fill="#FFCF84"/>
<path fill-rule="evenodd" clip-rule="evenodd" d="M108.825 69.2421C108.698 70.3562 107.689 71.1579 106.574 71.0306C105.459 70.9032 104.657 69.8948 104.784 68.7807C104.797 68.6735 104.72 68.5754 104.613 68.5631C104.506 68.5509 104.409 68.6292 104.396 68.7364C104.245 70.0648 105.201 71.2669 106.53 71.4187C107.859 71.5705 109.061 70.6149 109.213 69.2865C109.225 69.1793 109.148 69.0811 109.041 69.0689C108.934 69.0567 108.837 69.1349 108.825 69.2421Z" fill="#FDA92F"/>
<path fill-rule="evenodd" clip-rule="evenodd" d="M104.785 68.7803C104.912 67.6649 105.921 66.8632 107.036 66.9905C108.151 67.1178 108.953 68.1263 108.825 69.2417C108.813 69.3475 108.89 69.4443 108.997 69.4565C109.104 69.4688 109.201 69.3919 109.213 69.286C109.365 67.9562 108.409 66.7542 107.08 66.6024C105.751 66.4506 104.548 67.4061 104.396 68.7359C104.384 68.8418 104.461 68.9386 104.569 68.9508C104.676 68.963 104.772 68.8861 104.785 68.7803Z" fill="#FDA92F"/>
<path fill-rule="evenodd" clip-rule="evenodd" d="M103.869 68.1711L104.603 68.2833C104.709 68.2994 104.782 68.3993 104.766 68.5057C104.75 68.6134 104.65 68.6859 104.543 68.6698L103.791 68.5543C103.809 68.4235 103.835 68.295 103.869 68.1711ZM103.779 69.3046L104.554 69.201C104.66 69.1874 104.759 69.2618 104.773 69.3691C104.787 69.4752 104.712 69.5736 104.605 69.5885L103.844 69.6899C103.814 69.564 103.793 69.4351 103.779 69.3046ZM105.446 66.2186L105.839 66.8514C105.895 66.9429 105.867 67.0635 105.775 67.1201C105.684 67.1767 105.563 67.1487 105.507 67.0571L105.111 66.4188C105.218 66.346 105.33 66.2788 105.446 66.2186ZM106.325 65.9217L106.635 66.6921C106.675 66.7922 106.627 66.9065 106.527 66.9467C106.427 66.9869 106.313 66.9378 106.273 66.8378L105.941 66.0159C106.066 65.976 106.194 65.9455 106.325 65.9217ZM106.062 71.9753L106.174 71.2789C106.191 71.1726 106.292 71.1002 106.398 71.1175C106.504 71.1348 106.577 71.2346 106.56 71.341L106.445 72.0525C106.314 72.035 106.186 72.0088 106.062 71.9753ZM108.821 71.3865C108.72 71.469 108.613 71.5446 108.502 71.6144L107.983 70.9787C107.915 70.8949 107.927 70.7725 108.01 70.7046C108.094 70.6355 108.217 70.6483 108.285 70.7321L108.821 71.3865ZM109.714 67.7478L108.903 68.1659C108.808 68.2155 108.69 68.1776 108.64 68.0817C108.591 67.9858 108.629 67.8676 108.724 67.8192L109.536 67.4C109.603 67.5107 109.662 67.6271 109.714 67.7478ZM109.906 69.5969C109.88 69.7254 109.846 69.8518 109.805 69.9747L109.043 69.8104C108.938 69.7867 108.871 69.6824 108.893 69.5779C108.916 69.4722 109.02 69.4054 109.126 69.4278L109.906 69.5969Z" fill="#FDA92F"/>
<path d="M97.9741 82.5331C99.23 83.6993 101.194 83.6264 102.36 82.3705C103.526 81.1145 103.453 79.1511 102.197 77.985C100.941 76.8189 98.9775 76.8917 97.8114 78.1476C96.6453 79.4036 96.7181 81.367 97.9741 82.5331Z" fill="#FFCF84"/>
<path fill-rule="evenodd" clip-rule="evenodd" d="M101.46 78.8383C102.282 79.6012 102.33 80.8887 101.566 81.7111C100.802 82.5337 99.515 82.5815 98.6933 81.8186C98.6142 81.7452 98.4896 81.7489 98.4162 81.8279C98.3429 81.9069 98.3484 82.0314 98.4275 82.1048C99.4073 83.0146 100.942 82.9574 101.852 81.9769C102.763 80.9966 102.706 79.4618 101.726 78.552C101.647 78.4786 101.522 78.4824 101.449 78.5613C101.376 78.6403 101.381 78.7649 101.46 78.8383Z" fill="#FDA92F"/>
<path fill-rule="evenodd" clip-rule="evenodd" d="M98.6929 81.8176C97.8701 81.0538 97.8225 79.7663 98.5862 78.9437C99.3498 78.1213 100.637 78.0735 101.46 78.8373C101.538 78.9098 101.662 78.9051 101.735 78.8262C101.808 78.7472 101.804 78.6236 101.726 78.5511C100.745 77.6404 99.2102 77.6976 98.2999 78.678C97.3896 79.6584 97.4462 81.1932 98.4271 82.1039C98.5052 82.1764 98.6288 82.1717 98.7021 82.0927C98.7754 82.0138 98.7709 81.8901 98.6929 81.8176Z" fill="#FDA92F"/>
<path fill-rule="evenodd" clip-rule="evenodd" d="M97.6591 82.1946L98.1846 81.67C98.2608 81.5936 98.3846 81.5939 98.4606 81.6702C98.5376 81.7473 98.5368 81.8706 98.4607 81.9469L97.9218 82.4841C97.8272 82.392 97.7391 82.2948 97.6591 82.1946ZM98.5187 82.9388L98.8946 82.2534C98.947 82.1594 99.0652 82.1243 99.1601 82.1765C99.254 82.2279 99.2887 82.3468 99.2374 82.4416L98.8678 83.1145C98.7487 83.0639 98.6319 83.0051 98.5187 82.9388ZM97.0222 79.7663L97.7643 79.8257C97.8717 79.8342 97.952 79.9285 97.9433 80.0358C97.9346 80.1431 97.8406 80.2235 97.7332 80.215L96.9847 80.155C96.9896 80.0255 97.0019 79.8955 97.0222 79.7663ZM97.3038 78.8831L98.1082 79.09C98.2126 79.1168 98.2759 79.2237 98.249 79.3281C98.2221 79.4323 98.1151 79.4948 98.0107 79.468L97.1523 79.2477C97.1943 79.1234 97.2456 79.0023 97.3038 78.8831ZM102.023 82.6837L101.529 82.1804C101.453 82.1035 101.454 81.9798 101.531 81.9044C101.609 81.829 101.732 81.8298 101.807 81.9066L102.312 82.421C102.221 82.516 102.124 82.6033 102.023 82.6837ZM103.185 80.1127C103.191 80.2433 103.189 80.3737 103.179 80.5046L102.359 80.5459C102.251 80.5511 102.16 80.4687 102.155 80.3613C102.149 80.253 102.232 80.1614 102.34 80.1562L103.185 80.1127ZM100.784 77.2364L100.64 78.1368C100.623 78.2434 100.523 78.3157 100.416 78.2987C100.31 78.2817 100.237 78.1813 100.255 78.0756L100.398 77.1732C100.527 77.1854 100.656 77.2066 100.784 77.2364ZM102.387 78.1777C102.475 78.2749 102.557 78.3772 102.631 78.4835L102.047 78.9994C101.966 79.0702 101.842 79.0623 101.771 78.982C101.7 78.901 101.707 78.7777 101.788 78.7061L102.387 78.1777Z" fill="#FDA92F"/>
<path d="M117.398 83.5301C119.082 83.21 120.187 81.5856 119.867 79.902C119.547 78.2183 117.923 77.1129 116.239 77.4329C114.555 77.753 113.45 79.3773 113.77 81.061C114.09 82.7447 115.714 83.8501 117.398 83.5301Z" fill="#FFCF84"/>
<path fill-rule="evenodd" clip-rule="evenodd" d="M116.489 78.5331C117.59 78.3236 118.655 79.0486 118.865 80.1511C119.075 81.2537 118.35 82.3189 117.248 82.5283C117.142 82.5485 117.071 82.6511 117.092 82.7569C117.112 82.8628 117.215 82.9322 117.321 82.9121C118.635 82.6624 119.499 81.3925 119.249 80.0781C118.999 78.7639 117.729 77.8996 116.416 78.1493C116.31 78.1695 116.239 78.272 116.259 78.3779C116.279 78.4838 116.383 78.5532 116.489 78.5331Z" fill="#FDA92F"/>
<path fill-rule="evenodd" clip-rule="evenodd" d="M117.248 82.5262C116.145 82.7358 115.08 82.0109 114.871 80.9082C114.661 79.8057 115.386 78.7405 116.489 78.5309C116.593 78.511 116.663 78.4086 116.643 78.3028C116.623 78.1969 116.52 78.1272 116.416 78.1471C115.101 78.3971 114.237 79.6669 114.487 80.9812C114.737 82.2955 116.006 83.1598 117.321 82.9099C117.426 82.89 117.495 82.7877 117.475 82.6818C117.455 82.5759 117.353 82.5063 117.248 82.5262Z" fill="#FDA92F"/>
<path fill-rule="evenodd" clip-rule="evenodd" d="M116.938 83.5817L116.827 82.8475C116.811 82.7409 116.885 82.6414 116.991 82.6254C117.099 82.6091 117.198 82.6828 117.214 82.7893L117.327 83.5418C117.197 83.5634 117.066 83.5768 116.938 83.5817ZM118.047 83.3307L117.718 82.6217C117.673 82.5238 117.715 82.4077 117.814 82.3623C117.911 82.3171 118.027 82.3597 118.073 82.4572L118.396 83.1538C118.284 83.2197 118.168 83.2789 118.047 83.3307ZM114.605 82.6549L115.093 82.0926C115.163 82.0111 115.287 82.0024 115.368 82.073C115.449 82.1436 115.459 82.2669 115.388 82.3484L114.896 82.9156C114.794 82.8349 114.697 82.7479 114.605 82.6549ZM114.061 81.9046L114.704 81.3795C114.788 81.3113 114.911 81.3237 114.98 81.4072C115.048 81.4907 115.034 81.6139 114.951 81.6821L114.265 82.2427C114.189 82.1352 114.122 82.0222 114.061 81.9046ZM119.919 80.3576L119.221 80.4571C119.114 80.4723 119.015 80.398 119 80.2913C118.985 80.1845 119.059 80.0857 119.166 80.0704L119.879 79.9688C119.901 80.0989 119.914 80.2287 119.919 80.3576ZM118.538 77.8978C118.646 77.9701 118.75 78.0492 118.85 78.1346L118.397 78.8192C118.337 78.9092 118.217 78.9339 118.127 78.8744C118.036 78.8151 118.012 78.6938 118.072 78.6038L118.538 77.8978ZM114.798 78.126L115.438 78.7755C115.514 78.8523 115.512 78.976 115.435 79.0518C115.359 79.1274 115.234 79.1266 115.16 79.0496L114.518 78.3988C114.604 78.3025 114.698 78.2113 114.798 78.126ZM116.506 77.393C116.637 77.3797 116.768 77.3746 116.897 77.3778L116.967 78.1538C116.975 78.2614 116.896 78.3564 116.789 78.3657C116.681 78.3753 116.587 78.2959 116.577 78.1886L116.506 77.393Z" fill="#FDA92F"/>
<path fill-rule="evenodd" clip-rule="evenodd" d="M109.154 83.3157L94.1218 109.493H87.9392C87.9392 109.493 86.0394 113.551 88.918 115.037H117.275C117.305 115.037 117.333 115.04 117.363 115.044C117.927 115.085 121.155 114.992 123.708 108.377C127.856 97.6308 132.061 91.4315 136.308 83.3157H109.154Z" fill="#E9E9EB"/>
<path d="M103.022 107.41C105.484 107.761 108.119 106.094 108.909 103.687C109.698 101.281 108.343 99.0457 105.881 98.6954C103.419 98.345 100.783 100.012 99.9934 102.419C99.204 104.825 100.56 107.06 103.022 107.41Z" fill="white"/>
<path d="M132.96 84.7062L109.618 84.4585L108.619 86.2813L131.961 86.529L132.96 84.7062Z" fill="#BABDC2"/>
<path d="M131.393 88.0686L107.941 87.8579L106.945 89.6824L130.397 89.8931L131.393 88.0686Z" fill="#BABDC2"/>
<path d="M129.583 91.7224L106.056 91.1104L105.03 92.9171L128.557 93.5291L129.583 91.7224Z" fill="#BABDC2"/>
<path d="M127.709 95.3393L104.305 94.3252L103.25 96.1138L126.654 97.1279L127.709 95.3393Z" fill="#BABDC2"/>
<path d="M125.186 99.094L112.693 98.4641L111.817 100.209L124.31 100.838L125.186 99.094Z" fill="#BABDC2"/>
<path d="M123.12 102.79L114.684 102.283L113.953 104.035L122.39 104.542L123.12 102.79Z" fill="#BABDC2"/>
<path d="M121.431 106.505L110.238 105.671L109.627 107.432L120.82 108.267L121.431 106.505Z" fill="#BABDC2"/>
<path fill-rule="evenodd" clip-rule="evenodd" d="M94.6845 108.512H114.94C114.963 108.512 114.986 108.515 115.009 108.518C115.227 108.547 115.41 108.666 115.495 108.943C115.536 109.076 115.54 109.341 115.487 109.7C115.301 110.985 114.473 114.227 117.791 115.031C117.595 115.053 117.447 115.049 117.363 115.044C117.333 115.04 117.305 115.037 117.276 115.037H115.542C115.43 114.937 115.326 114.832 115.23 114.723C114.061 113.396 114.187 111.474 114.376 110.187C114.408 109.965 114.441 109.726 114.465 109.537L94.1221 109.492L94.6845 108.512Z" fill="black"/>
<path d="M102.383 103.909C102.732 104.363 103.228 104.647 103.872 104.781C104.647 104.923 105.115 104.744 105.302 104.247C105.441 103.84 105.268 103.544 104.783 103.359C104.553 103.282 104.306 103.201 104.037 103.108C103.557 102.932 103.227 102.68 103.054 102.359C102.874 102.029 102.857 101.665 102.994 101.265C103.157 100.788 103.454 100.436 103.902 100.212C104.334 99.984 104.857 99.9299 105.465 100.04C106.198 100.199 106.772 100.515 107.188 100.981L106.456 101.569C106.108 101.214 105.668 100.973 105.14 100.862C104.866 100.809 104.613 100.825 104.386 100.921C104.15 101.014 103.982 101.195 103.885 101.455C103.829 101.616 103.849 101.767 103.937 101.924C104.025 102.08 104.212 102.207 104.484 102.317C104.634 102.371 104.847 102.445 105.119 102.531C105.651 102.708 105.995 102.971 106.158 103.323C106.315 103.665 106.332 104.029 106.198 104.421C105.816 105.462 104.938 105.857 103.58 105.61C102.709 105.44 102.041 105.04 101.581 104.418L102.383 103.909Z" fill="black"/>
<path fill-rule="evenodd" clip-rule="evenodd" d="M105.637 99.3323L102.665 106.063L103.353 106.273L106.351 99.4829L105.637 99.3323Z" fill="black"/>
<path fill-rule="evenodd" clip-rule="evenodd" d="M168.895 97.7638C168.56 97.3974 168.115 97.1937 167.752 97.432C166.479 98.2686 165.61 99.1615 164.361 100.031C160.5 102.722 155.083 103.471 152.689 107.885C150.261 112.356 150.138 117.835 147.978 122.482C145.069 128.744 140.904 134.3 137.819 140.47C133.999 148.106 128.049 164.853 128.049 164.853C126.127 164.825 116.651 166.061 110.89 166.95C110.671 166.984 110.516 167.181 110.532 167.401C110.549 167.623 110.734 167.793 110.955 167.793C124.538 167.793 164.364 167.793 173.629 167.793C174.101 167.793 174.538 167.541 174.775 167.132C175.012 166.724 175.015 166.219 174.779 165.809C173.593 163.735 171.539 162.519 169.252 161.953C167.493 161.517 165.796 161.731 164.024 161.881C163.957 161.886 163.873 161.898 163.822 161.845C163.809 161.832 163.791 161.809 163.783 161.794C163.313 160.818 163.564 155.276 163.58 154.029C163.645 148.835 163.877 143.626 164.323 138.451C164.466 136.789 164.763 132.012 164.763 132.012C164.763 132.012 168.758 131.462 169.904 131.202C172.728 130.564 175.034 128.736 176.648 126.358C179.043 122.831 179.198 118.041 180.281 114.029C181.187 110.67 182.882 108.052 184.331 104.971C185.083 103.373 184.818 101.01 183.079 100.151C181.379 99.3088 179.597 101.068 178.528 102.193C175.124 105.777 174.949 110.709 172.041 114.265C169.979 116.785 165.818 117.247 165.818 117.247C165.818 117.247 165.69 114.174 165.818 113.32C166.459 109.05 168.867 106.336 169.847 102.407C170.13 101.269 169.97 98.9373 168.895 97.7638Z" fill="#DD6140"/>
<path fill-rule="evenodd" clip-rule="evenodd" d="M159.306 133.783C161.159 132.836 164.764 132.011 164.764 132.011C164.764 132.011 164.669 133.541 164.56 135.169C163.17 134.665 161.428 134.517 159.503 134.549C159.316 134.551 159.151 134.425 159.105 134.244C159.058 134.062 159.141 133.871 159.306 133.783Z" fill="black"/>
<path fill-rule="evenodd" clip-rule="evenodd" d="M161.142 103.475L161.965 104.081C162.193 104.249 162.515 104.2 162.682 103.972C162.85 103.745 162.802 103.424 162.573 103.256L161.751 102.65C161.523 102.482 161.203 102.531 161.035 102.757C160.867 102.985 160.914 103.307 161.142 103.475Z" fill="black"/>
<path fill-rule="evenodd" clip-rule="evenodd" d="M163.713 161.595C163.678 161.541 163.654 161.481 163.64 161.415C162.574 155.996 161.147 152.287 159.531 149.826C157.982 147.466 156.272 146.283 154.561 145.863C151.108 145.014 147.712 147.215 145.822 148.753C144.961 149.453 144.31 150.137 144.31 150.137C144.212 150.259 144.058 150.333 143.889 150.325C143.607 150.311 143.388 150.07 143.402 149.789C143.402 149.781 143.39 149.626 143.552 149.448C143.661 149.329 144.25 148.711 145.175 147.958C147.25 146.267 151.011 143.935 154.805 144.868C156.718 145.338 158.656 146.624 160.388 149.263C161.54 151.017 162.606 153.381 163.518 156.518C163.481 158.408 163.477 160.729 163.713 161.595ZM154.814 106.056C154.814 106.056 153.154 110.228 152.13 112.803C151.517 114.343 152.157 116.098 153.616 116.883C154.281 117.243 154.955 117.51 155.637 117.677C156.562 117.908 157.542 117.698 158.292 117.111C159.044 116.523 159.483 115.623 159.483 114.668C159.483 111.438 159.483 106.245 159.483 106.245C159.483 105.963 159.253 105.732 158.97 105.732C158.688 105.732 158.458 105.963 158.458 106.245C158.458 106.245 158.458 111.438 158.458 114.668C158.458 115.307 158.164 115.91 157.661 116.303C157.159 116.697 156.503 116.837 155.883 116.683C155.282 116.535 154.69 116.299 154.103 115.981C153.1 115.442 152.662 114.238 153.082 113.182C154.107 110.607 155.767 106.434 155.767 106.434C155.871 106.172 155.743 105.873 155.48 105.769C155.216 105.664 154.919 105.793 154.814 106.056ZM165.784 116.223C165.8 116.811 165.818 117.247 165.818 117.247C165.818 117.247 165.9 117.238 166.047 117.216C165.414 117.346 164.829 117.401 164.279 117.396C163.996 117.393 163.769 117.161 163.772 116.879C163.774 116.596 164.005 116.368 164.288 116.371C164.754 116.375 165.25 116.328 165.784 116.223ZM184.158 101.106C184.349 101.395 184.49 101.717 184.583 102.057C182.637 103.466 181.182 105.612 181.113 105.739C180.978 105.987 180.667 106.08 180.418 105.945C180.17 105.81 180.078 105.499 180.212 105.251C180.289 105.107 181.953 102.651 184.158 101.106ZM182.261 99.9328C182.534 99.9481 182.808 100.016 183.079 100.151C183.192 100.206 183.298 100.268 183.4 100.336C182.572 100.967 180.89 102.401 179.164 104.779C178.999 105.007 178.677 105.058 178.449 104.892C178.22 104.727 178.169 104.405 178.335 104.177C179.829 102.118 181.296 100.732 182.261 99.9328ZM166.051 98.717C166.582 98.2814 167.117 97.8497 167.752 97.432C168.115 97.1937 168.561 97.3974 168.895 97.7638C169.149 98.0405 169.351 98.3813 169.51 98.7567C168.054 100.267 166.447 99.0578 166.051 98.717Z" fill="black"/>
<defs>
<linearGradient id="paint0_linear_254_1612" x1="71.43" y1="129.673" x2="197.87" y2="55.1171" gradientUnits="userSpaceOnUse">
<stop stop-color="#B8D8D5"/>
<stop offset="0.42" stop-color="#CEE0DA"/>
<stop offset="1" stop-color="#FFF0E6"/>
</linearGradient>
<linearGradient id="paint1_linear_254_1612" x1="29.875" y1="40.1143" x2="-32.5205" y2="118.299" gradientUnits="userSpaceOnUse">
<stop stop-color="#B8D8D5"/>
<stop offset="0.47" stop-color="#CCDFDA"/>
<stop offset="1" stop-color="#FFF0E6"/>
</linearGradient>
<linearGradient id="paint2_linear_254_1612" x1="213.449" y1="56.6271" x2="251.983" y2="94.1514" gradientUnits="userSpaceOnUse">
<stop stop-color="#FFBF2F"/>
<stop offset="1" stop-color="#FD9500"/>
</linearGradient>
<linearGradient id="paint3_linear_254_1612" x1="239.809" y1="126.778" x2="176.96" y2="84.4155" gradientUnits="userSpaceOnUse">
<stop stop-color="#FFBF2F"/>
<stop offset="0.48" stop-color="#FEB422"/>
<stop offset="1" stop-color="#FD9500"/>
</linearGradient>
</defs>
</svg>
