<svg width="235" height="184" viewBox="0 0 235 184" fill="none" xmlns="http://www.w3.org/2000/svg">
<path fill-rule="evenodd" clip-rule="evenodd" d="M64.8467 82.1798C64.8467 82.1798 42.0986 79.6247 33.2898 96.0655C30.3256 101.597 8.35477 152.897 6.02571 173.114C6.02571 173.114 0.734846 174.787 0 177.503H31.1677C31.498 177.503 31.7959 177.305 31.9233 177C34.1975 171.559 54.1546 123.809 54.1546 123.809C54.1546 123.809 56.7206 167.093 57.2446 175.937C57.2971 176.817 58.0261 177.503 58.9075 177.503C64.816 177.503 85.3958 177.503 85.3958 177.503C85.3958 177.503 84.6655 174.65 79.3207 173.114C79.3207 173.114 82.2109 105.783 74.1873 88.9246L64.8467 82.1798Z" fill="url(#paint0_linear_254_1363)"/>
<path fill-rule="evenodd" clip-rule="evenodd" d="M49.7363 134.38L52.5496 105.996C52.5689 105.798 52.7367 105.65 52.9353 105.655C53.1326 105.66 53.2927 105.818 53.3017 106.016L54.1036 123.931L49.7363 134.38Z" fill="#13524E"/>
<path fill-rule="evenodd" clip-rule="evenodd" d="M79.8264 147.172C79.8264 147.603 79.8251 148.029 79.8238 148.453H55.6147L55.5391 147.172H79.8264ZM12.8606 147.172H44.3898L43.8544 148.453H12.4307L12.4375 148.433C12.5734 148.026 12.7101 147.619 12.8474 147.212L12.8606 147.172Z" fill="#82B5B2"/>
<path d="M47.404 42.7544C52.0277 42.7544 55.7758 39.0062 55.7758 34.3826C55.7758 29.7589 52.0277 26.0107 47.404 26.0107C42.7804 26.0107 39.0322 29.7589 39.0322 34.3826C39.0322 39.0062 42.7804 42.7544 47.404 42.7544Z" fill="#A8CFCC"/>
<path fill-rule="evenodd" clip-rule="evenodd" d="M46.7856 26.0322C47.2084 27.7385 47.8195 32.0415 44.6388 35.8436C44.3016 35.2976 43.6914 34.9325 42.9953 34.9325C41.9345 34.9325 41.0733 35.7803 41.0733 36.8245C41.0733 37.8687 41.9345 38.7165 42.9953 38.7165C43.1788 38.7165 43.3564 38.691 43.5246 38.6436C43.5485 39.303 43.378 40.2249 42.5694 41.2152C40.4299 39.6984 39.0322 37.2019 39.0322 34.3815C39.0322 29.9688 42.4534 26.349 46.7856 26.0322Z" fill="black"/>
<path fill-rule="evenodd" clip-rule="evenodd" d="M40.5237 38.6199C40.2857 38.7595 39.6863 38.7385 39.4137 38.7932C38.5194 38.9724 37.6303 39.1804 36.7451 39.3992C34.0072 40.0757 31.3083 40.8899 28.7542 42.0992C26.8959 42.9791 24.9503 44.0929 24.071 46.0428C22.793 48.8771 25.0644 51.421 28.0174 51.1548C30.8653 50.898 33.1005 48.8347 34.998 46.8943C37.2182 44.6241 39.7533 42.177 41.4555 39.4676" fill="black"/>
<path fill-rule="evenodd" clip-rule="evenodd" d="M30.753 57.4366C29.3361 58.9462 16.8709 72.5741 7.50491 83.0878C4.3626 86.6439 4.07794 91.8939 6.81734 95.7692C6.81696 95.7705 6.81708 95.7705 6.81708 95.7705C9.22314 99.1744 13.578 100.595 17.5286 99.2654C21.8092 97.8229 27.6553 94.492 34.4586 87.0295C37.9146 83.2386 40.6619 79.7771 42.929 77.658C42.929 77.658 52.8748 80.8576 57.9902 75.3734C57.9902 75.3734 70.4785 91.3302 82.5645 97.6909C87.3444 100.176 93.2337 98.5083 95.9996 93.8847C97.2871 91.7504 97.8277 89.1805 96.3788 86.3902C90.0347 74.1688 80.0728 64.9215 64.8468 50.2818C61.8912 47.4393 56.7232 43.3793 46.7139 45.6962C42.9427 46.5691 38.3458 49.3467 30.753 57.4366Z" fill="#A8CFCC"/>
<path fill-rule="evenodd" clip-rule="evenodd" d="M52.6637 67.4813C52.6637 67.4813 52.9917 67.3967 53.3786 67.4317C53.7066 67.4613 54.0947 67.5772 54.2946 67.99C54.5624 68.5451 54.1575 69.0034 53.54 69.4716C52.2884 70.4214 50.0836 71.2521 48.1312 72.047C47.8685 72.1536 47.743 72.4529 47.8493 72.7149C47.9557 72.9767 48.2554 73.1029 48.5168 72.9962C50.5576 72.1659 52.8521 71.2804 54.1601 70.2881C55.2516 69.4601 55.691 68.5267 55.217 67.5446C54.8301 66.7432 54.1075 66.4685 53.4708 66.4109C52.8931 66.3588 52.4024 66.4905 52.4024 66.4905C52.1282 66.5627 51.9655 66.8434 52.0373 67.1168C52.1103 67.3903 52.3909 67.5537 52.6637 67.4813Z" fill="#82B5B2"/>
<path fill-rule="evenodd" clip-rule="evenodd" d="M56.6327 65.3893C56.6327 65.3893 57.2425 64.7981 58.0727 64.3262C58.5915 64.0317 59.1988 63.7758 59.7945 63.7788C60.0379 63.7792 60.2672 63.8849 60.4248 64.0684C60.5824 64.2517 60.6515 64.4946 60.6144 64.7334C60.5145 65.3087 60.2403 66.0898 59.5331 66.8352C58.5608 67.8607 56.0998 70.957 48.2619 71.9495C47.9813 71.985 47.7828 72.2417 47.8186 72.5223C47.8545 72.8029 48.1107 73.0018 48.3913 72.9663C56.6635 71.9185 59.25 68.6232 60.2775 67.5406C61.1614 66.6092 61.4984 65.6311 61.6265 64.8993C61.7098 64.3548 61.5547 63.8116 61.2037 63.4014C60.8514 62.9912 60.339 62.7547 59.7983 62.7539C59.0297 62.7501 58.2367 63.0545 57.5666 63.435C56.6148 63.9756 55.9178 64.6545 55.9178 64.6545C55.7154 64.8516 55.7103 65.1764 55.9076 65.3792C56.1049 65.5819 56.429 65.5865 56.6327 65.3893Z" fill="#82B5B2"/>
<path fill-rule="evenodd" clip-rule="evenodd" d="M57.9656 68.7466C57.9656 68.7466 56.6524 72.0982 55.3559 73.3935C55.1561 73.5935 55.1561 73.9183 55.3559 74.1183C55.5558 74.3184 55.8812 74.3184 56.081 74.1184C57.4775 72.7224 58.9187 69.1242 58.9187 69.1242C59.0225 68.8614 58.8944 68.5632 58.6305 68.459C58.3678 68.3548 58.0693 68.4837 57.9656 68.7466Z" fill="#82B5B2"/>
<path fill-rule="evenodd" clip-rule="evenodd" d="M54.0176 70.9568V72.1629C54.0176 72.4458 54.2469 72.6754 54.53 72.6754C54.8119 72.6754 55.0425 72.4458 55.0425 72.1629V70.9568C55.0425 70.674 54.8119 70.4443 54.53 70.4443C54.2469 70.4443 54.0176 70.674 54.0176 70.9568Z" fill="#82B5B2"/>
<path fill-rule="evenodd" clip-rule="evenodd" d="M57.6858 51.5933C57.6858 51.5933 56.8659 51.9331 56.4802 52.8677C56.2432 53.4413 56.1561 54.2566 56.6045 55.3766C57.1221 56.667 58.4531 60.4868 56.6442 63.4271C56.4956 63.6679 56.5712 63.9837 56.8108 64.1321C57.0529 64.2803 57.368 64.2051 57.5167 63.9643C59.5331 60.6886 58.1316 56.4331 57.5551 54.9952C57.2451 54.219 57.263 53.6564 57.427 53.2589C57.6435 52.7369 58.088 52.5357 58.088 52.5357C58.3481 52.4245 58.4698 52.1231 58.3583 51.863C58.2469 51.6031 57.9458 51.4821 57.6858 51.5933Z" fill="#82B5B2"/>
<path fill-rule="evenodd" clip-rule="evenodd" d="M38.1201 82.8877C36.9942 84.1829 35.778 85.5818 34.4586 87.0295C27.6553 94.492 21.8092 97.8229 17.5286 99.2654C13.578 100.595 9.22314 99.1744 6.81708 95.7705C6.81708 95.7705 6.81696 95.7705 6.81734 95.7692C4.07794 91.8939 4.3626 86.6439 7.50491 83.0878C16.8709 72.5741 29.3361 58.9462 30.753 57.4366C38.3458 49.3467 42.9427 46.5691 46.7139 45.6962C56.7232 43.3793 61.8912 47.4393 64.8468 50.2818C80.0728 64.9215 90.0347 74.1688 96.3788 86.3902C97.8277 89.1805 97.2871 91.7504 95.9996 93.8847C93.7653 97.6192 89.4928 99.4255 85.4137 98.6723L81.9483 97.3591C77.7745 95.0531 73.5775 91.6569 69.8866 88.2184C67.7856 86.0354 66.3457 84.3725 66.3457 84.3725L72.4681 69.2534L62.6074 62.2614C62.1923 59.4009 62.0283 57.5727 61.1431 55.6772C60.9022 55.1586 60.6063 54.635 60.236 54.0839C58.5155 51.518 57.4317 53.0453 57.4317 53.0453C56.6323 52.0585 55.8905 51.6039 55.396 51.3952C55.1346 51.2913 54.8413 51.3096 54.5953 51.4452C54.3506 51.5807 54.1789 51.8193 54.1277 52.0951C54.0085 52.7733 54.4236 53.538 54.6478 53.889C54.717 53.9954 54.7964 54.0949 54.8848 54.1861C59.7441 59.2096 57.0576 64.8484 57.0576 64.8484C54.6568 67.8036 50.3702 67.7335 50.3702 67.7335C47.2353 67.9858 45.2637 67.0193 44.1455 66.138C42.4829 64.8314 40.2839 64.4261 38.2646 65.0542C33.3361 66.6248 28.0182 71.3036 28.0182 71.3036L38.1201 82.8877Z" fill="url(#paint1_linear_254_1363)"/>
<path fill-rule="evenodd" clip-rule="evenodd" d="M42.9443 77.662L47.968 72.0437C47.968 72.0437 54.0212 74.8073 55.939 72.6452L58.3719 75.8499C58.1221 75.5413 57.9914 75.3729 57.9914 75.3729C52.9886 80.737 43.3635 77.7936 42.9443 77.662Z" fill="#82B5B2"/>
<path fill-rule="evenodd" clip-rule="evenodd" d="M29.1441 70.3734C28.4347 70.9369 28.0171 71.3042 28.0171 71.3042L28.8437 72.2521L13.8218 84.7049C13.5495 84.9303 13.1455 84.8919 12.9197 84.6203C12.6941 84.3474 12.7319 83.9439 13.0042 83.7183L28.9863 70.4696C29.0352 70.4292 29.0885 70.397 29.1441 70.3734ZM71.7291 68.7307C71.8636 68.7391 71.9981 68.7902 72.1083 68.8857L86.7373 81.5626C87.0038 81.7942 87.0333 82.199 86.8014 82.4661C86.5695 82.7334 86.1647 82.7623 85.8982 82.5308L71.9764 70.4667L72.467 69.254L71.7291 68.7307ZM30.6013 69.2635C30.6767 68.0299 30.8906 65.6165 31.4709 63.505C31.5334 63.3103 31.7167 63.18 31.9212 63.185C32.1257 63.19 32.3025 63.329 32.3554 63.5265C32.6703 64.695 33.102 66.3035 33.3928 67.3875C32.362 68.0175 31.4094 68.6729 30.6013 69.2635ZM65.9103 64.6052L66.597 61.3362C66.6226 61.2139 66.7212 61.12 66.8442 61.0997C66.9672 61.0795 67.0902 61.137 67.153 61.2446C67.5411 62.1021 68.1253 63.7535 68.4085 66.3767L65.9103 64.6052Z" fill="#13524E"/>
<path d="M49.9271 67.9741C54.421 67.9741 58.0641 64.381 58.0641 59.9487C58.0641 55.5164 54.421 51.9233 49.9271 51.9233C45.4331 51.9233 41.79 55.5164 41.79 59.9487C41.79 64.381 45.4331 67.9741 49.9271 67.9741Z" fill="#FFCD80"/>
<path d="M49.9094 66.6231C53.6752 66.6231 56.7279 63.6122 56.7279 59.8981C56.7279 56.184 53.6752 53.1731 49.9094 53.1731C46.1436 53.1731 43.0908 56.184 43.0908 59.8981C43.0908 63.6122 46.1436 66.6231 49.9094 66.6231Z" fill="#FFB000"/>
<path d="M47.6136 62.5415C48.3686 63.0908 49.2299 63.3348 50.2117 63.2978C51.3806 63.2264 51.9324 62.7862 51.9049 61.9753C51.862 61.3151 51.4462 60.9362 50.6575 60.8385C50.2895 60.807 49.8964 60.7768 49.4647 60.7361C48.6894 60.6502 48.0797 60.3935 47.6489 59.9778C47.2047 59.5503 46.9678 59.0124 46.9257 58.3647C46.8755 57.5924 47.0865 56.9569 47.584 56.4569C48.0563 55.9582 48.7578 55.6854 49.6751 55.6267C50.7961 55.5952 51.7847 55.8578 52.6403 56.402L51.9578 57.5487C51.2628 57.1463 50.5054 56.947 49.6997 56.9751C49.2846 56.9961 48.9389 57.1135 48.676 57.3392C48.4005 57.5655 48.2707 57.897 48.2856 58.3211C48.3026 58.5827 48.4178 58.8018 48.6328 59.0035C48.8478 59.2051 49.1837 59.3256 49.6296 59.3906C49.871 59.4159 50.2138 59.4486 50.6447 59.4769C51.4946 59.5466 52.1303 59.8144 52.5644 60.28C52.985 60.7336 53.2219 61.2716 53.2632 61.9068C53.3356 63.6028 52.335 64.5155 50.2866 64.6437C48.966 64.7103 47.7948 64.3569 46.7863 63.5954L47.6136 62.5415Z" fill="#FFCD80"/>
<path fill-rule="evenodd" clip-rule="evenodd" d="M49.4823 54.5039L49.2479 65.6558L50.8017 65.6558L50.8015 54.5039L49.4823 54.5039Z" fill="#FFCD80"/>
<path fill-rule="evenodd" clip-rule="evenodd" d="M18.0844 158.134C17.3109 157.995 16.7236 157.317 16.7236 156.504V153.188C16.7236 152.273 17.4664 151.53 18.3813 151.53H37.0016C37.9166 151.53 38.6594 152.273 38.6594 153.188V156.504C38.6594 157.317 38.0721 157.995 37.2986 158.134C38.0721 158.275 38.6594 158.953 38.6594 159.767V163.082C38.6594 163.896 38.0721 164.572 37.2986 164.713C38.0721 164.853 38.6594 165.53 38.6594 166.344V169.659C38.6594 170.473 38.0721 171.151 37.2986 171.29C38.0721 171.431 38.6594 172.108 38.6594 172.921V176.237C38.6594 177.151 37.9166 177.894 37.0016 177.894H18.3813C17.4664 177.894 16.7236 177.151 16.7236 176.237V172.921C16.7236 172.108 17.3109 171.431 18.0844 171.29C17.3109 171.151 16.7236 170.473 16.7236 169.659V166.344C16.7236 165.53 17.3109 164.853 18.0844 164.713C17.3109 164.572 16.7236 163.896 16.7236 163.082V159.767C16.7236 158.953 17.3109 158.275 18.0844 158.134Z" fill="#FFCD80"/>
<path fill-rule="evenodd" clip-rule="evenodd" d="M34.2635 151.53V156.835H38.5637C38.5845 156.835 38.605 156.837 38.6251 156.838C38.4961 157.468 38.0096 157.968 37.3874 158.116H37.3543V158.124C37.3358 158.128 37.3171 158.132 37.2981 158.134C37.3171 158.138 37.3358 158.142 37.3543 158.146V163.411H38.5637C38.5845 163.411 38.6051 163.413 38.6253 163.414C38.497 164.043 38.0127 164.543 37.3925 164.692H36.0225V169.989H38.5637C38.5846 169.989 38.6052 169.989 38.6256 169.991C38.498 170.618 38.0158 171.117 37.3976 171.27H33.9998V177.894H32.7186V171.27H31.5063V177.894H30.2252V171.27H21.7168V177.894H20.4357V171.27H17.9844C17.3654 171.117 16.8826 170.616 16.7559 169.989H24.8057V164.692H17.9896C17.3684 164.543 16.8835 164.042 16.7561 163.411H18.6016V158.116H17.9947C17.3716 157.968 16.8846 157.466 16.7564 156.835H22.1368V151.53H23.4179V156.835H30.3807V151.53H31.6619V156.835H32.9824V151.53H34.2635ZM26.0868 164.692V169.989H27.0552V164.692H26.0868ZM28.3363 164.692V169.989H34.7414V164.692H28.3363ZM19.8827 158.116V163.411H29.434V158.116H19.8827ZM30.7151 158.116V163.411H36.0732V158.116H30.7151Z" fill="#FDA425"/>
<path fill-rule="evenodd" clip-rule="evenodd" d="M190.299 69.8498C189.423 69.4171 188.819 68.514 188.819 67.471V62.1687C188.819 60.7054 190.007 59.5176 191.47 59.5176H231.73C233.193 59.5176 234.381 60.7054 234.381 62.1687V67.471C234.381 68.514 233.777 69.4171 232.9 69.8498C233.777 70.2825 234.381 71.1857 234.381 72.2287V77.531C234.381 78.448 233.914 79.2569 233.206 79.7329C233.914 80.2091 234.381 81.0179 234.381 81.9349V87.2375C234.381 88.1547 233.914 88.9631 233.206 89.4397C233.914 89.915 234.381 90.7247 234.381 91.6407V96.9432C234.381 97.8605 233.914 98.6688 233.206 99.1454C233.914 99.622 234.381 100.43 234.381 101.348V106.65C234.381 107.566 233.914 108.376 233.206 108.852C233.914 109.328 234.381 110.137 234.381 111.053V116.356C234.381 117.273 233.914 118.082 233.206 118.558C233.914 119.035 234.381 119.843 234.381 120.76V126.063C234.381 126.979 233.914 127.789 233.206 128.264C233.914 128.74 234.381 129.549 234.381 130.466V135.769C234.381 136.686 233.914 137.494 233.206 137.971C233.914 138.447 234.381 139.256 234.381 140.173V145.476C234.381 146.392 233.914 147.201 233.206 147.677C233.914 148.153 234.381 148.962 234.381 149.879V155.181C234.381 156.099 233.914 156.907 233.206 157.384C233.914 157.859 234.381 158.669 234.381 159.586V164.887C234.381 165.804 233.914 166.614 233.206 167.089C233.914 167.566 234.381 168.374 234.381 169.292V174.594C234.381 176.057 233.193 177.245 231.73 177.245H191.47C190.007 177.245 188.819 176.057 188.819 174.594V169.292C188.819 168.374 189.286 167.566 189.994 167.089C189.286 166.614 188.819 165.804 188.819 164.887V159.586C188.819 158.669 189.286 157.859 189.994 157.384C189.286 156.907 188.819 156.099 188.819 155.181V149.879C188.819 148.962 189.286 148.153 189.994 147.677C189.286 147.201 188.819 146.392 188.819 145.476V140.173C188.819 139.256 189.286 138.447 189.994 137.971C189.286 137.494 188.819 136.686 188.819 135.769V130.466C188.819 129.549 189.286 128.74 189.994 128.264C189.286 127.789 188.819 126.979 188.819 126.063V120.76C188.819 119.843 189.286 119.035 189.994 118.558C189.286 118.082 188.819 117.273 188.819 116.356V111.053C188.819 110.137 189.286 109.328 189.994 108.852C189.286 108.376 188.819 107.566 188.819 106.65V101.348C188.819 100.43 189.286 99.622 189.994 99.1454C189.286 98.6688 188.819 97.8605 188.819 96.9432V91.6407C188.819 90.7247 189.286 89.915 189.994 89.4397C189.286 88.9631 188.819 88.1547 188.819 87.2375V81.9349C188.819 81.0179 189.286 80.2091 189.994 79.7329C189.286 79.2569 188.819 78.448 188.819 77.531V72.2287C188.819 71.1857 189.423 70.2825 190.299 69.8498Z" fill="#FFCD80"/>
<path fill-rule="evenodd" clip-rule="evenodd" d="M222.002 59.5176V68.5046H226.909C226.974 68.2206 227.229 68.0084 227.533 68.0084C227.836 68.0084 228.091 68.2206 228.157 68.5046H234.17C233.94 69.0483 233.533 69.4993 233.022 69.7857H228.173V78.486H234.202C234.005 78.9969 233.654 79.4316 233.205 79.7329C233.222 79.7441 233.237 79.7555 233.254 79.7671H232.131V88.4058C232.131 88.4263 232.129 88.4468 232.128 88.4673H234.078C233.872 88.8593 233.571 89.1937 233.205 89.4397C233.341 89.5306 233.468 89.6344 233.585 89.7484H226.824V97.9655H234.175C233.974 98.4472 233.633 98.8572 233.205 99.1454C233.253 99.1774 233.3 99.212 233.345 99.2466H230.673V107.662H234.179C233.978 108.149 233.636 108.562 233.205 108.852C233.249 108.881 233.291 108.911 233.334 108.943H226.125V117.372H234.179C233.977 117.856 233.636 118.269 233.205 118.558C233.25 118.589 233.294 118.62 233.336 118.653H230.407V127.16H234.142C233.938 127.609 233.612 127.991 233.205 128.264C233.286 128.319 233.364 128.378 233.439 128.441H224.867V136.751H234.192C233.992 137.25 233.646 137.675 233.205 137.971C233.235 137.99 233.263 138.011 233.291 138.032H228.592V146.335H234.237C234.059 146.854 233.726 147.3 233.291 147.616H224.461V156.179H234.185C233.986 156.671 233.641 157.09 233.205 157.384C233.241 157.408 233.277 157.434 233.313 157.461H229.386V165.761H234.233C234.051 166.281 233.713 166.727 233.273 167.042H220.315V177.245H219.034V167.042H216.446V177.245H215.165V167.042H198.337V177.245H197.056V167.042H189.926C189.486 166.727 189.148 166.281 188.966 165.761H191.243V157.461H189.886C189.921 157.434 189.956 157.408 189.994 157.384C189.558 157.09 189.213 156.671 189.012 156.179H197.242V147.616H189.908C189.473 147.3 189.139 146.854 188.961 146.335H192.164V138.032H189.906C189.935 138.011 189.964 137.99 189.994 137.971C189.553 137.675 189.206 137.25 189.007 136.751H195.965V128.441H189.759C189.835 128.378 189.912 128.319 189.994 128.264C189.587 127.991 189.261 127.609 189.056 127.16H191.841V118.653H189.862C189.905 118.62 189.949 118.589 189.994 118.558C189.563 118.269 189.221 117.856 189.02 117.372H196.426V108.943H189.865C189.908 108.911 189.95 108.881 189.994 108.852C189.562 108.562 189.22 108.149 189.019 107.662H190.948V99.2466H189.853C189.899 99.212 189.946 99.1774 189.994 99.1454C189.564 98.8572 189.225 98.4472 189.022 97.9655H193.208V89.7484H189.614C189.731 89.6344 189.858 89.5306 189.994 89.4397C189.628 89.1937 189.327 88.8593 189.121 88.4673H200.745V79.7671H194.184C194.101 79.8065 194.009 79.8284 193.911 79.8284C193.813 79.8284 193.72 79.8065 193.637 79.7671H189.944C189.96 79.7555 189.977 79.7441 189.994 79.7329C189.545 79.4316 189.194 78.9969 188.996 78.486H193.271V69.7857H190.177C189.666 69.4993 189.258 69.0482 189.028 68.5046H193.286C193.353 68.2206 193.606 68.0084 193.911 68.0084C194.215 68.0084 194.47 68.2206 194.535 68.5046H202.586V59.5176H203.867V68.5046H205.257V59.5176H206.538V68.5046H210.22C210.285 68.2206 210.54 68.0084 210.845 68.0084C211.149 68.0084 211.403 68.2206 211.469 68.5046H213.411C213.478 68.2206 213.731 68.0084 214.036 68.0084C214.34 68.0084 214.595 68.2206 214.66 68.5046H220.721V59.5176H222.002ZM192.524 157.461V165.761H203.982V157.461H192.524ZM205.263 157.461V165.761H207.221V157.461H205.263ZM208.502 157.461V165.761H228.105V157.461H208.502ZM198.523 147.616V156.179H210.423V147.616H198.523ZM220.735 147.616H211.705V156.179H220.731V147.684L220.735 147.616ZM222.012 156.179H223.179V147.616H222.009C222.011 147.638 222.012 147.661 222.012 147.684V156.179ZM219.267 138.032V146.335H227.311V138.032H219.267ZM205.299 146.335H217.986V138.032H205.287C205.295 138.071 205.299 138.111 205.299 138.15V146.335ZM204.028 138.032H193.445V146.335H204.018V138.15C204.018 138.112 204.02 138.072 204.028 138.034V138.032ZM214.492 128.441V136.751H223.586V128.441H214.492ZM211.598 128.441V136.751H213.211V128.441H211.598ZM197.246 128.441V136.751H210.317V128.441H197.246ZM202.856 118.653V127.16H218.537V118.653H202.856ZM193.122 118.653V127.16H201.575V118.653H193.122ZM219.818 118.653V127.16H229.126V118.653H219.818ZM208.802 108.943V117.372H210.072V108.943H208.802ZM202.327 117.372H207.52V108.943H197.707V117.372H202.104C202.14 117.365 202.177 117.362 202.215 117.362C202.254 117.362 202.291 117.365 202.327 117.372ZM211.354 108.943V117.372H224.844V108.943H211.354ZM225.675 107.662H229.392V99.2466H218.904V107.662H225.293C225.354 107.643 225.418 107.633 225.484 107.633C225.551 107.633 225.615 107.643 225.675 107.662ZM215.818 99.2466V107.662H217.623V99.2466H215.818ZM192.229 99.2466V107.662H204.781V99.2466H192.229ZM206.063 99.2466V107.662H214.537V99.2466H206.063ZM194.489 89.7484V97.9655H196.053V89.7484H194.489ZM212.08 89.7484V97.9655H225.543V89.7484H212.08ZM197.334 89.7484V97.9655H210.799V89.7484H197.334ZM204.293 79.7671H202.026V88.4673H204.297C204.295 88.4468 204.293 88.4263 204.293 88.4058V79.7671ZM219.782 79.7671H214.309C214.227 79.8065 214.134 79.8284 214.036 79.8284C213.938 79.8284 213.845 79.8065 213.762 79.7671H211.118C211.035 79.8065 210.942 79.8284 210.845 79.8284C210.746 79.8284 210.654 79.8065 210.571 79.7671H205.574V88.4058C205.574 88.4263 205.574 88.4468 205.572 88.4673H219.785C219.782 88.4468 219.782 88.4263 219.782 88.4058V79.7671ZM230.85 79.7671H227.807C227.724 79.8065 227.631 79.8284 227.533 79.8284C227.435 79.8284 227.342 79.8065 227.26 79.7671H221.063V88.4058C221.063 88.4263 221.062 88.4468 221.059 88.4673H230.852C230.851 88.4468 230.85 88.4263 230.85 88.4058V79.7671ZM194.552 69.7857V78.486H210.204V69.7857H194.552ZM211.485 69.7857V78.486H213.396V69.7857H211.485ZM214.677 69.7857V78.486H226.892V69.7857H214.677Z" fill="#FDA425"/>
<path fill-rule="evenodd" clip-rule="evenodd" d="M122.18 128.622C121.471 128.147 121.005 127.337 121.005 126.421V121.119C121.005 119.656 122.192 118.467 123.656 118.467H163.914C165.379 118.467 166.566 119.656 166.566 121.119V126.421C166.566 127.337 166.1 128.147 165.392 128.622C166.1 129.099 166.566 129.907 166.566 130.824V136.127C166.566 137.044 166.1 137.853 165.392 138.329C166.1 138.804 166.566 139.614 166.566 140.531V145.833C166.566 146.75 166.1 147.56 165.392 148.035C166.1 148.512 166.566 149.32 166.566 150.237V155.54C166.566 156.457 166.1 157.265 165.392 157.742C166.1 158.217 166.566 159.027 166.566 159.943V165.245C166.566 166.163 166.1 166.971 165.392 167.448C166.1 167.924 166.566 168.733 166.566 169.65V174.952C166.566 176.415 165.379 177.603 163.914 177.603H123.656C122.192 177.603 121.005 176.415 121.005 174.952V169.65C121.005 168.733 121.471 167.924 122.18 167.448C121.471 166.971 121.005 166.163 121.005 165.245V159.943C121.005 159.027 121.471 158.217 122.18 157.742C121.471 157.265 121.005 156.457 121.005 155.54V150.237C121.005 149.32 121.471 148.512 122.18 148.035C121.471 147.56 121.005 146.75 121.005 145.833V140.531C121.005 139.614 121.471 138.804 122.18 138.329C121.471 137.853 121.005 137.044 121.005 136.127V130.824C121.005 129.907 121.471 129.099 122.18 128.622Z" fill="#FFCD80"/>
<path fill-rule="evenodd" clip-rule="evenodd" d="M157.105 127.533H166.321C166.116 127.977 165.792 128.353 165.391 128.622C165.478 128.681 165.562 128.745 165.642 128.814H161.841V137.11V137.111H166.376C166.178 137.609 165.831 138.033 165.391 138.329C165.421 138.35 165.451 138.37 165.481 138.392H157.894V146.632C157.894 146.669 157.891 146.705 157.885 146.74H166.406C166.215 147.264 165.864 147.711 165.412 148.021H163.074V156.316C163.074 156.352 163.07 156.388 163.065 156.422H166.415C166.23 156.944 165.888 157.39 165.445 157.704H158.464V166.145H166.408C166.22 166.669 165.872 167.115 165.422 167.426H162.76V177.603H161.479V167.426H153.214C153.214 167.437 153.215 167.448 153.215 167.458V177.603H151.934V167.458C151.934 167.448 151.934 167.437 151.934 167.426H145.616C145.534 167.464 145.444 167.485 145.349 167.485C145.253 167.485 145.164 167.464 145.082 167.426H136.874V177.603H135.592V167.426H133.353V177.603H132.072V167.426H122.147C121.697 167.115 121.349 166.669 121.161 166.145H130V157.704H122.124C121.682 157.39 121.339 156.944 121.154 156.422H124.408V148.021H122.159C121.705 147.711 121.354 147.264 121.163 146.74H129.028V138.392H122.088C122.119 138.37 122.148 138.35 122.179 138.329C121.738 138.033 121.393 137.609 121.193 137.111H123.995V128.814H121.928C122.008 128.745 122.091 128.681 122.179 128.622C121.777 128.353 121.454 127.977 121.248 127.533H127.137V118.467H128.418V127.533H129.73V118.467H131.011V127.533H142.777V118.467H144.058V127.533H155.824V118.467H157.105V127.533ZM131.282 157.704V166.145H144.709V157.704H131.282ZM145.99 157.704V166.145H154.646V157.704H145.99ZM155.928 157.704V166.145H157.183V157.704H155.928ZM125.689 148.021V156.422H136.054V148.021H125.689ZM149.902 148.021H137.335V156.422H149.937C149.915 156.357 149.902 156.287 149.902 156.214V148.021ZM161.792 148.021H151.184V156.214C151.184 156.287 151.172 156.357 151.149 156.422H161.8C161.795 156.388 161.792 156.352 161.792 156.316V148.021ZM130.309 138.392V146.74H140.153V138.392H130.309ZM141.434 138.392V146.74H142.949V138.392H141.434ZM156.613 138.392H144.23V146.74H150.346C150.407 146.719 150.474 146.709 150.543 146.709C150.612 146.709 150.679 146.719 150.742 146.74H156.623C156.617 146.705 156.613 146.669 156.613 146.632V138.392ZM125.276 128.814V137.111H136.557V128.814H125.276ZM137.838 128.814V137.111H148.038V128.814H137.838ZM149.32 128.814V137.111H151.034V128.814H149.32ZM160.56 128.814H152.315V137.111H160.56V137.11V128.814Z" fill="#FDA425"/>
<path fill-rule="evenodd" clip-rule="evenodd" d="M166.58 90.6746H178.921C200.152 90.6746 217.391 110.691 217.391 135.344C217.391 158.092 202.739 177.243 183.793 180.014C182.204 180.247 166.663 180.014 166.663 180.014C145.431 180.014 128.192 159.998 128.192 135.344C128.192 110.723 145.386 90.7258 166.58 90.6746Z" fill="#FDA425"/>
<path d="M166.662 180.015C187.908 180.015 205.132 160.015 205.132 135.345C205.132 110.674 187.908 90.6746 166.662 90.6746C145.416 90.6746 128.192 110.674 128.192 135.345C128.192 160.015 145.416 180.015 166.662 180.015Z" fill="#FFCD80"/>
<path fill-rule="evenodd" clip-rule="evenodd" d="M166.811 108.799L165.483 108.725L165.513 106.743L167.831 106.872C168.379 106.902 168.815 107.371 168.807 107.918L168.755 111.27C170.782 111.474 172.723 111.908 174.576 112.571C176.943 113.417 179.17 114.637 181.252 116.228C181.488 116.406 181.635 116.677 181.66 116.967C181.682 117.256 181.58 117.537 181.375 117.735L176.838 122.133C176.496 122.463 175.957 122.488 175.561 122.191C173.507 120.65 171.198 119.653 168.633 119.196L168.461 130.367C177.999 132.928 182.526 137.768 182.29 144.622C182.177 148.346 180.743 151.356 178.004 153.643C175.5 155.814 172.184 157.117 168.043 157.521L167.954 163.28C167.946 163.827 167.496 164.245 166.947 164.214L164.673 164.088L164.703 162.108L165.989 162.179L166.076 156.544C166.083 156.042 166.464 155.642 166.963 155.61C171.035 155.345 174.277 154.197 176.687 152.11C179.01 150.17 180.214 147.626 180.31 144.478C180.522 138.312 176.081 134.275 167.256 132.086C166.791 131.969 166.461 131.542 166.468 131.067L166.669 117.998C166.674 117.724 166.792 117.47 166.993 117.293C167.195 117.118 167.464 117.035 167.737 117.069C170.802 117.433 173.559 118.451 176.007 120.12L179.132 117.091C177.504 115.97 175.787 115.084 173.977 114.439C172 113.731 169.918 113.31 167.726 113.169C167.182 113.135 166.751 112.668 166.76 112.123L166.811 108.799ZM168.166 149.505C169.613 149.149 170.675 148.594 171.322 147.793C171.725 147.275 172.023 146.683 172.217 146.02L174.12 146.653C173.854 147.55 173.447 148.35 172.892 149.065C171.831 150.377 169.999 151.292 167.347 151.706C167.054 151.752 166.751 151.663 166.52 151.461C166.292 151.26 166.162 150.969 166.166 150.67L166.274 143.665L168.255 143.775L168.166 149.505ZM157.759 120.876C158.12 119.999 158.585 119.279 159.143 118.71C159.157 118.696 159.173 118.682 159.186 118.668C160.443 117.541 161.925 116.932 163.627 116.843C163.906 116.829 164.186 116.935 164.392 117.133C164.599 117.333 164.714 117.609 164.71 117.889L164.622 123.625L162.641 123.515L162.711 118.992C161.917 119.198 161.202 119.584 160.564 120.15C160.168 120.561 159.847 121.083 159.588 121.711C159.582 121.728 159.574 121.744 159.566 121.761C159.256 122.409 159.106 123.208 159.091 124.146L157.111 124.036C157.13 122.793 157.353 121.741 157.759 120.876Z" fill="#FDA31F"/>
<path fill-rule="evenodd" clip-rule="evenodd" d="M158.525 128.269C157.567 127.101 157.087 125.693 157.112 124.035L159.093 124.145C159.075 125.282 159.382 126.253 160.041 127.052L160.064 127.081C160.579 127.754 161.417 128.309 162.561 128.789L162.643 123.514L164.623 123.624L164.521 130.237C164.517 130.544 164.369 130.826 164.122 131.001C163.878 131.174 163.559 131.222 163.263 131.127C160.976 130.394 159.412 129.414 158.525 128.269Z" fill="#FDA31F"/>
<path fill-rule="evenodd" clip-rule="evenodd" d="M168.328 139.033L168.255 143.774L166.274 143.664L166.366 137.72C166.37 137.43 166.502 137.162 166.725 136.985C166.95 136.809 167.243 136.743 167.529 136.805C170.287 137.41 172.119 138.405 173.087 139.652L173.108 139.683C174.048 140.99 174.511 142.465 174.486 144.112C174.472 145.034 174.347 145.881 174.12 146.652L172.217 146.019C172.399 145.406 172.494 144.733 172.505 144.002C172.523 142.819 172.2 141.758 171.53 140.818C170.921 140.042 169.844 139.469 168.328 139.033Z" fill="#FDA31F"/>
<path fill-rule="evenodd" clip-rule="evenodd" d="M162.424 137.555C153.255 134.995 148.954 130.288 149.265 123.699C149.406 119.724 150.73 116.685 153.175 114.553C155.413 112.603 158.623 111.41 162.833 111.034L162.886 107.589C162.894 107.041 163.344 106.622 163.89 106.653L165.513 106.743L165.482 108.725L164.851 108.69L164.8 112.014C164.792 112.518 164.409 112.921 163.907 112.95C159.777 113.202 156.635 114.218 154.507 116.073C152.436 117.88 151.366 120.48 151.245 123.862C150.966 129.764 155.189 133.666 163.637 135.848C164.097 135.967 164.424 136.392 164.417 136.862L164.206 150.561C164.202 150.841 164.079 151.099 163.872 151.276C163.662 151.453 163.385 151.528 163.107 151.488C160.631 151.117 158.54 150.445 156.835 149.487C155.334 148.726 153.995 147.81 152.814 146.737L148.971 149.724C150.783 151.126 152.797 152.336 155.005 153.355C157.583 154.516 160.298 155.193 163.153 155.39C163.696 155.429 164.124 155.893 164.116 156.435L164.029 162.07L164.703 162.108L164.672 164.088L163.007 163.995C162.461 163.965 162.025 163.497 162.033 162.951L162.12 157.284C159.376 156.996 156.754 156.286 154.248 155.157C151.447 153.865 148.953 152.289 146.755 150.431C146.524 150.236 146.388 149.947 146.387 149.648C146.384 149.349 146.518 149.07 146.749 148.89L152.226 144.636C152.613 144.333 153.18 144.38 153.54 144.745C154.719 145.936 156.105 146.931 157.69 147.734L157.732 147.755C158.995 148.467 160.499 148.992 162.243 149.337L162.424 137.555Z" fill="#FDA31F"/>
<path fill-rule="evenodd" clip-rule="evenodd" d="M164.815 99.5145C180.333 99.5145 192.796 115.653 192.796 135.4C192.796 155.147 180.333 171.285 164.815 171.285C164.25 171.285 163.79 171.744 163.79 172.309C163.79 172.875 164.25 173.335 164.815 173.335C181.315 173.335 194.845 156.396 194.845 135.4C194.845 114.403 181.315 97.4651 164.815 97.4651C164.25 97.4651 163.79 97.9241 163.79 98.4898C163.79 99.0554 164.25 99.5145 164.815 99.5145Z" fill="#FDA425"/>
<path fill-rule="evenodd" clip-rule="evenodd" d="M164.816 171.285C149.297 171.285 136.835 155.147 136.835 135.4C136.835 115.653 149.297 99.5145 164.816 99.5145C165.381 99.5145 165.84 99.0554 165.84 98.4898C165.84 97.9241 165.381 97.4651 164.816 97.4651C148.316 97.4651 134.785 114.403 134.785 135.4C134.785 156.396 148.316 173.335 164.816 173.335C165.381 173.335 165.84 172.875 165.84 172.309C165.84 171.744 165.381 171.285 164.816 171.285Z" fill="#FDA425"/>
<path fill-rule="evenodd" clip-rule="evenodd" d="M194.827 176.348H180.148C179.583 176.348 179.123 175.888 179.123 175.323C179.123 174.757 179.583 174.299 180.148 174.299H197.78C197.899 174.299 198.013 174.319 198.119 174.356C197.053 175.08 195.956 175.745 194.827 176.348ZM211.574 159.09C211.202 159.786 210.817 160.47 210.414 161.14H196.318C195.752 161.14 195.293 160.682 195.293 160.115C195.293 159.549 195.752 159.09 196.318 159.09H211.574ZM214.355 152.834C214.104 153.527 213.837 154.209 213.559 154.883H197.78C197.214 154.883 196.755 154.425 196.755 153.858C196.755 153.293 197.214 152.834 197.78 152.834H214.355ZM217.287 132.03C217.331 132.71 217.36 133.393 217.377 134.079H203.302C202.735 134.079 202.277 133.621 202.277 133.054C202.277 132.489 202.735 132.03 203.302 132.03H217.287ZM215.048 119.964C215.261 120.64 215.462 121.325 215.648 122.014H200.313C199.748 122.014 199.288 121.555 199.288 120.989C199.288 120.424 199.748 119.964 200.313 119.964H215.048ZM212.944 114.487C213.251 115.161 213.544 115.844 213.821 116.537H199.76C199.196 116.537 198.736 116.078 198.736 115.512C198.736 114.947 199.196 114.487 199.76 114.487H212.944ZM199.31 97.4651C200.194 98.1082 201.053 98.791 201.888 99.5149H185.67C185.105 99.5149 184.645 99.0549 184.645 98.49C184.645 97.9237 185.105 97.4651 185.67 97.4651H199.31Z" fill="#FFCD80"/>
<path fill-rule="evenodd" clip-rule="evenodd" d="M132.637 16.6676C133.544 13.5402 136.128 4.60051 137.992 0.605745L148.726 6.42844C148.726 6.42844 144.101 23.1353 143.104 27.9263L130.621 24.9578C131 22.3473 131.725 19.8141 132.637 16.6676Z" fill="#82B5B2"/>
<path d="M138.328 20.0922C140.383 20.0922 142.049 18.3488 142.049 16.1982C142.049 14.0476 140.383 12.3042 138.328 12.3042C136.273 12.3042 134.607 14.0476 134.607 16.1982C134.607 18.3488 136.273 20.0922 138.328 20.0922Z" fill="#A8CFCC" fill-opacity="0.63"/>
<path fill-rule="evenodd" clip-rule="evenodd" d="M135.678 20.9872C136.284 19.298 139.665 10.5366 141.751 7.90356L151.465 13.3634C151.465 13.3634 146.229 27.2758 145.035 31.2817L133.528 28.151C134.025 25.9602 134.73 23.629 135.678 20.9872Z" fill="#A8CFCC"/>
<path d="M142.4 24.079C144.455 24.079 146.121 22.3356 146.121 20.185C146.121 18.0344 144.455 16.291 142.4 16.291C140.346 16.291 138.68 18.0344 138.68 20.185C138.68 22.3356 140.346 24.079 142.4 24.079Z" fill="#82B5B2"/>
<path d="M166.435 21.7212C170.967 21.7212 174.642 18.047 174.642 13.5147C174.642 8.98231 170.967 5.30811 166.435 5.30811C161.903 5.30811 158.229 8.98231 158.229 13.5147C158.229 18.047 161.903 21.7212 166.435 21.7212Z" fill="#E86135"/>
<path fill-rule="evenodd" clip-rule="evenodd" d="M160.976 7.38915C162.427 6.0951 164.34 5.30811 166.434 5.30811C170.964 5.30811 174.641 8.98541 174.641 13.5147C174.641 15.0687 174.208 16.5225 173.457 17.7614C167.363 15.0236 168.256 8.41801 168.256 8.41801C164.906 9.51246 162.404 8.40405 160.976 7.38915Z" fill="black"/>
<path fill-rule="evenodd" clip-rule="evenodd" d="M131.268 117.818C131.268 117.818 128.868 113.175 131.268 109.697L127.008 102.213C127.008 102.213 124.938 100.887 122.587 99.38C117.272 95.9735 114.223 89.9536 114.621 83.6542C114.652 83.1742 114.707 82.734 114.79 82.349C112.346 80.0427 110.327 74.8663 111.07 69.9134C111.07 69.9132 111.07 69.9132 111.07 69.9132C112.104 63.0148 117.834 57.7875 124.798 57.3907C136.005 56.7551 155.239 56.3206 167.064 59.7116L164.404 53.0906C164.404 53.0906 145.482 59.8568 140.689 44.3188C129.827 48.7051 117.73 51.9114 105.77 53.6464C100.77 54.3741 95.8362 51.9499 93.3573 47.5465C93.3521 47.5496 93.3521 47.5496 93.3521 47.5496C91.2549 43.8252 91.925 39.1562 94.9843 36.1712C98.0602 33.2035 103.306 29.3645 112.265 24.9477C112.265 24.9477 121.239 20.2022 126.495 17.4234C128.843 16.182 131.627 16.0738 134.063 17.1296C139.24 19.3718 147.793 23.0772 147.793 23.0772L148.792 20.555C154.732 21.5441 160.567 23.3432 166.288 25.5698C172.365 27.9421 177.073 32.89 179.139 39.0756C184.228 54.308 193.836 83.5546 195.097 90.8811H198.699C200.723 90.8811 202.477 92.2852 202.919 94.2607C203.264 95.8044 203.597 97.2943 203.597 97.2943C203.597 97.2943 205.891 99.8604 206.563 102.213C206.836 103.171 205.307 104.288 203.597 102.493C203.091 101.961 198.177 98.0835 195.969 97.8414C194.281 97.6556 192.787 97.4622 191.394 97.2918C187.119 96.7678 183.325 94.3004 181.11 90.6044C179.629 88.1344 178.267 85.8617 178.267 85.8617C178.267 85.8617 173.65 93.2665 160.976 91.9303L162.945 117.527C162.945 117.527 160.416 116.929 159.57 112.796C159.57 112.796 145.287 110.893 137.152 107.448C137.152 107.448 133.943 110.635 131.268 117.818Z" fill="url(#paint2_linear_254_1363)"/>
<path fill-rule="evenodd" clip-rule="evenodd" d="M195.029 90.5144C195.054 90.6425 195.075 90.7642 195.096 90.8808H196.801C197.626 91.4599 198.88 92.3695 200.24 93.4533L200.676 92.9613C200.865 92.7499 201.189 92.7307 201.4 92.9191C201.612 93.1061 201.631 93.4302 201.443 93.6416L201.036 94.099C201.808 94.7357 202.592 95.4172 203.333 96.1167L203.596 97.2941L195.247 91.055C195.064 90.9346 194.983 90.7155 195.029 90.5144Z" fill="#D7441E"/>
<path fill-rule="evenodd" clip-rule="evenodd" d="M146.306 110.3L153.402 90.1527C153.52 89.8184 153.887 89.6428 154.22 89.7607C154.553 89.8786 154.728 90.2437 154.612 90.5781L147.561 110.594C147.144 110.499 146.727 110.401 146.306 110.3ZM127.009 102.212C127.009 102.212 129.756 103.689 132.119 104.911C135.115 106.463 138.252 107.913 137.153 107.448C137.153 107.448 136.847 107.753 136.344 108.384C133.65 107.177 130.549 105.55 128.171 104.254L127.009 102.212ZM113.813 81.2421C115.87 71.3794 123.556 65.7757 132.499 62.6588C145.138 58.2528 160.272 58.8499 165.005 59.1754C165.701 59.3391 166.712 59.5559 167.363 59.7419C167.4 59.834 167.686 60.0108 167.675 60.116C167.638 60.4677 168.126 60.7252 167.774 60.6889C167.774 60.6889 148.119 59.447 132.92 63.8685C123.483 66.6134 116.96 73.4519 114.791 82.3483C114.455 82.0312 114.127 81.6598 113.813 81.2421Z" fill="#D7441E"/>
<path fill-rule="evenodd" clip-rule="evenodd" d="M161.089 93.1972C158.728 92.8346 155.733 91.852 152.574 90.5671C143.317 86.8057 132.6 80.5107 132.6 80.5107C132.295 80.3316 132.194 79.9387 132.372 79.6339C132.551 79.3292 132.945 79.227 133.25 79.4061C133.25 79.4061 143.875 85.6502 153.056 89.3808C156.369 90.7272 161.262 91.9596 160.975 91.9302L161.089 93.1972Z" fill="#8A2208"/>
<path fill-rule="evenodd" clip-rule="evenodd" d="M166.333 57.8915L164.404 53.0906C164.404 53.0906 145.482 59.8568 140.689 44.3188C129.827 48.7051 117.73 51.9114 105.77 53.6464C100.77 54.3741 95.8362 51.9499 93.3573 47.5466C93.3521 47.5496 93.3521 47.5496 93.3521 47.5496C91.2549 43.8252 91.925 39.1562 94.9843 36.1712C98.0602 33.2035 103.306 29.3645 112.265 24.9477C112.265 24.9477 121.239 20.2022 126.495 17.4234C128.843 16.182 131.627 16.0738 134.063 17.1296C139.24 19.3718 147.793 23.0772 147.793 23.0772L148.792 20.555C154.732 21.5441 160.567 23.3433 166.288 25.5698C172.365 27.9421 177.073 32.89 179.139 39.0756C182.196 48.2241 186.882 62.428 190.411 73.9011L175.662 78.3986C172.463 71.6898 169.22 65.0355 166.385 57.9L166.333 57.8915Z" fill="#D7441E"/>
<path fill-rule="evenodd" clip-rule="evenodd" d="M161.659 53.8434C161.19 51.501 161.08 49.0426 161.123 46.5347C161.124 46.3967 161.224 46.2795 161.36 46.2541C161.496 46.2286 161.63 46.3019 161.683 46.4295C162.933 49.4774 165.995 56.9368 165.995 56.9368H165.948L164.403 53.0914C164.403 53.0914 163.341 53.4709 161.659 53.8434ZM121.111 38.6871L105.368 47.5558C105.059 47.7293 104.95 48.1203 105.123 48.4283C105.297 48.7363 105.688 48.8455 105.997 48.6719L121.74 39.8033C122.049 39.6298 122.158 39.2389 121.984 38.9309C121.811 38.6228 121.42 38.5136 121.111 38.6871ZM137.373 45.6075C137.968 41.2987 139.385 38.2774 140.372 36.6106C140.434 36.5187 140.556 36.487 140.657 36.5363C140.757 36.5855 140.807 36.7008 140.773 36.8075C139.754 40.4688 140.629 44.0867 140.686 44.3089L140.688 44.3196C139.595 44.761 138.49 45.1903 137.373 45.6075Z" fill="#8A2208"/>
<path fill-rule="evenodd" clip-rule="evenodd" d="M112.953 24.584L126.494 17.4234C128.843 16.182 131.627 16.0738 134.063 17.1296L147.42 22.9159C147.51 22.9756 147.592 23.0294 147.665 23.0772C149.891 24.5362 148.132 25.9788 147.51 25.7729C149.031 26.4956 148.979 27.6965 148.621 28.2169C148.03 29.0753 145.916 28.7621 145.916 28.7621C146.504 28.9718 147.044 30.1193 146.587 30.9705C145.855 32.3388 143.85 31.5075 143.85 31.5075C144.214 33.4157 142.241 33.422 139.833 32.9123C137.969 32.5175 137.115 32.0999 135.529 31.7043C132.965 38.5401 125.311 37.7505 125.311 37.7505L120.267 40.6099L112.953 24.584Z" fill="url(#paint3_linear_254_1363)"/>
<path fill-rule="evenodd" clip-rule="evenodd" d="M143.858 31.547L135.286 28.2196C135.022 28.1172 134.891 27.82 134.994 27.5563C135.096 27.2927 135.394 27.1618 135.658 27.2641L146.265 31.3821C145.391 32.1462 143.85 31.5073 143.85 31.5073C143.853 31.5208 143.855 31.534 143.858 31.547ZM146.046 28.8238L136.301 25.0404C136.037 24.938 135.906 24.6409 136.009 24.3773C136.111 24.1136 136.408 23.9827 136.672 24.0849L147.842 28.4215C147.945 28.4612 148.027 28.5302 148.083 28.6154C147.238 28.9576 145.917 28.7619 145.917 28.7619C145.96 28.7775 146.004 28.7983 146.046 28.8238ZM147.614 25.7914L137.469 21.8528C137.205 21.7505 137.073 21.4533 137.176 21.1896C137.278 20.9259 137.575 20.795 137.839 20.8974L148.636 25.0891C148.412 25.5308 147.929 25.8101 147.614 25.7914Z" fill="#D7441E"/>
<path fill-rule="evenodd" clip-rule="evenodd" d="M116.895 173.263C116.17 172.775 115.69 171.946 115.69 171.007V165.574C115.69 164.075 116.907 162.858 118.408 162.858H159.661C161.16 162.858 162.377 164.075 162.377 165.574V171.007C162.377 171.946 161.899 172.775 161.172 173.263C161.899 173.751 162.377 174.58 162.377 175.519V180.952C162.377 182.452 161.16 183.669 159.661 183.669H118.408C116.907 183.669 115.69 182.452 115.69 180.952V175.519C115.69 174.58 116.17 173.751 116.895 173.263Z" fill="#FFDBA3"/>
<path fill-rule="evenodd" clip-rule="evenodd" d="M150.047 172.162H162.119C161.909 172.61 161.58 172.99 161.172 173.263C161.256 173.319 161.335 173.379 161.412 173.444H157.501V183.669H156.22V173.444H145.511V183.669H144.23V173.444H142.595V183.669H141.314V173.444H124.772V183.669H123.491V173.444H116.656C116.732 173.379 116.811 173.319 116.895 173.263C116.489 172.99 116.159 172.61 115.949 172.162H130.945V162.858H132.226V172.162H133.86V162.858H135.142V172.162H148.766V162.858H150.047V172.162Z" fill="#FDA425"/>
<defs>
<linearGradient id="paint0_linear_254_1363" x1="42.6978" y1="129.769" x2="42.4379" y2="202.996" gradientUnits="userSpaceOnUse">
<stop stop-color="#A8CFCC"/>
<stop offset="1" stop-color="#59A09B"/>
</linearGradient>
<linearGradient id="paint1_linear_254_1363" x1="51.0914" y1="72.3843" x2="54.4751" y2="137.393" gradientUnits="userSpaceOnUse">
<stop stop-color="#82B5B2"/>
<stop offset="0.45" stop-color="#A7C6C1"/>
<stop offset="1" stop-color="#FFF0E6"/>
</linearGradient>
<linearGradient id="paint2_linear_254_1363" x1="171.09" y1="85.69" x2="98.8238" y2="21.6533" gradientUnits="userSpaceOnUse">
<stop stop-color="#E86135"/>
<stop offset="0.48" stop-color="#EE734F"/>
<stop offset="1" stop-color="#FFA396"/>
</linearGradient>
<linearGradient id="paint3_linear_254_1363" x1="130.896" y1="30.6333" x2="136.081" y2="-3.40677" gradientUnits="userSpaceOnUse">
<stop stop-color="#E86135"/>
<stop offset="1" stop-color="#FFA396"/>
</linearGradient>
</defs>
</svg>
