<svg width="266" height="203" viewBox="0 0 266 203" fill="none" xmlns="http://www.w3.org/2000/svg">
<path d="M241.707 115.546H144.842V193.966H241.707V115.546Z" fill="#FFAFA4"/>
<path fill-rule="evenodd" clip-rule="evenodd" d="M172.816 151.513H157.648V184.45H172.816V151.513ZM232.313 153.076H217.146V184.45H232.313V153.076ZM212.482 144.289H197.313V184.45H212.482V144.289ZM192.649 133.042H177.48V184.45H192.649V133.042ZM228.046 147.91H221.217V151.64H228.046V147.91ZM168.355 146.46H161.526V150.189H168.355V146.46ZM208.312 139.478H201.483V143.208H208.312V139.478ZM188.233 127.973H181.406V131.704H188.233V127.973Z" fill="#FFF1E2"/>
<path fill-rule="evenodd" clip-rule="evenodd" d="M201.403 178.505L231.208 146.278C231.633 145.818 232.348 145.796 232.802 146.228C233.254 146.662 233.276 147.389 232.85 147.849L202.117 181.079C201.887 181.327 201.561 181.459 201.228 181.438C200.894 181.418 200.585 181.247 200.388 180.972L179.032 151.366L156.232 182.201C155.858 182.707 155.152 182.809 154.654 182.428C154.157 182.049 154.056 181.329 154.431 180.823L178.141 148.753C178.356 148.463 178.693 148.293 179.049 148.295C179.405 148.297 179.74 148.471 179.951 148.764L201.403 178.505Z" fill="#DC5D3C"/>
<path fill-rule="evenodd" clip-rule="evenodd" d="M186.795 42.1689C186.677 41.8374 186.613 41.4803 186.613 41.1084C186.613 39.3653 188.027 37.9502 189.771 37.9502C191.513 37.9502 192.929 39.3653 192.929 41.1084C192.929 42.8514 191.513 44.2666 189.771 44.2666C189.347 44.2666 188.943 44.1829 188.573 44.0315L156.965 80.99C157.168 81.4065 157.282 81.8741 157.282 82.3681C157.282 84.1112 155.866 85.5263 154.124 85.5263C152.38 85.5263 150.966 84.1112 150.966 82.3681C150.966 82.2819 150.969 82.1964 150.976 82.1119L147.966 80.0226C147.43 80.4382 146.759 80.6859 146.03 80.6859C145.676 80.6859 145.337 80.6278 145.02 80.521L113.09 122.601C113.187 122.906 113.24 123.23 113.24 123.567C113.24 125.309 111.826 126.725 110.082 126.725C108.338 126.725 106.924 125.309 106.924 123.567C106.924 123.397 106.937 123.23 106.962 123.069L87.2807 103.342C86.8413 103.574 86.3404 103.706 85.8087 103.706C85.491 103.706 85.1835 103.659 84.894 103.57L50.6192 156.929C50.8989 157.4 51.0596 157.95 51.0596 158.538C51.0596 160.28 49.6444 161.696 47.9014 161.696C46.1583 161.696 44.7432 160.28 44.7432 158.538C44.7432 156.794 46.1583 155.379 47.9014 155.379C48.1163 155.379 48.3262 155.4 48.5292 155.441L82.9403 101.87C82.7545 101.468 82.6508 101.02 82.6508 100.548C82.6508 98.8045 84.0664 97.3889 85.8087 97.3889C87.5523 97.3889 88.9679 98.8045 88.9679 100.548C88.9679 100.811 88.9346 101.067 88.8744 101.312L108.408 120.89C108.893 120.585 109.467 120.409 110.082 120.409C110.529 120.409 110.954 120.501 111.34 120.669L143.128 78.7761C142.963 78.3933 142.871 77.971 142.871 77.5276C142.871 75.7846 144.286 74.3694 146.03 74.3694C147.772 74.3694 149.188 75.7846 149.188 77.5276C149.188 77.6013 149.185 77.6745 149.18 77.747L152.215 79.8527C152.746 79.4495 153.407 79.2099 154.124 79.2099C154.431 79.2099 154.729 79.2539 155.009 79.3358L186.795 42.1689Z" fill="#FFAFA4"/>
<path d="M123.525 15.3115H23.1621V91.125H123.525V15.3115Z" fill="#FFF1E2"/>
<path fill-rule="evenodd" clip-rule="evenodd" d="M43.2997 28.1237H36.4707V83.741H43.2997V28.1237ZM56.8495 23.1594H50.0207V83.7116H56.8495V23.1594ZM70.3995 35.8669H63.5707V83.6795H70.3995V35.8669ZM83.9499 27.9786H77.1206V83.6446H83.9499V27.9786ZM97.5003 43.4452H90.6713V83.6067H97.5003V43.4452ZM111.049 54.6707H104.22V83.5653H111.049V54.6707Z" fill="#FFAFA4" fill-opacity="0.64"/>
<path fill-rule="evenodd" clip-rule="evenodd" d="M137.949 170.282H124.305V152.134H114.967L131.127 128.7L147.287 152.134H137.949V170.282Z" fill="#E5734E"/>
<path fill-rule="evenodd" clip-rule="evenodd" d="M211.897 18.8389H225.541V36.9861H234.879L218.719 60.4203L202.559 36.9861H211.897V18.8389Z" fill="#FFB000"/>
<path d="M177.926 126.236C190.485 126.236 200.666 115.88 200.666 103.106C200.666 90.331 190.485 79.9751 177.926 79.9751C165.368 79.9751 155.187 90.331 155.187 103.106C155.187 115.88 165.368 126.236 177.926 126.236Z" fill="#FFCD80"/>
<path fill-rule="evenodd" clip-rule="evenodd" d="M172.617 87.3274L171.78 87.6307L171.366 86.4498L172.826 85.9206C173.171 85.7952 173.543 85.9585 173.657 86.2846L174.357 88.2818C175.653 87.8728 176.947 87.6226 178.236 87.5306C179.883 87.4127 181.524 87.5527 183.157 87.95C183.342 87.9939 183.492 88.1158 183.57 88.2808C183.647 88.4463 183.645 88.639 183.562 88.8099L181.721 92.5978C181.582 92.8829 181.254 93.0386 180.945 92.966C179.34 92.5911 177.696 92.6042 176.012 93.0043L178.345 99.6596C184.795 98.6829 188.647 100.364 189.998 104.482C190.742 106.715 190.513 108.871 189.321 110.941C188.249 112.88 186.485 114.518 184.016 115.838L185.219 119.27C185.333 119.595 185.147 119.96 184.801 120.086L183.369 120.605L182.955 119.426L183.765 119.132L182.588 115.774C182.483 115.475 182.631 115.139 182.932 114.99C185.389 113.769 187.141 112.242 188.173 110.377C189.184 108.623 189.372 106.802 188.744 104.914C187.528 101.21 183.904 99.9814 177.977 100.992C177.664 101.044 177.366 100.878 177.267 100.595L174.538 92.8081C174.481 92.6453 174.498 92.4641 174.584 92.3064C174.67 92.15 174.819 92.0308 174.995 91.9798C176.967 91.394 178.892 91.2759 180.768 91.6238L182.036 89.0149C180.786 88.7772 179.533 88.7014 178.274 88.7926C176.898 88.8903 175.521 89.1852 174.136 89.6746C173.793 89.7962 173.425 89.6324 173.311 89.3082L172.617 87.3274ZM182.342 111.063C183.158 110.474 183.692 109.868 183.917 109.225C184.053 108.813 184.108 108.385 184.082 107.942L185.396 107.819C185.428 108.419 185.351 108.999 185.164 109.567C184.796 110.621 183.864 111.641 182.317 112.579C182.146 112.683 181.939 112.709 181.753 112.65C181.568 112.591 181.424 112.452 181.361 112.275L179.898 108.101L181.146 107.649L182.342 111.063ZM169.664 96.8398C169.695 96.2268 169.825 95.6791 170.046 95.1967C170.051 95.1849 170.058 95.1724 170.063 95.1606C170.593 94.1649 171.375 93.4175 172.407 92.9196C172.576 92.8384 172.772 92.8284 172.943 92.8916C173.114 92.9561 173.246 93.0891 173.304 93.2556L174.502 96.6735L173.255 97.1258L172.31 94.4309C171.865 94.7602 171.508 95.1755 171.238 95.6773C171.083 96.0237 170.998 96.4169 170.975 96.8561C170.976 96.8674 170.974 96.8793 170.973 96.8912C170.923 97.3558 171.004 97.868 171.2 98.4269L169.953 98.8793C169.694 98.1387 169.602 97.4581 169.664 96.8398Z" fill="#FDA31F"/>
<path fill-rule="evenodd" clip-rule="evenodd" d="M171.752 101.014C170.905 100.573 170.301 99.8652 169.955 98.8773L171.202 98.425C171.44 99.1025 171.841 99.597 172.423 99.898L172.443 99.909C172.908 100.173 173.547 100.282 174.358 100.267L173.257 97.1239L174.504 96.6716L175.885 100.612C175.949 100.795 175.92 101 175.805 101.168C175.692 101.334 175.506 101.446 175.302 101.467C173.73 101.631 172.55 101.46 171.752 101.014Z" fill="#FDA31F"/>
<path fill-rule="evenodd" clip-rule="evenodd" d="M180.156 104.823L181.146 107.647L179.899 108.1L178.657 104.558C178.597 104.385 178.619 104.192 178.718 104.03C178.819 103.867 178.986 103.751 179.176 103.713C181.011 103.35 182.36 103.46 183.23 103.945L183.249 103.958C184.116 104.486 184.724 105.238 185.068 106.219C185.26 106.768 185.368 107.302 185.397 107.818L184.083 107.94C184.061 107.53 183.973 107.107 183.82 106.672C183.573 105.966 183.142 105.423 182.523 105.042C181.977 104.742 181.187 104.684 180.156 104.823Z" fill="#FDA31F"/>
<path fill-rule="evenodd" clip-rule="evenodd" d="M176.185 105.489C169.964 106.37 166.28 104.709 165.034 100.728C164.253 98.3393 164.406 96.1946 165.451 94.2942C166.407 92.5552 168.129 91.0104 170.647 89.6879L169.927 87.6351C169.813 87.3091 169.999 86.9435 170.343 86.8188L171.365 86.4482L171.779 87.6291L171.381 87.7732L172.076 89.7541C172.181 90.0544 172.032 90.3927 171.729 90.5412C169.233 91.7692 167.514 93.1916 166.605 94.8452C165.721 96.4558 165.628 98.2742 166.292 100.307C167.408 103.873 170.868 105.078 176.562 104.162C176.872 104.113 177.167 104.279 177.265 104.559L180.126 112.72C180.184 112.887 180.165 113.072 180.075 113.231C179.984 113.39 179.83 113.508 179.649 113.556C178.039 113.983 176.601 114.132 175.339 114.011C174.246 113.953 173.219 113.761 172.256 113.435L170.534 116.206C171.96 116.562 173.468 116.752 175.054 116.778C176.899 116.792 178.724 116.483 180.53 115.853C180.874 115.734 181.24 115.897 181.353 116.22L182.53 119.578L182.954 119.424L183.367 120.604L182.319 120.984C181.975 121.109 181.603 120.946 181.489 120.621L180.306 117.244C178.548 117.791 176.774 118.056 174.98 118.043C172.968 118.01 171.083 117.729 169.32 117.204C169.135 117.149 168.988 117.013 168.922 116.836C168.855 116.66 168.877 116.46 168.98 116.293L171.434 112.345C171.606 112.065 171.967 111.944 172.269 112.066C173.257 112.463 174.33 112.689 175.484 112.75L175.515 112.752C176.45 112.843 177.494 112.761 178.646 112.509L176.185 105.489Z" fill="#FDA31F"/>
<path fill-rule="evenodd" clip-rule="evenodd" d="M182.724 129.133C181.035 129.487 179.284 129.673 177.492 129.673C176.006 129.673 174.803 128.447 174.803 126.938C174.803 125.428 176.006 124.202 177.492 124.202C188.785 124.202 197.954 114.876 197.954 103.389C197.954 91.9015 188.785 82.5754 177.492 82.5754C176.006 82.5754 174.803 81.3497 174.803 79.8399C174.803 78.3303 176.006 77.1045 177.492 77.1045C191.753 77.1045 203.332 88.8821 203.332 103.389C203.332 114.141 196.97 123.393 187.871 127.462L204.729 167.913C205.309 169.303 204.67 170.91 203.304 171.498C201.937 172.088 200.357 171.438 199.777 170.048L182.724 129.133Z" fill="#DC5D3C"/>
<path fill-rule="evenodd" clip-rule="evenodd" d="M177.492 124.201C166.198 124.201 157.03 114.875 157.03 103.388C157.03 91.9015 166.198 82.5754 177.492 82.5754C178.976 82.5754 180.181 81.3495 180.181 79.8399C180.181 78.3301 178.976 77.1045 177.492 77.1045C163.23 77.1045 151.651 88.8819 151.651 103.388C151.651 117.895 163.23 129.672 177.492 129.672C178.976 129.672 180.181 128.446 180.181 126.937C180.181 125.427 178.976 124.201 177.492 124.201Z" fill="#DC5D3C"/>
<path fill-rule="evenodd" clip-rule="evenodd" d="M213.703 138.045C213.703 138.045 212.256 132.516 212.735 125.468C213.411 115.553 219.648 106.926 228.751 103.316C237.853 99.7058 248.186 101.76 255.281 108.592C256.919 110.177 258.413 112.038 259.671 114.228C265.849 124.999 267.853 136.873 262.649 148.604C262.649 148.604 266.002 171.006 261.172 187.153C258.735 195.264 251.82 201.145 243.542 202.15C243.263 202.188 242.982 202.22 242.698 202.255C235.138 203.173 227.723 199.649 223.561 193.164C215.458 180.537 202.995 161.115 202.995 161.115C202.995 161.115 195.943 161.739 193.218 161.98C192.243 162.069 191.371 161.37 191.228 160.385C191.149 159.796 191.331 159.146 192.159 158.595C192.159 158.595 191.284 158.589 190.598 158.419C189.515 158.154 189.082 157.212 189.035 156.204C188.991 155.255 189.267 154.159 190.536 153.516C188.937 153.822 187.388 152.784 187.035 151.17C187.019 151.105 187.006 151.044 186.994 150.986C186.865 150.399 186.947 149.786 187.225 149.256C187.487 148.751 187.939 148.199 188.712 147.866C188.712 147.866 187.959 147.628 187.146 147.372C185.971 147.001 185.169 145.896 185.169 144.645V144.643C185.169 143.533 185.828 142.532 186.838 142.108C189.031 141.183 192.615 139.675 192.615 139.675C192.615 139.675 187.999 133.688 189.919 131.928C190.26 131.615 191.021 131.434 193.26 133.373C194.106 134.105 197.388 135.04 201.541 134.46C201.541 134.46 206.975 134.426 213.703 138.045ZM218.699 73.6199C225.76 73.6199 231.493 79.4513 231.493 86.6342C231.493 93.8169 225.76 99.6485 218.699 99.6485C211.636 99.6485 205.903 93.8169 205.903 86.6342C205.903 79.4513 211.636 73.6199 218.699 73.6199Z" fill="#A8CFCC"/>
<path fill-rule="evenodd" clip-rule="evenodd" d="M202.561 161.154L205.364 160.833C205.732 160.79 206.065 161.06 206.107 161.436C206.149 161.811 205.884 162.149 205.514 162.192L203.81 162.387L202.995 161.115L202.561 161.154ZM189.377 157.506L197.477 156.745C197.846 156.709 198.174 156.986 198.208 157.362C198.243 157.739 197.971 158.072 197.601 158.106L192.12 158.621C192.132 158.612 192.145 158.604 192.159 158.595C192.159 158.595 191.283 158.588 190.597 158.419C190.017 158.277 189.624 157.942 189.377 157.506ZM187.925 152.75C187.985 152.714 188.054 152.687 188.126 152.669L195.629 151.025C195.991 150.944 196.349 151.18 196.428 151.55C196.505 151.917 196.275 152.281 195.912 152.362L190.451 153.56C190.478 153.545 190.506 153.529 190.535 153.516C189.56 153.702 188.604 153.389 187.925 152.75ZM186.568 147.115L194.572 144.607C194.927 144.496 195.303 144.697 195.413 145.058C195.522 145.419 195.322 145.802 194.967 145.913L188.646 147.894C188.668 147.884 188.689 147.874 188.711 147.865C188.711 147.865 187.958 147.628 187.145 147.371C186.941 147.306 186.748 147.221 186.568 147.115ZM191.802 138.534L194.602 137.356C194.945 137.211 195.339 137.377 195.481 137.725C195.623 138.076 195.46 138.476 195.117 138.62L192.612 139.673C192.591 139.644 192.251 139.201 191.802 138.534Z" fill="#82B5B2"/>
<path fill-rule="evenodd" clip-rule="evenodd" d="M213.639 137.789C213.365 136.623 212.315 131.625 212.733 125.469C213.409 115.555 219.646 106.928 228.749 103.317C237.85 99.7071 248.184 101.762 255.278 108.593C256.917 110.178 258.411 112.04 259.668 114.23C265.847 125 267.85 136.874 262.647 148.606C262.647 148.606 266 171.007 261.169 187.155C258.732 195.265 251.818 201.146 243.54 202.152C243.261 202.189 242.98 202.222 242.696 202.256C235.136 203.174 227.72 199.65 223.559 193.166L218.011 184.52L236.874 162.096C227.013 146.482 216.273 139.377 213.639 137.789Z" fill="url(#paint0_linear_254_1500)"/>
<path fill-rule="evenodd" clip-rule="evenodd" d="M236.803 161.983C236.837 162.015 236.869 162.055 236.895 162.096L249.079 180.803C249.284 181.119 249.2 181.543 248.891 181.752C248.582 181.96 248.165 181.873 247.96 181.558L235.978 163.163L236.875 162.096L236.803 161.983ZM262.766 149.47L262.796 149.713L262.759 149.791C262.759 149.791 260.068 134.553 256.207 122.904C256.115 122.663 256.223 122.391 256.451 122.282C256.68 122.17 256.954 122.259 257.08 122.483C259.135 126.544 261.954 132.622 265.079 140.8C265.033 141.043 264.986 141.286 264.936 141.527L264.934 141.536L264.911 141.648L264.909 141.659L264.884 141.773L264.882 141.78C264.831 142.021 264.776 142.262 264.719 142.502L264.717 142.51L264.69 142.62L264.687 142.637L264.662 142.743L264.655 142.763L264.63 142.867L264.625 142.886L264.598 142.994L264.596 143.001C264.556 143.158 264.514 143.315 264.472 143.474L264.468 143.485L264.442 143.585L264.433 143.615L264.408 143.707L264.398 143.743L264.373 143.833L264.363 143.871L264.337 143.96L264.327 143.997L264.3 144.088L264.292 144.119L264.263 144.215C264.252 144.256 264.24 144.297 264.226 144.338L264.194 144.444L264.189 144.461L264.164 144.546L264.151 144.591L264.126 144.669L264.11 144.721L264.087 144.796L264.07 144.851L264.047 144.924L264.028 144.981L264.005 145.054L263.986 145.11L263.963 145.182L263.944 145.24L263.921 145.312L263.897 145.381L263.88 145.435L263.858 145.497L263.836 145.564L263.815 145.629L263.791 145.695L263.769 145.758L263.746 145.825L263.724 145.888L263.7 145.957L263.678 146.018L263.653 146.088L263.631 146.148L263.606 146.222L263.586 146.278L263.554 146.364L263.537 146.408L263.49 146.536L263.473 146.579L263.442 146.666L263.421 146.719L263.393 146.796L263.371 146.853L263.342 146.928L263.32 146.984L263.292 147.059L263.27 147.116L263.24 147.193L263.218 147.246L263.184 147.33L263.166 147.376L263.122 147.483L263.114 147.506L263.06 147.636L263.045 147.675L263.006 147.766L262.986 147.817L262.952 147.897L262.931 147.95L262.897 148.027L262.875 148.082L262.841 148.16L262.818 148.213L262.784 148.294L262.762 148.343L262.724 148.432L262.705 148.473L262.648 148.605L262.658 148.673L262.66 148.696L262.67 148.759L262.673 148.79L262.687 148.88L262.692 148.914L262.707 149.036L262.712 149.072L262.734 149.226L262.737 149.256L262.762 149.451L262.766 149.47ZM220.009 142.443C220.009 142.443 219.368 137.409 218.506 122.612C218.486 122.282 218.71 122.179 218.832 122.152C219.051 122.102 219.217 122.246 219.237 122.372L222.843 144.957C221.846 144.025 220.898 143.189 220.009 142.443Z" fill="#28625E"/>
<path fill-rule="evenodd" clip-rule="evenodd" d="M208.731 78.4771C211.078 75.5159 214.671 73.6199 218.698 73.6199C225.759 73.6199 231.492 79.4513 231.492 86.6342C231.492 90.6982 229.657 94.3296 226.785 96.7166L222.319 92.2047C222.794 92.1702 223.285 92.042 223.761 91.8119C225.443 90.997 225.875 88.8547 225.228 87.4717C224.579 86.089 222.689 85.6277 221.008 86.4425C219.917 86.9712 219.586 88.2659 219.381 89.2361L208.731 78.4771Z" fill="black"/>
<path d="M96.0339 114.428C108.593 114.428 118.774 104.072 118.774 91.2976C118.774 78.5229 108.593 68.167 96.0339 68.167C83.475 68.167 73.2939 78.5229 73.2939 91.2976C73.2939 104.072 83.475 114.428 96.0339 114.428Z" fill="#A8CFCC"/>
<path fill-rule="evenodd" clip-rule="evenodd" d="M73.8682 86.1016C74.0327 86.0267 74.2336 85.9833 74.4764 86.0269C74.9551 86.1127 75.2953 86.5297 75.3093 87.0053C75.4684 87.2926 75.898 88.0433 76.4103 88.7509C77.62 90.4224 79.6606 92.8234 82.486 95.2739C83.7802 89.6416 86.2576 84.9452 88.9973 81.1797C84.9516 78.0046 82.7263 75.0799 82.2742 74.5213C81.9195 74.0844 81.9817 73.4374 82.4103 73.0772C82.8406 72.7172 83.4759 72.7794 83.8306 73.2162C84.2625 73.7488 86.382 76.5331 90.2377 79.5554C95.4918 73.0013 101.183 69.7384 101.183 69.7384C101.667 69.4605 102.282 69.635 102.556 70.1282C102.83 70.6213 102.659 71.2475 102.173 71.5255C102.173 71.5255 96.8196 74.5957 91.8562 80.7612C95.7002 83.4797 100.927 86.1774 107.573 87.43C108.287 82.4984 108.027 77.9165 107.524 74.5205C107.442 73.9606 107.822 73.4378 108.371 73.3533C108.923 73.269 109.437 73.6551 109.519 74.215C110.047 77.7816 110.311 82.582 109.561 87.7545C112.148 88.1122 114.935 88.2484 117.922 88.0886C118.169 88.0754 118.397 88.1532 118.58 88.2931C118.644 88.7906 118.691 89.2929 118.725 89.7994C118.552 89.9945 118.306 90.1225 118.027 90.1372C114.881 90.3056 111.945 90.1605 109.217 89.7804C108.24 94.7841 106.257 100.022 102.617 104.752C106.277 105.292 110.281 105.324 114.614 104.623C114.049 105.437 113.432 106.213 112.772 106.945C108.565 107.414 104.67 107.227 101.099 106.583C98.6566 109.322 95.5926 111.843 91.7672 113.989C91.7537 113.997 91.7386 114.004 91.7235 114.011C91.31 113.931 90.9016 113.838 90.4965 113.736C90.4595 113.69 90.4259 113.64 90.3973 113.585C90.1284 113.09 90.3066 112.466 90.794 112.192C93.9858 110.4 96.6162 108.332 98.7743 106.089C92.7874 104.625 87.7972 101.901 83.8692 98.9806C83.4289 102.303 83.4306 105.928 84.0491 109.857C84.1029 110.202 83.9802 110.535 83.7482 110.761C83.1263 110.354 82.5263 109.918 81.9481 109.453C81.343 105.129 81.4439 101.16 82.0389 97.5465C77.2716 93.6111 74.4073 89.6344 73.6024 88.1361C73.574 88.0833 73.5478 88.0323 73.5234 87.9831C73.6134 87.3469 73.7287 86.7192 73.8682 86.1016ZM90.6125 82.3874C87.8644 86.1705 85.3937 90.9461 84.2424 96.7187C88.3199 99.8985 93.7169 102.938 100.336 104.341C104.181 99.6942 106.237 94.4567 107.227 89.4554C100.188 88.1356 94.6614 85.2677 90.6125 82.3874ZM74.4679 88.0487C74.4208 88.057 74.3729 88.0616 74.3245 88.0628C74.2761 88.0638 74.227 88.0614 74.1776 88.0551C74.2828 88.0689 74.3793 88.0653 74.4679 88.0487Z" fill="#82B5B2"/>
<path fill-rule="evenodd" clip-rule="evenodd" d="M18.4101 134.988C18.4101 134.988 -15.0088 108.092 8.20468 76.235C10.6754 72.8446 25.6679 53.0825 46.9726 39.6877C47.8044 39.163 48.8753 39.2502 49.6148 39.9026C50.0863 40.329 50.3928 40.9801 50.0888 41.9797C50.0888 41.9797 53.3859 41.2486 53.1587 44.4706C53.1587 44.4706 57.0196 43.4175 57.1537 47.463C57.1537 47.463 63.5368 39.507 66.3176 36.0407C67.0466 35.1324 68.3206 34.9062 69.3087 35.5101C69.3089 35.5102 69.3089 35.5102 69.309 35.5102C69.7575 35.7843 70.0803 36.2283 70.2066 36.7446C70.3328 37.2609 70.2519 37.8071 69.9818 38.2628C58.1163 58.2519 45.5031 76.5911 32.8521 94.847C32.8521 94.847 43.2879 105.585 48.6655 109.451C50.8492 111.019 72.6701 124.887 75.8255 132.481C75.8255 132.481 76.0916 130.741 76.3948 128.76C76.9199 125.323 79.4101 122.54 82.7212 121.682C84.9667 121.1 87.0509 120.56 87.0509 120.56C87.0509 120.56 90.7755 119.914 93.9471 119.94C96.0245 119.955 97.8599 121.314 98.5154 123.318C98.8163 124.243 98.6902 125.257 98.1692 126.074C97.8751 126.537 97.6145 126.944 97.6145 126.944C97.6145 126.944 98.3625 127.202 99.0566 127.441C99.7962 127.696 100.393 128.259 100.7 128.989C101.299 130.411 101.042 132.057 100.038 133.222C99.7256 133.586 99.4936 133.854 99.4936 133.854H99.7205C100.904 133.854 101.968 134.586 102.41 135.704C103.017 137.239 102.526 138.997 101.218 139.98C100.894 140.223 100.668 140.394 100.668 140.394C101.079 140.252 101.462 140.539 101.731 141.197C102.264 142.498 101.774 144.001 100.615 144.772C98.8062 145.974 96.4195 147.561 96.4195 147.561C95.8833 158.781 94.5505 170.883 88.2896 185.308C86.4004 189.645 82.6843 192.878 78.1798 194.104C78.1764 194.107 78.1731 194.107 78.1697 194.109C68.7406 196.673 58.859 192.004 54.7047 183.022C52.7103 178.705 50.5802 173.385 48.6655 167.119C48.6655 167.119 40.739 168.172 32.8521 164.11C23.3775 159.231 13.9601 148.169 18.4101 134.988Z" fill="url(#paint1_linear_254_1500)"/>
<path fill-rule="evenodd" clip-rule="evenodd" d="M4.16016 116.666C5.15551 113.558 8.62965 106.577 19.662 107.234C19.662 107.234 23.575 95.6279 35.9475 97.963C39.457 101.444 45.1457 106.921 48.6664 109.451C50.8501 111.019 72.671 124.887 75.8264 132.482L75.8629 132.244C77.8993 138.324 81.5977 151.372 79.7388 165.492C79.7388 165.492 72.413 170.475 65.2877 164.214C65.2877 164.214 58.5426 173.317 48.7876 167.512C48.7469 167.381 48.7066 167.251 48.6664 167.119C48.6664 167.119 40.7399 168.172 32.8531 164.11C23.3784 159.231 13.961 148.169 18.4111 134.988C18.4111 134.988 9.58887 127.888 4.16016 116.666ZM50.54 106.425L53.4107 108.242C52.3754 107.762 51.4113 107.15 50.54 106.425Z" fill="#FD9500"/>
<path fill-rule="evenodd" clip-rule="evenodd" d="M78.7329 162.208L77.1042 180.918C77.0714 181.294 77.3451 181.628 77.7147 181.66C78.0843 181.694 78.4102 181.416 78.4438 181.04L80.0708 162.329C80.1044 161.953 79.8304 161.62 79.4607 161.587C79.0909 161.553 78.7648 161.832 78.7329 162.208Z" fill="#FD9500"/>
<path fill-rule="evenodd" clip-rule="evenodd" d="M43.8287 167.147C43.2557 160.302 44.7859 154.735 45.8089 151.897C45.891 151.699 46.0984 151.589 46.3048 151.632C46.511 151.675 46.6592 151.859 46.6589 152.073C46.8571 157.638 48.2973 165.135 48.7615 167.431C48.7294 167.327 48.6975 167.224 48.6657 167.12C48.6657 167.12 46.7337 167.376 43.8287 167.147ZM13.752 130.506C16.1849 127.435 18.59 125.112 20.8292 123.353C24.2773 120.643 27.3314 119.272 29.4848 118.571C29.7339 118.515 29.9875 118.648 30.0874 118.886C30.1872 119.125 30.1048 119.402 29.8917 119.545C23.3769 124.079 19.6614 131.932 18.4042 134.984C18.281 134.883 16.3356 133.294 13.752 130.506Z" fill="#E15D33"/>
<path fill-rule="evenodd" clip-rule="evenodd" d="M100.681 140.389C101.088 140.26 101.464 140.548 101.73 141.198C101.745 141.234 101.758 141.27 101.772 141.306C100.53 142.096 97.8288 143.655 95.3614 144.002C94.9934 144.053 94.6538 143.792 94.6034 143.419C94.5513 143.045 94.8085 142.699 95.1766 142.648C97.2204 142.361 99.4323 141.159 100.681 140.389ZM99.4944 133.855H99.7197C100.268 133.855 100.79 134.012 101.237 134.293C100.496 134.843 97.5431 136.936 94.4488 137.685C94.0874 137.772 93.7261 137.545 93.6387 137.177C93.5529 136.811 93.7765 136.442 94.1378 136.355C96.2506 135.842 98.291 134.652 99.4944 133.855ZM97.6221 126.948L98.96 127.41C97.728 129.029 95.4169 131.436 92.1983 132.093C91.8352 132.168 91.4805 131.927 91.4066 131.557C91.3343 131.186 91.5696 130.826 91.9344 130.752C94.5513 130.217 96.4842 128.364 97.6221 126.948Z" fill="#FD9500"/>
<path fill-rule="evenodd" clip-rule="evenodd" d="M88.6284 122.438C88.6284 122.438 86.3342 122.953 83.9156 122.602C83.5475 122.549 83.208 122.811 83.1542 123.183C83.1021 123.558 83.3592 123.903 83.7256 123.956C86.3897 124.343 88.9175 123.775 88.9175 123.775C89.2789 123.693 89.5092 123.327 89.4285 122.959C89.3495 122.59 88.9898 122.358 88.6284 122.438Z" fill="#FD9500"/>
<path fill-rule="evenodd" clip-rule="evenodd" d="M56.7823 45.777C56.9929 46.2055 57.1302 46.7568 57.1537 47.4639L58.1684 46.1991C58.1488 46.2356 58.1252 46.2706 58.0983 46.3039L55.5827 49.4025C55.3464 49.6935 54.9224 49.7347 54.6363 49.4943C54.3502 49.2539 54.3097 48.8226 54.546 48.5316L56.7823 45.777ZM52.8184 42.7862C53.0686 43.1678 53.2122 43.7078 53.1589 44.4688L51.5993 46.2851C51.3553 46.5695 50.9302 46.5987 50.6507 46.3504C50.3712 46.1022 50.3424 45.6698 50.5865 45.3855L52.8184 42.7862ZM49.9256 40.26C50.1999 40.6705 50.3182 41.2263 50.0888 41.9806H50.089C49.2472 42.7877 48.2764 43.7243 48.2764 43.7243C48.0072 43.984 47.5813 43.9725 47.3259 43.6986C47.0706 43.4247 47.0819 42.9915 47.3512 42.7318C47.3512 42.7318 49.0703 41.0738 49.9256 40.26Z" fill="#FD9500"/>
<path fill-rule="evenodd" clip-rule="evenodd" d="M32.851 94.8464C32.851 94.8464 28.4141 90.39 25.7862 87.7505C25.6057 87.5691 25.5783 87.2858 25.7207 87.0733C25.8629 86.8608 26.1355 86.7782 26.3718 86.876C29.8399 88.3116 35.7238 90.747 35.7238 90.747L32.851 94.8464Z" fill="#FD9500"/>
<path fill-rule="evenodd" clip-rule="evenodd" d="M86.4588 124.044L87.479 116.433C85.8487 115.858 84.2519 115.109 82.7107 114.176C81.435 113.405 81.0148 111.724 81.7728 110.427C82.5325 109.129 84.1847 108.703 85.4587 109.474C95.1652 115.347 107.732 112.097 113.506 102.224C119.278 92.3514 116.084 79.5687 106.378 73.6969C105.102 72.9252 104.682 71.2451 105.441 69.9477C106.199 68.65 107.852 68.223 109.127 68.9947C121.385 76.4099 125.417 92.5526 118.128 105.021C112.724 114.263 102.608 118.908 92.7415 117.674L92.0776 122.625C90.8607 123.211 88.8438 123.97 86.4588 124.044Z" fill="#DC5D3C"/>
<path fill-rule="evenodd" clip-rule="evenodd" d="M85.4601 109.473C75.7538 103.601 72.56 90.8182 78.3325 80.9452C84.1049 71.0724 96.6718 67.8238 106.378 73.6955C107.654 74.4671 109.305 74.0402 110.064 72.7427C110.823 71.445 110.403 69.765 109.127 68.9934C96.8699 61.5784 80.9996 65.6807 73.7098 78.1487C66.4201 90.6167 70.4534 106.76 82.7108 114.175C83.9864 114.946 85.6382 114.519 86.3968 113.222C87.1554 111.924 86.7357 110.244 85.4601 109.473Z" fill="#DC5D3C"/>
<path d="M58.8878 109.45C66.1894 109.45 72.1085 103.43 72.1085 96.0026C72.1085 88.5755 66.1894 82.5547 58.8878 82.5547C51.5861 82.5547 45.667 88.5755 45.667 96.0026C45.667 103.43 51.5861 109.45 58.8878 109.45Z" fill="#FFBB22"/>
<path fill-rule="evenodd" clip-rule="evenodd" d="M54.2907 101.314C51.9058 101.733 49.3679 101.792 46.7355 101.304C46.048 99.6773 45.667 97.8849 45.667 96.0026C45.667 88.5805 51.591 82.5547 58.8878 82.5547C64.7041 82.5547 69.6482 86.3833 71.4147 91.695C70.8607 94.2237 66.7006 99.2743 58.1549 100.304C58.4314 99.5846 58.4539 98.7107 58.1564 97.8608C57.5725 96.1929 55.9758 95.2452 54.5931 95.746C53.2103 96.2467 52.5617 98.0077 53.1456 99.6756C53.3851 100.36 53.795 100.923 54.2907 101.314Z" fill="black"/>
<path d="M63.4471 81.6097C68.4267 81.6097 72.4635 77.5036 72.4635 72.4384C72.4635 67.3732 68.4267 63.2671 63.4471 63.2671C58.4675 63.2671 54.4307 67.3732 54.4307 72.4384C54.4307 77.5036 58.4675 81.6097 63.4471 81.6097Z" fill="black"/>
<path fill-rule="evenodd" clip-rule="evenodd" d="M159.083 43.3243C154.217 52.7022 144.531 59.0976 133.388 59.0976C117.356 59.0976 104.339 45.8574 104.339 29.5491C104.339 19.6252 109.159 10.8374 116.551 5.48486L133.388 29.5491L159.083 43.3243Z" fill="#E5734E"/>
<path fill-rule="evenodd" clip-rule="evenodd" d="M133.389 29.5493L116.553 5.48502C120.768 2.41946 125.826 0.478668 131.301 0.0854492L133.389 29.5493Z" fill="#FFBB22"/>
<path fill-rule="evenodd" clip-rule="evenodd" d="M132.054 0.0341898L133.385 0C141.552 0 148.938 3.43553 154.213 8.96811L133.385 29.5483L131.298 0.0844544L131.691 0.0538542L132.054 0.0341898Z" fill="#A8CFCC"/>
<path fill-rule="evenodd" clip-rule="evenodd" d="M162.065 7.23657C167.155 12.5536 170.288 19.816 170.288 27.8168C170.288 32.7908 169.076 37.4795 166.933 41.5919L141.237 27.8168L162.065 7.23657Z" fill="#FFCBC4"/>
<defs>
<linearGradient id="paint0_linear_254_1500" x1="212.636" y1="151.982" x2="285.289" y2="209.063" gradientUnits="userSpaceOnUse">
<stop stop-color="#82B5B2"/>
<stop offset="0.57" stop-color="#9AC1BB"/>
<stop offset="0.8" stop-color="#CED9CF"/>
<stop offset="1" stop-color="#FFF1E2"/>
</linearGradient>
<linearGradient id="paint1_linear_254_1500" x1="53.3417" y1="161.152" x2="-11.9577" y2="177.823" gradientUnits="userSpaceOnUse">
<stop stop-color="#FFBB22"/>
<stop offset="0.47" stop-color="#FEB019"/>
<stop offset="1" stop-color="#FD9500"/>
</linearGradient>
</defs>
</svg>
