<svg width="58" height="58" viewBox="0 0 58 58" fill="none" xmlns="http://www.w3.org/2000/svg">
<path d="M57.1259 36.0152C53.2527 51.5511 37.5174 61.0059 21.9797 57.1318C6.44847 53.2586 -3.00635 37.5223 0.868507 21.9877C4.73997 6.45015 20.4753 -3.00538 36.0082 0.867779C51.5448 4.74094 60.999 20.4789 57.1254 36.0155L57.1257 36.0152H57.1259Z" fill="#124672"/>
<path fill-rule="evenodd" clip-rule="evenodd" d="M32.6696 32.2877C32.4645 32.3031 31.405 32.3663 29.0418 32.3663C27.1621 32.3663 25.8275 32.3099 25.3593 32.2877C18.0952 31.9682 12.6732 30.7036 12.6732 29.1896C12.6732 27.6756 18.0952 26.4128 25.3593 26.0882V31.0283C25.8344 31.0625 27.1946 31.1428 29.0742 31.1428C31.3299 31.1428 32.4594 31.0488 32.6627 31.03V26.0916C39.9115 26.4146 45.3215 27.6791 45.3215 29.1896C45.3215 30.7002 39.9132 31.9647 32.6627 32.286L32.6696 32.2877ZM32.6696 25.5807V21.16H42.7857V14.4188H15.2432V21.16H25.3576V25.5789C17.1365 25.9566 10.9541 27.5851 10.9541 29.5365C10.9541 31.488 17.1365 33.1148 25.3576 33.4941V47.6601H32.6678V33.489C40.8701 33.1113 47.0423 31.4846 47.0423 29.5348C47.0423 27.5851 40.8752 25.9583 32.6678 25.5789L32.6696 25.5807Z" fill="white"/>
</svg>
