<svg width="71" height="71" viewBox="0 0 71 71" fill="none" xmlns="http://www.w3.org/2000/svg">
<path d="M64.0632 35.1867C63.9991 51.198 50.9664 64.1263 34.9531 64.0618C18.9464 63.9966 6.01781 50.9629 6.08382 34.9525C6.14582 18.94 19.1784 6.01094 35.1867 6.0757C51.1987 6.13959 64.1271 19.175 64.0628 35.1871L64.063 35.1867L64.0632 35.1867Z" fill="#0B365B"/>
<path fill-rule="evenodd" clip-rule="evenodd" d="M46.5099 28.0115C46.152 24.1258 42.8045 22.8103 38.5728 22.4224L38.5944 17.0347L35.3149 17.022L35.2941 22.2678C34.4319 22.2642 33.5506 22.2778 32.6749 22.2917L32.6966 17.0111L29.419 16.9979L29.3963 22.3841C28.6863 22.3958 27.9888 22.4064 27.309 22.4039L27.3087 22.3871L22.7855 22.3672L22.7723 25.8699C22.7723 25.8699 25.1943 25.8336 25.1539 25.8778C26.482 25.8835 26.9114 26.6565 27.0348 27.3225L27.0103 33.4603C27.1018 33.4611 27.2214 33.4653 27.3569 33.4847L27.2616 33.4842L27.2613 33.4842C27.1804 33.4839 27.0964 33.4834 27.0104 33.4839L26.9749 42.0824C26.9151 42.5001 26.6667 43.1659 25.7386 43.1637C25.7806 43.201 23.3547 43.1536 23.3547 43.1536L22.6872 47.0676L26.9551 47.0846C27.4227 47.0872 27.8858 47.094 28.3442 47.1007L28.3444 47.1007C28.6646 47.1054 28.9825 47.1101 29.2981 47.1132L29.2777 52.5624L32.5536 52.576L32.5751 47.1844C33.4746 47.2067 34.3448 47.2173 35.1949 47.22L35.1718 52.5866L38.4515 52.5993L38.4742 47.1598C43.9891 46.8657 47.8536 45.4924 48.3534 40.3164C48.757 36.1489 46.8034 34.2809 43.6769 33.5167C45.5823 32.556 46.7779 30.855 46.5111 28.0117L46.51 28.0112L46.5099 28.0115ZM41.8748 39.6446C41.8614 43.3807 35.9927 43.2756 33.3076 43.2275C33.0661 43.2232 32.8503 43.2193 32.6669 43.2188L32.6968 35.9989C32.9204 35.9999 33.1921 35.9946 33.4999 35.9885C36.2519 35.9347 41.8905 35.8244 41.875 39.6445L41.8748 39.6446ZM33.2493 32.7025C35.4893 32.7484 40.3759 32.8484 40.3904 29.4522L40.3907 29.4522C40.4042 25.979 35.7049 26.0845 33.4098 26.136C33.1516 26.1418 32.9238 26.1469 32.7366 26.1461L32.71 32.694C32.8642 32.6946 33.0458 32.6983 33.2493 32.7025Z" fill="white"/>
</svg>
