<svg width="24" height="24" viewBox="0 0 24 24" fill="none" xmlns="http://www.w3.org/2000/svg">
<path d="M12.0002 2.99999C13.815 3.00002 15.5875 3.54874 17.085 4.57414C18.5824 5.59954 19.7349 7.0537 20.3911 8.74578C21.0473 10.4379 21.1766 12.2888 20.7621 14.0557C20.3475 15.8226 19.4085 17.4229 18.0682 18.6466C16.7279 19.8703 15.0489 20.6601 13.2517 20.9125C11.4545 21.1649 9.62289 20.8681 7.99737 20.0609C6.37186 19.2538 5.02834 17.9741 4.14314 16.3897C3.25794 14.8053 2.87242 12.9904 3.03717 11.183C3.04898 11.0522 3.08645 10.925 3.14742 10.8087C3.2084 10.6924 3.29168 10.5892 3.39253 10.5051C3.49337 10.4209 3.6098 10.3575 3.73516 10.3184C3.86053 10.2792 3.99237 10.2652 4.12317 10.277C4.25396 10.2888 4.38115 10.3263 4.49747 10.3872C4.61379 10.4482 4.71695 10.5315 4.80108 10.6323C4.88521 10.7332 4.94866 10.8496 4.98779 10.975C5.02693 11.1003 5.04098 11.2322 5.02917 11.363C4.93301 12.3857 5.06435 13.417 5.41376 14.3829C5.76317 15.3488 6.322 16.2255 7.05017 16.95C7.42517 17.325 7.84217 17.657 8.29217 17.938C9.40668 18.6338 10.6945 19.0018 12.0084 19.0001C13.3222 18.9983 14.6091 18.6269 15.7217 17.9281C16.8344 17.2294 17.728 16.2317 18.3002 15.049C18.8725 13.8663 19.1003 12.5464 18.9577 11.2403C18.8151 9.93423 18.3078 8.69463 17.4938 7.6633C16.6799 6.63197 15.592 5.85054 14.3548 5.40838C13.1176 4.96622 11.7809 4.88119 10.4976 5.16301C9.21434 5.44482 8.03628 6.08211 7.09817 7.00199L8.49817 7.00299C8.7545 7.00124 9.00172 7.09799 9.18878 7.27327C9.37583 7.44856 9.48842 7.68898 9.50331 7.94489C9.5182 8.2008 9.43424 8.45265 9.26878 8.64844C9.10331 8.84423 8.86898 8.969 8.61417 8.99699L8.49817 9.00299H4.49617C4.25123 9.00296 4.01483 8.91303 3.83179 8.75027C3.64876 8.58751 3.53182 8.36324 3.50317 8.11999L3.49617 8.00299V4.00299C3.49441 3.74665 3.59117 3.49943 3.76645 3.31238C3.94173 3.12533 4.18216 3.01273 4.43807 2.99784C4.69398 2.98296 4.94583 3.06691 5.14162 3.23238C5.33741 3.39784 5.46218 3.63218 5.49017 3.88699L5.49617 4.00399V5.77799C6.33589 4.89894 7.3453 4.19948 8.46327 3.72197C9.58124 3.24447 10.7845 2.99885 12.0002 2.99999ZM11.2502 6.99999C11.4314 7 11.6065 7.06563 11.7431 7.18476C11.8797 7.30388 11.9685 7.46843 11.9932 7.64799L12.0002 7.74999V12H14.2502C14.4402 12 14.6231 12.0722 14.762 12.202C14.9008 12.3317 14.9852 12.5093 14.9982 12.6989C15.0111 12.8885 14.9517 13.0759 14.8317 13.2233C14.7118 13.3707 14.5404 13.4671 14.3522 13.493L14.2502 13.5H11.2502C11.0689 13.5 10.8938 13.4343 10.7572 13.3152C10.6206 13.1961 10.5318 13.0315 10.5072 12.852L10.5002 12.75V7.74999C10.5002 7.55108 10.5792 7.36031 10.7198 7.21966C10.8605 7.07901 11.0513 6.99999 11.2502 6.99999Z" fill="#0B365B"/>
</svg>
