<svg width="707" height="351" viewBox="0 0 707 351" fill="none" xmlns="http://www.w3.org/2000/svg">
<g clip-path="url(#clip0_1310_356)">
<rect width="707" height="351" fill="white"/>
<path d="M160.223 -148.201C162.785 -151.096 167.795 -152.339 171.413 -150.976L1000.45 161.293C1004.07 162.656 1004.92 166.108 1002.36 169.003L735.456 470.605C731.467 475.112 722.64 473.341 724.326 468.372V468.372C762.905 354.706 652.296 261.916 494.661 275.707L287.773 293.806V293.806C130.484 301.857 -13.308 263.363 -110.707 187.131L-125.207 175.783C-125.657 175.431 -125.675 174.863 -125.253 174.386L160.223 -148.201Z" fill="#124672"/>
<path d="M-45.9473 -81C-45.9473 -84.866 -42.8133 -88 -38.9473 -88H810.016C813.882 -88 817.016 -84.866 817.016 -81V218.807C817.016 224.277 809.635 226.004 807.207 221.103V221.103C756.24 118.195 631.626 75.9126 528.558 126.557L352.704 212.966V212.966C235.489 264.271 104.808 276.226 -19.77 247.04L-44.6129 241.22C-45.3946 241.037 -45.9473 240.34 -45.9473 239.537V-81Z" fill="#0B365B"/>
</g>
<defs>
<clipPath id="clip0_1310_356">
<rect width="707" height="351" fill="white"/>
</clipPath>
</defs>
</svg>
