<svg width="32" height="32" viewBox="0 0 32 32" fill="none" xmlns="http://www.w3.org/2000/svg">
<rect width="32" height="32" rx="5" fill="#F3002E"/>
<path d="M9 9H15C15.55 9 16 8.55 16 8C16 7.45 15.55 7 15 7H9C7.9 7 7 7.9 7 9V23C7 24.1 7.9 25 9 25H15C15.55 25 16 24.55 16 24C16 23.45 15.55 23 15 23H9V9Z" fill="white"/>
<path d="M24.65 15.65L21.86 12.86C21.7905 12.7886 21.7012 12.7395 21.6036 12.7191C21.506 12.6987 21.4045 12.7079 21.3121 12.7455C21.2198 12.783 21.1408 12.8473 21.0851 12.9301C21.0295 13.0129 20.9999 13.1103 21 13.21V15H14C13.45 15 13 15.45 13 16C13 16.55 13.45 17 14 17H21V18.79C21 19.24 21.54 19.46 21.85 19.14L24.64 16.35C24.84 16.16 24.84 15.84 24.65 15.65Z" fill="white"/>
</svg>
