<svg width="183" height="132" viewBox="0 0 183 132" fill="none" xmlns="http://www.w3.org/2000/svg">
<path d="M52.935 15.7319L56.0732 18.577C54.7711 20.0233 54.7102 21.3285 56.0373 23.0976L56.3389 23.4902L53.0729 26.185C50.2862 22.8146 50.0702 19.2531 52.5624 16.1674L52.935 15.7319Z" fill="#91C848"/>
<path d="M18.6371 62.2882L14.543 63.3739C14.0373 61.4947 12.975 60.734 10.7685 60.886L10.275 60.9252L9.78999 56.7185C14.1341 56.2132 17.2398 57.9689 18.474 61.7386L18.6371 62.2882Z" fill="#91C848"/>
<path d="M34.5287 18.6787C33.5277 15.0389 33.6155 12.5139 34.9988 11.2988L35.1352 11.1975C35.6759 10.7751 35.7738 9.45456 35.2172 7.05774L35.0824 6.48899L38.2966 6.86804C39.3072 10.7852 39.1817 13.424 37.6701 14.5863C37.1343 14.993 37.0421 16.2108 37.5765 18.4136L37.728 18.9826L34.5287 18.6787Z" fill="#3EC1DD"/>
<path d="M20.7482 47.9229C18.2177 43.5538 15.2678 41.0793 11.8128 40.891L11.4827 40.8704C10.1977 40.8488 8.57127 39.602 6.74149 36.7959L6.32097 36.1229L1.83998 38.8452C4.59839 43.3614 7.61712 45.8901 11.0767 46.0949L11.3957 46.1094C12.6812 46.1311 14.1809 47.2769 15.8142 49.8822L16.2181 50.5597L20.7482 47.9229Z" fill="#E86BA4"/>
<path d="M23.9975 26.6968L20.7256 25.9229C19.7427 30.0765 21.456 32.8743 25.4703 33.4094L25.9151 30.0812C23.9577 29.8171 23.4499 28.9936 23.9975 26.6968Z" fill="#F89C1B"/>
<path d="M58.6674 48.5117C62.3748 45.0839 64.141 41.6637 63.5665 38.2515L63.5145 37.9249C63.2537 36.6663 64.1131 34.8063 66.449 32.4051L67.0133 31.8464L63.3736 28.0728C59.5733 31.7554 57.7685 35.2546 58.328 38.6753L58.3838 38.9902C58.6448 40.2483 57.8571 41.9634 55.6733 44.1282L55.1011 44.6713L58.6674 48.5117Z" fill="#FFD762"/>
<path d="M42.4258 52.4778C42.5787 48.9142 41.7617 46.3191 39.7752 44.8941L39.5867 44.7573C38.8293 44.2559 38.3344 42.8947 38.311 40.5277L38.316 39.9673L34.6124 39.8867C34.5394 43.6249 35.3767 46.2773 37.3594 47.714L37.544 47.844C38.3014 48.3453 38.7598 49.5976 38.7427 51.7699L38.7253 52.3274L42.4258 52.4778Z" fill="#3EC1DD"/>
<path d="M79.6945 62.7647L94.1512 109.63L67.5587 121.334L53.102 74.4688L79.6945 62.7647Z" fill="#3C623F"/>
<path d="M73.9741 68.9859C74.5321 70.7935 76.481 71.5888 78.3448 70.7686C78.39 70.7487 78.4809 70.7081 78.5261 70.6882L88.9718 104.549C88.9266 104.569 88.8344 104.608 88.7893 104.629C86.9259 105.448 85.8747 107.563 86.4321 109.371C86.4458 109.416 86.473 109.504 86.4865 109.548L73.3037 115.35C73.2902 115.306 73.263 115.218 73.2488 115.173C72.6915 113.367 70.7432 112.572 68.8788 113.392C68.8337 113.412 68.7427 113.452 68.697 113.472L58.2525 79.612C58.2987 79.5912 58.3897 79.5512 58.4348 79.5307C60.2981 78.7113 61.3494 76.5956 60.792 74.7884C60.7784 74.744 60.7518 74.6557 60.7376 74.6114L73.9198 68.8101C73.9334 68.8544 73.9605 68.9421 73.9741 68.9859Z" fill="#63A167"/>
<path d="M70.795 76.7779C71.1637 77.9708 70.4647 79.3762 69.234 79.9179C68.0044 80.4587 66.7075 79.9319 66.3399 78.7381C65.9723 77.5455 66.6706 76.1386 67.9007 75.5971C68.0414 75.5354 68.1829 75.4872 68.3235 75.4527C69.4149 75.185 70.4691 75.7207 70.795 76.7779Z" fill="#304A32"/>
<path d="M81.1399 105.279C81.5075 106.472 80.8087 107.879 79.5792 108.421C78.3484 108.962 77.0531 108.434 76.685 107.241C76.3168 106.047 77.0151 104.641 78.2458 104.099C78.3858 104.037 78.5279 103.989 78.668 103.955C79.7599 103.687 80.813 104.223 81.1399 105.279Z" fill="#304A32"/>
<path d="M84.3462 57.1574L96.0872 105.893L69.026 114.122L57.285 65.3867L84.3462 57.1574Z" fill="#3C623F"/>
<path d="M78.3158 62.6308C78.7691 64.5106 80.6601 65.56 82.5567 64.9833C82.6027 64.9693 82.6952 64.9406 82.7412 64.9266L91.2247 100.138C91.1787 100.152 91.085 100.18 91.0391 100.195C89.1429 100.77 87.9809 102.748 88.4336 104.628C88.4446 104.674 88.4667 104.766 88.4777 104.812L75.0626 108.89C75.0516 108.845 75.0295 108.753 75.0179 108.707C74.5653 106.828 72.6749 105.78 70.7776 106.356C70.7317 106.37 70.6391 106.398 70.5926 106.412L62.1103 71.2013C62.1574 71.1865 62.2499 71.1584 62.2958 71.1438C64.192 70.5679 65.354 68.5901 64.9013 66.7109C64.8903 66.6647 64.8688 66.5729 64.8572 66.5269L78.2717 62.448C78.2828 62.4941 78.3048 62.5853 78.3158 62.6308Z" fill="#71B175"/>
<path d="M75.1424 70.1428C75.442 71.3834 74.6694 72.697 73.417 73.0779C72.1658 73.458 70.9072 72.7621 70.6088 71.5208C70.3104 70.2807 71.0823 68.9654 72.3341 68.5846C72.4772 68.5414 72.6204 68.5116 72.762 68.4954C73.8607 68.3703 74.8778 69.0434 75.1424 70.1428Z" fill="#304A32"/>
<path d="M82.9942 99.6973C83.2927 100.938 82.5202 102.253 81.269 102.635C80.0166 103.014 78.7597 102.318 78.4607 101.077C78.1617 99.8358 78.9336 98.5211 80.186 98.1402C80.3285 98.0965 80.4723 98.0672 80.6133 98.0511C81.7127 97.9259 82.7285 98.5985 82.9942 99.6973Z" fill="#304A32"/>
<path d="M93.4683 60.4823L102.779 110.335L75.3434 115.459L66.0325 65.606L93.4683 60.4823Z" fill="#3C613E"/>
<path d="M87.175 65.2482C87.5345 67.1711 89.3712 68.4303 91.2941 68.0714C91.3407 68.0626 91.4345 68.0446 91.4811 68.0358L98.209 104.055C98.1624 104.064 98.0674 104.08 98.0208 104.09C96.0984 104.448 94.8398 106.285 95.1988 108.208C95.2075 108.256 95.225 108.349 95.2337 108.396L81.6329 110.935C81.6242 110.889 81.6067 110.795 81.5974 110.748C81.2384 108.826 79.4023 107.567 77.4788 107.926C77.4322 107.935 77.3384 107.952 77.2912 107.961L70.5645 71.9428C70.6123 71.9335 70.7061 71.916 70.7527 71.9067C72.6751 71.5484 73.9337 69.7111 73.5747 67.7888C73.566 67.7416 73.5491 67.6478 73.5398 67.6006L87.14 65.0612C87.1487 65.1084 87.1662 65.2016 87.175 65.2482Z" fill="#71B175"/>
<path d="M95.0796 86.0014C95.9455 90.6385 91.8596 95.2908 85.9545 96.3932C80.0488 97.4963 74.5598 94.6317 73.6933 89.9958C72.8274 85.3592 76.9133 80.707 82.8184 79.6039C83.6732 79.4443 84.5199 79.3679 85.345 79.3679C90.2169 79.3673 94.339 82.0367 95.0796 86.0014Z" fill="#3C613E"/>
<path d="M87.3774 81.8814L89.2602 81.4668C89.4081 83.1019 90.151 90.7458 90.1443 90.6478C89.4949 90.7979 88.4525 90.9262 88.3988 90.7434C88.2906 90.5763 87.7465 86.9497 87.5391 86.8451C87.4356 86.8562 86.6085 87.0128 86.6198 87.0224C86.4661 87.571 87.0572 91.1322 86.9966 91.3183C86.9226 91.307 86.6569 91.2199 86.2595 91.407C86.0429 91.5089 85.9411 87.1945 85.6812 86.9993C85.2101 86.6453 84.2073 87.3939 84.1551 88.5679C84.114 89.4955 83.9485 90.7278 84.7547 91.4341L83.7868 93.0541L81.5742 91.569L79.7593 90.2394C78.187 89.0619 76.9577 87.9231 76.9607 87.8181L77.6579 85.6187L82.3714 89.1626L82.5751 87.1833C83.4216 84.4189 84.7513 84.5569 85.4589 84.3065C85.4614 84.2809 85.2066 81.3844 85.2574 81.3177C85.5155 81.2814 85.6815 81.2381 85.935 81.2222C86.1159 81.2107 86.1495 83.7301 86.3659 84.1363C86.3169 84.2264 87.4611 84.0513 87.6512 84.0003C87.6169 84.06 87.3774 81.8814 87.3774 81.8814Z" fill="#6CB171"/>
<path d="M84.0143 72.4892C84.2521 73.7583 83.4153 74.9785 82.1456 75.2156C80.8771 75.4522 79.6546 74.6166 79.418 73.3469C79.1814 72.0784 80.0176 70.8565 81.2867 70.6193C81.4318 70.5925 81.5763 70.5791 81.7185 70.5791C82.8221 70.5791 83.8045 71.3646 84.0143 72.4892Z" fill="#3C613E"/>
<path d="M89.6289 102.55C89.8655 103.82 89.0288 105.041 87.7602 105.279C86.4905 105.515 85.2698 104.679 85.0326 103.41C84.7954 102.14 85.6316 100.919 86.9013 100.682C87.0458 100.654 87.1909 100.641 87.3325 100.641C88.4367 100.641 89.418 101.426 89.6289 102.55Z" fill="#3C613E"/>
<path d="M112.767 88.5018V131.605H40.9266V88.5018H112.767Z" fill="#7D3EA9"/>
<path d="M66.2434 131.605V88.485H88.9688V131.605H66.2434Z" fill="#FFA900"/>
<path d="M158.482 15.7072L156.168 28.3742C155.581 31.5954 152.726 33.9048 149.454 33.8144C147.29 33.7483 145.286 32.6245 144.101 30.8071L135.815 18.0965C133.692 14.8402 134.817 10.4613 138.252 8.62931L144.34 5.38506C149.156 2.81962 154.529 4.73583 157.106 8.68925C158.374 10.6327 158.965 13.0686 158.482 15.7072Z" fill="#FFBB36"/>
<path d="M147.098 14.6073L147.43 34.2161L145.508 34.0246L135.223 18.248C133.157 15.0786 134.249 10.8173 137.588 9.02815C140.714 7.35071 144.329 8.53705 146.065 11.1985C146.694 12.1636 147.076 13.3217 147.098 14.6073Z" fill="#AC7201"/>
<path d="M175.206 52.7329L169.782 56.9945C166.719 59.3981 162.259 58.6603 160.136 55.4039L151.85 42.6938C150.665 40.8759 150.446 38.5892 151.263 36.5785C152.501 33.5485 155.766 31.8688 158.951 32.6305L171.469 35.6281C174.078 36.2512 176.069 37.7751 177.335 39.7192C179.912 43.6726 179.498 49.3616 175.206 52.7329Z" fill="#FFBB35"/>
<path d="M169.148 57.4419C166.163 59.7744 161.824 59.0534 159.758 55.8844L149.473 40.1068L150.07 38.2674L167.88 46.4878C169.048 47.0274 169.953 47.8438 170.582 48.8084C172.317 51.471 171.944 55.2588 169.148 57.4419Z" fill="#AC7200"/>
<path d="M151.652 81.9454L108.375 15.5587L126.316 3.8627L169.594 70.2494L151.652 81.9454Z" fill="#682995"/>
<path d="M146.342 37.763C144.248 34.551 145.156 30.2495 148.37 28.1547C151.583 26.0595 155.886 26.9645 157.98 30.1764C160.073 33.3879 159.165 37.6899 155.951 39.785C152.738 41.8799 148.435 40.9744 146.342 37.763Z" fill="#FFD27B"/>
<path d="M141.63 27.3589L154.002 46.3317L136.06 58.028L123.689 39.0549L141.63 27.3589Z" fill="#FFA900"/>
</svg>
