<svg width="166" height="166" viewBox="0 0 166 166" fill="none" xmlns="http://www.w3.org/2000/svg">
<path d="M83 0C37.2338 0 0 37.2338 0 83C0 128.766 37.2338 166 83 166C128.766 166 166 128.766 166 83C166 37.2338 128.766 0 83 0ZM83 150.909C45.5544 150.909 15.0909 120.445 15.0909 83C15.0909 45.5549 45.5544 15.0909 83 15.0909C120.446 15.0909 150.909 45.5549 150.909 83C150.909 120.445 120.445 150.909 83 150.909Z" fill="#13547A"/>
<path d="M114.124 53.6551L71.4398 96.3388L51.8769 76.7754C48.9307 73.8292 44.1529 73.8287 41.2062 76.7749C38.2594 79.7217 38.2594 84.4989 41.2062 87.4457L66.1041 112.345C67.5192 113.76 69.4382 114.555 71.4393 114.555C71.4398 114.555 71.4393 114.555 71.4398 114.555C73.4408 114.555 75.3599 113.76 76.7749 112.345L124.795 64.3264C127.741 61.3797 127.741 56.6024 124.795 53.6556C121.848 50.7089 117.071 50.7084 114.124 53.6551Z" fill="#13547A"/>
</svg>
